<svg width="1415" height="525" viewBox="0 0 1415 525" fill="none" xmlns="http://www.w3.org/2000/svg">
<g clip-path="url(#clip0_309_1279)">
<path d="M375.548 412.648C375.861 412.649 376.161 412.525 376.383 412.305C376.605 412.085 376.731 411.786 376.732 411.473L377.043 330.599C377.044 330.287 376.921 329.987 376.7 329.765C376.48 329.544 376.18 329.419 375.867 329.418L263.037 329.075C262.725 329.075 262.424 329.198 262.202 329.418C261.98 329.639 261.855 329.938 261.853 330.25L261.543 411.124C261.542 411.279 261.572 411.432 261.631 411.575C261.69 411.718 261.776 411.849 261.885 411.958C261.995 412.068 262.124 412.155 262.267 412.215C262.41 412.274 262.564 412.305 262.718 412.306L375.548 412.648Z" fill="#E6E6E6"/>
<path d="M369.609 336.632L369.388 394.108C369.387 394.491 369.233 394.858 368.96 395.129C368.688 395.399 368.319 395.55 367.935 395.549L270.23 395.253C270.162 395.253 270.093 395.247 270.026 395.234C269.682 395.185 269.367 395.013 269.139 394.75C268.912 394.486 268.787 394.15 268.788 393.803L269.009 336.327C269.01 335.944 269.164 335.576 269.437 335.306C269.709 335.036 270.078 334.885 270.462 334.886L368.166 335.182C368.55 335.183 368.918 335.337 369.189 335.609C369.459 335.881 369.61 336.249 369.609 336.632Z" fill="white"/>
<path d="M369.419 385.943L369.388 394.108C369.387 394.491 369.233 394.858 368.96 395.129C368.687 395.399 368.319 395.55 367.935 395.549L270.23 395.253C270.162 395.253 270.093 395.247 270.026 395.234C269.682 395.185 269.367 395.013 269.139 394.75C268.912 394.486 268.787 394.15 268.788 393.803L268.819 385.638L369.419 385.943Z" fill="#3F3D56"/>
<path d="M327.53 390.695L311.986 390.647L311.979 392.421L327.523 392.468L327.53 390.695Z" fill="#CCCCCC"/>
<path d="M291.779 390.586L276.235 390.539L276.228 392.313L291.772 392.36L291.779 390.586Z" fill="#CCCCCC"/>
<path d="M363.281 390.803L347.737 390.756L347.73 392.53L363.274 392.577L363.281 390.803Z" fill="#CCCCCC"/>
<path d="M265.657 333.66C266.582 333.417 267.135 332.472 266.893 331.549C266.651 330.626 265.705 330.074 264.78 330.317C263.856 330.56 263.302 331.504 263.545 332.428C263.787 333.351 264.733 333.902 265.657 333.66Z" fill="#3F3D56"/>
<path d="M373.872 333.988C374.797 333.745 375.35 332.8 375.108 331.877C374.866 330.954 373.92 330.403 372.995 330.645C372.071 330.888 371.517 331.833 371.76 332.756C372.002 333.679 372.948 334.23 373.872 333.988Z" fill="#3F3D56"/>
<path d="M265.36 411.078C266.284 410.835 266.838 409.89 266.595 408.967C266.353 408.044 265.408 407.492 264.483 407.735C263.558 407.977 263.005 408.922 263.247 409.845C263.49 410.768 264.435 411.32 265.36 411.078Z" fill="#3F3D56"/>
<path d="M373.575 411.406C374.499 411.163 375.053 410.218 374.81 409.295C374.568 408.372 373.623 407.821 372.698 408.063C371.773 408.306 371.22 409.251 371.462 410.174C371.705 411.097 372.65 411.648 373.575 411.406Z" fill="#3F3D56"/>
<path d="M346.044 388.355L354.684 388.386L354.689 387.016L346.05 386.985L346.044 388.355Z" fill="#3F3D56"/>
<path d="M283.585 387.103L285.366 387.52L353.108 387.762L353.722 386.347C354.794 383.919 355.169 381.242 354.805 378.615C354.521 376.656 353.797 374.709 352.14 373.859L349.211 353.856L311.733 353.675L297.188 365.31C297.188 365.31 290.349 365.167 286.615 369.775C285.268 371.489 284.468 373.567 284.321 375.74L284.165 378.143L283.585 387.103Z" fill="#E10A3C"/>
<path d="M300.585 394.893C305.054 393.72 307.728 389.153 306.557 384.691C305.387 380.229 300.815 377.563 296.346 378.735C291.877 379.908 289.203 384.475 290.373 388.937C291.544 393.399 296.116 396.065 300.585 394.893Z" fill="#3F3D56"/>
<path d="M299.581 391.066C301.933 390.449 303.34 388.045 302.724 385.697C302.108 383.348 299.702 381.945 297.35 382.562C294.998 383.179 293.59 385.583 294.206 387.931C294.822 390.28 297.229 391.683 299.581 391.066Z" fill="#CCCCCC"/>
<path d="M341.86 395.04C346.33 393.868 349.004 389.3 347.833 384.838C346.663 380.377 342.091 377.71 337.622 378.882C333.153 380.055 330.479 384.622 331.649 389.084C332.82 393.546 337.391 396.212 341.86 395.04Z" fill="#3F3D56"/>
<path d="M340.857 391.213C343.209 390.596 344.616 388.192 344 385.844C343.384 383.496 340.978 382.092 338.626 382.709C336.273 383.326 334.866 385.73 335.482 388.078C336.098 390.427 338.504 391.83 340.857 391.213Z" fill="#CCCCCC"/>
<path d="M302.955 363.963L323.189 364.033L325.659 364.04L329.83 364.056L329.831 363.752L329.848 360.09L329.867 355.978L327.092 355.969L324.622 355.959L320.247 355.943L317.777 355.935L312.725 355.917L302.955 363.963Z" fill="white"/>
<path d="M333.122 364.069L343.817 364.107L343.828 362.011L343.842 358.35L343.854 356.029L342.288 356.024L339.817 356.014L333.156 355.991L333.122 364.069Z" fill="white"/>
<path d="M328.423 372.681L329.794 372.686L329.806 370.084L328.434 370.079L328.423 372.681Z" fill="#3F3D56"/>
<path d="M308.422 367.678L308.428 366.309L305.823 366.3L305.817 367.669L308.422 367.678Z" fill="#3F3D56"/>
<path d="M307.466 366.908L307.315 366.907C306.555 366.905 305.827 366.601 305.292 366.062C304.757 365.523 304.458 364.794 304.462 364.035C304.465 363.276 304.77 362.549 305.31 362.015C305.85 361.48 306.58 361.181 307.34 361.184L307.491 361.184L307.466 366.908Z" fill="#3F3D56"/>
<path d="M284.165 378.143C285.201 378.259 286.246 378.005 287.114 377.428C287.983 376.85 288.62 375.985 288.912 374.985C289.205 373.985 289.135 372.914 288.715 371.961C288.295 371.008 287.551 370.234 286.615 369.775C285.268 371.489 284.468 373.567 284.321 375.74L284.165 378.143Z" fill="#3F3D56"/>
<path d="M324.622 355.959L329.831 363.752L329.848 360.09L327.093 355.969L324.622 355.959Z" fill="#F2F2F2"/>
<path d="M339.817 356.014L343.828 362.011L343.841 358.35L342.288 356.024L339.817 356.014Z" fill="#F2F2F2"/>
<path d="M317.777 355.935L323.189 364.033L325.659 364.04L320.247 355.943L317.777 355.935Z" fill="#F2F2F2"/>
<g clip-path="url(#clip1_309_1279)">
<path d="M1030.87 440.674V410.507C1030.87 407.499 1033.31 405.052 1036.31 405.052H1056C1059 405.052 1061.44 407.499 1061.44 410.507V440.674C1061.44 443.681 1059 446.128 1056 446.128H1036.31C1033.31 446.128 1030.87 443.681 1030.87 440.674Z" fill="#E10A3C"/>
<path d="M1040.95 418.092H1051.36V415.484H1040.95V418.092Z" fill="#3F3D56"/>
<path d="M1043.55 413.528H1048.76V405.052H1043.55V413.528Z" fill="#3F3D56"/>
<path d="M1043.55 446.128H1048.76V437.652H1043.55V446.128Z" fill="#3F3D56"/>
<path d="M1016.88 441.893H986.781C983.78 441.893 981.339 439.446 981.339 436.438V416.703C981.339 413.695 983.78 411.248 986.781 411.248H1016.88C1019.88 411.248 1022.32 413.695 1022.32 416.703V436.438C1022.32 439.446 1019.88 441.893 1016.88 441.893Z" fill="#E10A3C"/>
<path d="M1007.69 415.486H997.277V418.094H1007.69V415.486Z" fill="#3F3D56"/>
<path d="M989.796 429.179V423.963H981.339V429.179H989.796Z" fill="#3F3D56"/>
<path d="M1022.32 429.179V423.963H1013.87V429.179H1022.32Z" fill="#3F3D56"/>
<path d="M772.726 498.304L767.701 468.927C765.468 455.873 775.108 443.793 788.305 443.108L859.936 439.39L877.032 411.15C879.298 407.406 883.35 405.12 887.719 405.12H939.188C943.234 405.12 946.652 408.127 947.177 412.147L948.485 434.744L1076.8 435.129L1092.94 488.447L1077.96 487.714L1078.73 503.887L1059.14 504.657L1052.6 486.147C1051.37 482.661 1045.99 478.731 1040.38 475.443C1027.83 468.072 1011.69 470.437 1002.19 481.484C999.947 484.09 998.379 486.805 997.941 489.351L994.977 506.582L851.292 504.272L832.46 477.87C826.897 471.802 800.633 469.573 798.268 477.87L784.059 498.881L772.726 498.304Z" fill="#E6E6E6"/>
<path d="M928.896 422.303L933.123 442.278L879.337 443.433L890.697 418.988C891.728 416.77 893.99 415.393 896.428 415.499L922.202 416.623C925.465 416.765 928.218 419.101 928.896 422.303Z" fill="white"/>
<path d="M872.038 441.893L882.795 414.169L879.979 411.346L862.433 438.042L865.998 443.433L872.038 441.893Z" fill="white"/>
<path d="M1026.1 531.996C1040.1 531.996 1051.45 520.618 1051.45 506.582C1051.45 492.547 1040.1 481.168 1026.1 481.168C1012.09 481.168 1000.74 492.547 1000.74 506.582C1000.74 520.618 1012.09 531.996 1026.1 531.996Z" fill="#3F3D56"/>
<path d="M1008.62 506.582C1008.62 496.922 1016.46 489.062 1026.1 489.062C1035.74 489.062 1043.58 496.922 1043.58 506.582C1043.58 516.243 1035.74 524.102 1026.1 524.102C1016.46 524.102 1008.62 516.243 1008.62 506.582ZM1009 506.582C1009 516.03 1016.67 523.717 1026.1 523.717C1035.52 523.717 1043.19 516.03 1043.19 506.582C1043.19 497.134 1035.52 489.447 1026.1 489.447C1016.67 489.447 1009 497.134 1009 506.582Z" fill="white"/>
<path d="M1011.11 506.582C1011.11 514.876 1017.82 521.599 1026.1 521.599C1034.37 521.599 1041.08 514.876 1041.08 506.582C1041.08 498.288 1034.37 491.565 1026.1 491.565C1017.82 491.565 1011.11 498.288 1011.11 506.582ZM1035.84 502.986L1033.18 504.72L1032.16 503.152L1035.84 502.986ZM1031.79 511.806L1032.5 510.073L1034.73 513.008L1031.79 511.806ZM1025 517.749L1026.86 514.573V517.749H1025ZM1025 499.362L1026.86 496.186V499.362H1025ZM1016.7 513.008L1018.92 510.073L1019.63 511.806L1016.7 513.008ZM1015.59 502.986L1019.26 503.152L1018.24 504.72L1015.59 502.986Z" fill="#E6E6E6"/>
<path d="M813.257 531.996C827.261 531.996 838.614 520.618 838.614 506.582C838.614 492.547 827.261 481.168 813.257 481.168C799.253 481.168 787.901 492.547 787.901 506.582C787.901 520.618 799.253 531.996 813.257 531.996Z" fill="#3F3D56"/>
<path d="M795.777 506.582C795.777 496.922 803.619 489.062 813.257 489.062C822.896 489.062 830.738 496.922 830.738 506.582C830.738 516.243 822.896 524.102 813.257 524.102C803.619 524.102 795.777 516.243 795.777 506.582ZM796.161 506.582C796.161 516.03 803.83 523.717 813.257 523.717C822.684 523.717 830.354 516.03 830.354 506.582C830.354 497.134 822.684 489.447 813.257 489.447C803.83 489.447 796.161 497.134 796.161 506.582Z" fill="white"/>
<path d="M798.274 506.582C798.274 514.876 804.982 521.599 813.257 521.599C821.532 521.599 828.241 514.876 828.241 506.582C828.241 498.288 821.532 491.565 813.257 491.565C804.982 491.565 798.274 498.288 798.274 506.582ZM822.997 502.986L820.342 504.72L819.322 503.152L822.997 502.986ZM818.955 511.806L819.662 510.073L821.888 513.008L818.955 511.806ZM812.158 517.749L814.026 514.573V517.749H812.158ZM812.158 499.362L814.026 496.186V499.362H812.158ZM803.858 513.008L806.084 510.073L806.791 511.806L803.858 513.008ZM802.749 502.986L806.424 503.152L805.404 504.72L802.749 502.986Z" fill="#E6E6E6"/>
<path d="M919.101 452.482H933.7V449.401H919.101V452.482Z" fill="#3F3D56"/>
<path d="M1124.87 512.953C1124.74 512.535 1123.71 512.719 1123.61 512.346C1123.51 511.974 1124.5 511.662 1125.26 510.614C1125.39 510.425 1126.26 509.234 1125.93 508.733C1125.3 507.783 1120.94 510.148 1119.89 508.821C1119.66 508.53 1119.56 508.03 1118.88 507.099C1118.61 506.729 1118.43 506.55 1118.22 506.555C1117.93 506.563 1117.82 506.934 1117.36 507.607C1116.66 508.616 1116.4 508.49 1115.94 509.316C1115.6 509.93 1115.56 510.322 1115.32 510.345C1114.97 510.378 1114.82 509.614 1114.4 509.584C1113.96 509.554 1113.53 510.309 1113.31 510.899C1112.91 512.006 1113.16 512.852 1113.21 513.696C1113.28 514.612 1113.13 515.954 1112.14 517.676L1102.77 532.64C1104.78 529.589 1110.49 521.27 1112.8 518.219C1113.46 517.338 1114.17 516.454 1115.27 516.288C1116.33 516.127 1117.62 516.652 1119.42 516.621C1119.63 516.618 1120.21 516.6 1120.35 516.29C1120.47 516.034 1120.18 515.811 1120.28 515.57C1120.43 515.246 1121.07 515.385 1121.94 515.17C1122.55 515.019 1122.97 514.768 1123.33 514.553C1123.44 514.488 1125.05 513.508 1124.87 512.953Z" fill="#F2F2F2"/>
<path d="M1100.33 516.446C1100.09 516.393 1099.88 516.953 1099.67 516.894C1099.46 516.836 1099.59 516.259 1099.29 515.583C1099.24 515.461 1098.91 514.693 1098.57 514.711C1097.92 514.746 1097.82 517.574 1096.87 517.707C1096.66 517.736 1096.39 517.638 1095.73 517.706C1095.47 517.733 1095.33 517.768 1095.28 517.872C1095.2 518.02 1095.35 518.179 1095.54 518.602C1095.83 519.237 1095.7 519.324 1095.97 519.789C1096.17 520.134 1096.35 520.267 1096.29 520.395C1096.21 520.576 1095.79 520.426 1095.66 520.627C1095.52 520.832 1095.76 521.264 1095.99 521.54C1096.41 522.059 1096.9 522.18 1097.33 522.396C1097.79 522.63 1098.41 523.087 1098.97 524.073L1103.59 533C1102.68 531.13 1100.25 525.919 1099.42 523.907C1099.18 523.326 1098.96 522.719 1099.19 522.131C1099.42 521.564 1100.05 521.082 1100.55 520.189C1100.61 520.085 1100.77 519.793 1100.66 519.633C1100.57 519.502 1100.37 519.581 1100.29 519.459C1100.17 519.296 1100.42 519.021 1100.57 518.53C1100.67 518.183 1100.67 517.905 1100.67 517.667C1100.67 517.595 1100.65 516.518 1100.33 516.446Z" fill="#F2F2F2"/>
<path d="M1104.94 518.625L1105.09 517.28L1105.18 517.195C1105.59 516.805 1105.85 516.391 1105.94 515.965C1105.96 515.897 1105.97 515.828 1105.98 515.759C1106.03 515.482 1106.09 515.138 1106.36 514.781C1106.5 514.582 1106.9 514.133 1107.3 514.29C1107.41 514.331 1107.49 514.402 1107.54 514.477C1107.55 514.464 1107.56 514.451 1107.58 514.437C1107.75 514.267 1107.87 514.204 1107.99 514.144C1108.08 514.098 1108.18 514.05 1108.33 513.923C1108.4 513.868 1108.46 513.818 1108.51 513.775C1108.65 513.648 1108.83 513.499 1109.08 513.558C1109.34 513.631 1109.43 513.883 1109.49 514.05C1109.6 514.348 1109.63 514.553 1109.66 514.689C1109.66 514.739 1109.67 514.794 1109.68 514.813C1109.74 514.959 1110.46 514.996 1110.74 515.012C1111.35 515.045 1111.88 515.074 1112.01 515.495C1112.1 515.796 1111.91 516.125 1111.42 516.497C1111.27 516.613 1111.12 516.693 1110.99 516.753C1111.07 516.83 1111.14 516.934 1111.14 517.076C1111.15 517.412 1110.81 517.669 1110.12 517.843C1109.95 517.887 1109.72 517.945 1109.42 517.93C1109.28 517.923 1109.15 517.901 1109.05 517.881C1109.03 517.941 1109 518.004 1108.95 518.064C1108.8 518.239 1108.55 518.283 1108.22 518.185C1107.85 518.081 1107.55 517.941 1107.3 517.817C1107.07 517.71 1106.88 517.618 1106.71 517.593C1106.41 517.55 1106.13 517.738 1105.79 517.987L1104.94 518.625Z" fill="#F2F2F2"/>
<path d="M1107.36 510.964L1106.03 511.164L1105.92 511.099C1105.44 510.799 1104.98 510.653 1104.54 510.668C1104.47 510.67 1104.4 510.676 1104.33 510.682C1104.05 510.705 1103.7 510.734 1103.29 510.567C1103.06 510.474 1102.53 510.207 1102.58 509.775C1102.59 509.658 1102.64 509.569 1102.7 509.5C1102.68 509.491 1102.67 509.481 1102.65 509.471C1102.44 509.345 1102.35 509.242 1102.26 509.143C1102.2 509.067 1102.13 508.988 1101.96 508.867C1101.89 508.814 1101.83 508.773 1101.78 508.738C1101.62 508.632 1101.43 508.494 1101.42 508.238C1101.42 507.963 1101.65 507.812 1101.79 507.711C1102.05 507.531 1102.24 507.447 1102.37 507.392C1102.41 507.372 1102.46 507.348 1102.48 507.337C1102.61 507.244 1102.46 506.532 1102.4 506.263C1102.28 505.66 1102.17 505.138 1102.55 504.907C1102.82 504.742 1103.18 504.844 1103.66 505.219C1103.81 505.336 1103.93 505.462 1104.02 505.574C1104.07 505.476 1104.16 505.388 1104.29 505.348C1104.62 505.254 1104.95 505.522 1105.29 506.143C1105.38 506.298 1105.49 506.506 1105.55 506.801C1105.58 506.939 1105.59 507.065 1105.6 507.173C1105.66 507.173 1105.73 507.185 1105.8 507.22C1106.01 507.324 1106.12 507.552 1106.11 507.902C1106.1 508.286 1106.04 508.605 1105.98 508.887C1105.94 509.132 1105.9 509.344 1105.92 509.508C1105.95 509.813 1106.2 510.039 1106.53 510.304L1107.36 510.964Z" fill="#F2F2F2"/>
<path d="M1107.54 506.946L1107.69 505.601L1107.78 505.517C1108.19 505.126 1108.45 504.712 1108.54 504.286C1108.56 504.219 1108.57 504.15 1108.58 504.08C1108.63 503.804 1108.69 503.46 1108.96 503.103C1109.1 502.904 1109.5 502.454 1109.9 502.611C1110.01 502.652 1110.08 502.724 1110.14 502.799C1110.15 502.786 1110.16 502.773 1110.18 502.759C1110.35 502.588 1110.47 502.526 1110.59 502.466C1110.68 502.419 1110.78 502.372 1110.93 502.245C1111 502.189 1111.06 502.139 1111.11 502.097C1111.25 501.97 1111.43 501.821 1111.68 501.88C1111.94 501.952 1112.03 502.205 1112.09 502.372C1112.2 502.67 1112.23 502.875 1112.26 503.011C1112.26 503.06 1112.27 503.116 1112.28 503.134C1112.34 503.28 1113.06 503.318 1113.33 503.334C1113.95 503.367 1114.48 503.396 1114.61 503.817C1114.7 504.118 1114.51 504.446 1114.02 504.819C1113.87 504.935 1113.72 505.015 1113.59 505.075C1113.67 505.151 1113.74 505.256 1113.74 505.397C1113.75 505.733 1113.4 505.991 1112.72 506.165C1112.55 506.208 1112.32 506.266 1112.02 506.252C1111.88 506.245 1111.75 506.223 1111.65 506.203C1111.63 506.263 1111.6 506.326 1111.55 506.385C1111.4 506.561 1111.15 506.605 1110.81 506.506C1110.44 506.403 1110.15 506.262 1109.89 506.139C1109.67 506.031 1109.48 505.939 1109.31 505.914C1109.01 505.872 1108.73 506.059 1108.39 506.309L1107.54 506.946Z" fill="#F2F2F2"/>
<path d="M1103.21 532.716L1102.98 532.482L1102.65 532.448C1102.65 532.417 1102.65 532.345 1102.65 532.232C1102.63 531.613 1102.59 529.73 1102.85 526.837C1103.04 524.817 1103.34 522.767 1103.76 520.742C1104.18 518.714 1104.62 517.205 1104.97 515.993C1105.23 515.078 1105.5 514.211 1105.76 513.366C1106.45 511.108 1107.11 508.975 1107.52 506.543C1107.61 506 1107.8 504.869 1107.41 503.535C1107.19 502.761 1106.8 502.033 1106.27 501.371L1106.78 500.953C1107.37 501.684 1107.8 502.491 1108.05 503.35C1108.48 504.829 1108.27 506.061 1108.17 506.653C1107.76 509.129 1107.1 511.282 1106.39 513.561C1106.13 514.403 1105.87 515.267 1105.61 516.178C1105.26 517.379 1104.83 518.875 1104.41 520.877C1104 522.877 1103.7 524.902 1103.52 526.896C1103.26 529.753 1103.3 531.608 1103.31 532.218C1103.32 532.543 1103.32 532.611 1103.21 532.716Z" fill="#F2F2F2"/>
<path d="M1104.85 502.136C1104.83 502.13 1104.8 502.124 1104.77 502.116C1104.23 501.963 1103.79 501.518 1103.47 500.794C1103.32 500.453 1103.29 500.095 1103.22 499.38C1103.21 499.27 1103.16 498.713 1103.22 497.974C1103.26 497.491 1103.31 497.297 1103.44 497.145C1103.59 496.975 1103.78 496.878 1103.99 496.829C1104 496.765 1104.02 496.703 1104.06 496.643C1104.23 496.397 1104.51 496.499 1104.67 496.551C1104.75 496.579 1104.84 496.615 1104.95 496.633C1105.13 496.663 1105.23 496.633 1105.38 496.588C1105.53 496.545 1105.72 496.491 1105.97 496.495C1106.48 496.502 1106.85 496.729 1106.97 496.804C1107.62 497.194 1107.84 497.817 1108.1 498.538C1108.15 498.683 1108.33 499.205 1108.37 499.878C1108.39 500.363 1108.33 500.562 1108.26 500.704C1108.11 500.996 1107.88 501.131 1107.32 501.416C1106.73 501.714 1106.43 501.864 1106.19 501.94C1105.62 502.118 1105.27 502.23 1104.85 502.136Z" fill="#F2F2F2"/>
<path d="M933.607 529.245L938.941 529.245L941.479 508.623L933.606 508.623L933.607 529.245Z" fill="#FFB6B6"/>
<path d="M951.883 529.124C952.049 529.404 952.136 530.309 952.136 530.635C952.136 531.637 951.326 532.45 950.326 532.45L933.806 532.45C933.124 532.45 932.571 531.896 932.571 531.212V530.523C932.571 530.523 931.754 528.451 933.436 525.897C933.436 525.897 935.528 527.897 938.652 524.765L939.574 523.092L946.244 527.981L949.941 528.437C950.75 528.537 951.467 528.422 951.883 529.124Z" fill="#2F2E41"/>
<path d="M909.64 529.245L914.975 529.245L917.512 508.623L909.639 508.623L909.64 529.245Z" fill="#FFB6B6"/>
<path d="M927.916 529.124C928.082 529.404 928.17 530.309 928.17 530.635C928.17 531.637 927.359 532.45 926.359 532.45L909.84 532.45C909.158 532.45 908.605 531.896 908.605 531.212V530.523C908.605 530.523 907.787 528.451 909.47 525.897C909.47 525.897 911.561 527.897 914.686 524.765L915.607 523.092L922.277 527.981L925.974 528.437C926.783 528.537 927.5 528.422 927.916 529.124Z" fill="#2F2E41"/>
<path d="M932.762 388.434L933.775 397.907L921.96 396.892L923.986 388.095L932.762 388.434Z" fill="#FFB6B6"/>
<path opacity="0.1" d="M932.762 388.434L933.775 397.907L921.96 396.892L923.986 388.095L932.762 388.434Z" fill="black"/>
<path d="M928.543 389.618C932.83 389.618 936.306 386.134 936.306 381.836C936.306 377.539 932.83 374.055 928.543 374.055C924.255 374.055 920.779 377.539 920.779 381.836C920.779 386.134 924.255 389.618 928.543 389.618Z" fill="#FFB6B6"/>
<path d="M933.606 394.016L946.602 401.628L942.344 422.266L945.252 450.008L943.226 518.011L930.737 516.657L929.049 458.804L919.26 518.687H907.132L909.133 454.068L915.209 426.664L911.496 396.892L922.804 393.339L933.606 394.016Z" fill="#2F2E41"/>
<path d="M934.112 384.035C934.112 384.035 934.787 381.667 936.306 381.836C937.825 382.006 938.163 380.652 937.825 379.976C937.488 379.299 936.813 375.916 936.813 375.916C936.813 375.916 937.15 373.547 935.125 373.209C933.1 372.871 932.424 372.533 932.087 371.856C931.749 371.179 926.686 370.503 924.998 371.518C923.31 372.533 921.96 374.48 920.779 375.029C919.597 375.577 918.585 376.592 919.26 378.284C919.935 379.976 920.914 383.284 920.914 383.284C920.914 383.284 922.635 382.682 922.973 383.697C923.31 384.712 921.96 383.359 923.648 380.652C925.336 377.946 925.336 375.239 928.036 376.254C930.737 377.269 933.775 376.931 933.437 378.961C933.1 380.991 934.112 384.035 934.112 384.035Z" fill="#2F2E41"/>
<path d="M939.9 443.939C938.275 445.663 937.846 447.901 938.941 448.937C940.036 449.974 942.24 449.416 943.866 447.691C944.524 447.01 945.011 446.182 945.284 445.275L952.077 437.882L948.547 434.761L942.226 442.381C941.338 442.706 940.54 443.241 939.9 443.939Z" fill="#FFB6B6"/>
<path d="M946.465 401.459L957.903 420.99L959.598 429.907L948.583 443.918L943.923 437.974L949.431 429.907L940.534 414.197L946.465 401.459Z" fill="#2F2E41"/>
<path d="M914.306 442.12V419.092C914.306 415.582 917.154 412.727 920.656 412.727H955.779C959.281 412.727 962.129 415.582 962.129 419.092V442.12C962.129 445.63 959.281 448.486 955.779 448.486H920.656C917.154 448.486 914.306 445.63 914.306 442.12Z" fill="#E10A3C"/>
<path d="M931.386 427.261H943.531V424.218H931.386V427.261Z" fill="#3F3D56"/>
<path d="M942.536 448.282V442.195H932.668V448.282H942.536Z" fill="#3F3D56"/>
<path d="M942.999 419.017V412.931H933.131V419.017H942.999Z" fill="#3F3D56"/>
<path d="M917.86 439.541C919.485 441.265 919.914 443.503 918.819 444.539C917.724 445.575 915.52 445.017 913.895 443.292C913.236 442.612 912.75 441.784 912.476 440.877L905.684 433.484L909.213 430.363L915.534 437.982C916.423 438.308 917.22 438.843 917.86 439.541Z" fill="#FFB6B6"/>
<path d="M911.295 397.061L899.857 416.592L898.162 425.509L909.177 439.52L913.837 433.576L908.33 425.509L917.226 409.799L911.295 397.061Z" fill="#2F2E41"/>
<path d="M769.07 490.192C774.799 490.192 779.443 486.141 779.443 481.143C779.443 476.146 774.799 472.094 769.07 472.094C763.341 472.094 758.697 476.146 758.697 481.143C758.697 486.141 763.341 490.192 769.07 490.192Z" fill="#E6E6E6"/>
</g>
<g clip-path="url(#clip2_309_1279)">
<path d="M1116.95 476.269C1118.82 457.234 1130.11 438.233 1148.08 431.587C1141.44 451.302 1142 472.726 1149.66 492.067C1152.64 499.516 1156.74 507.491 1154.31 515.139C1152.81 519.898 1148.91 523.611 1144.51 525.983C1140.11 528.356 1135.19 529.56 1130.34 530.741L1129.4 531.56C1121.18 514.28 1115.08 495.304 1116.95 476.269Z" fill="#F0F0F0"/>
<path d="M1148.27 431.941C1138.12 443.893 1131.74 459.157 1130.62 474.805C1130.38 478.188 1130.43 481.641 1131.25 484.948C1132.08 488.165 1133.76 491.101 1136.11 493.453C1138.26 495.689 1140.72 497.728 1142.29 500.446C1143.94 503.312 1144.08 506.612 1143.09 509.727C1141.86 513.539 1139.34 516.686 1136.77 519.677C1133.92 522.999 1130.9 526.403 1129.76 530.738C1129.62 531.263 1128.82 531.019 1128.95 530.494C1130.93 522.953 1138.1 518.512 1141.4 511.681C1142.93 508.493 1143.52 504.823 1141.91 501.542C1140.51 498.673 1137.98 496.568 1135.78 494.323C1133.48 491.965 1131.69 489.359 1130.72 486.184C1129.73 482.935 1129.54 479.477 1129.7 476.102C1130.1 468.453 1131.71 460.915 1134.46 453.764C1137.56 445.586 1142.03 437.996 1147.69 431.323C1148.04 430.911 1148.61 431.531 1148.27 431.941Z" fill="white"/>
<path d="M1130.71 469.699C1128.09 469.135 1125.75 467.658 1124.11 465.531C1122.48 463.404 1121.66 460.767 1121.79 458.09C1121.8 457.981 1121.84 457.878 1121.93 457.804C1122.01 457.73 1122.11 457.69 1122.22 457.693C1122.33 457.695 1122.44 457.74 1122.51 457.818C1122.59 457.896 1122.63 458.001 1122.63 458.11C1122.51 460.603 1123.27 463.059 1124.8 465.036C1126.33 467.014 1128.51 468.381 1130.96 468.892C1131.49 469.004 1131.24 469.81 1130.71 469.699Z" fill="white"/>
<path d="M1134.87 492.462C1139.51 489.531 1142.87 484.963 1144.29 479.669C1144.43 479.144 1145.24 479.388 1145.1 479.912C1143.62 485.419 1140.11 490.166 1135.27 493.205C1134.81 493.494 1134.42 492.75 1134.87 492.462Z" fill="white"/>
<path d="M1138.36 446.364C1139.33 446.793 1140.39 446.976 1141.45 446.894C1142.51 446.813 1143.53 446.471 1144.42 445.898C1144.88 445.603 1145.28 446.348 1144.82 446.641C1143.83 447.269 1142.71 447.646 1141.54 447.738C1140.37 447.83 1139.19 447.636 1138.12 447.171C1138.01 447.135 1137.93 447.061 1137.87 446.964C1137.82 446.866 1137.81 446.752 1137.84 446.645C1137.87 446.539 1137.94 446.449 1138.04 446.397C1138.14 446.344 1138.25 446.332 1138.36 446.364Z" fill="white"/>
<path d="M1204.22 464.038C1203.94 464.23 1203.66 464.422 1203.38 464.622C1199.63 467.227 1196.09 470.132 1192.81 473.309C1192.55 473.55 1192.3 473.799 1192.05 474.048C1184.22 481.785 1177.91 490.904 1173.42 500.943C1171.64 504.939 1170.16 509.065 1169.01 513.285C1167.41 519.112 1166.15 525.557 1162.82 530.377C1162.47 530.883 1162.1 531.368 1161.7 531.829L1130.47 532.642C1130.4 532.608 1130.32 532.582 1130.25 532.548L1129.01 532.637C1129.05 532.415 1129.1 532.186 1129.15 531.965C1129.17 531.836 1129.2 531.707 1129.23 531.578C1129.25 531.492 1129.27 531.406 1129.28 531.328C1129.29 531.299 1129.29 531.27 1129.3 531.249C1129.31 531.17 1129.33 531.099 1129.34 531.027C1129.62 529.746 1129.91 528.464 1130.21 527.183C1130.21 527.176 1130.21 527.176 1130.22 527.168C1132.52 517.408 1135.67 507.754 1140.18 498.883C1140.31 498.616 1140.45 498.342 1140.6 498.075C1142.65 494.088 1145.03 490.275 1147.71 486.674C1149.18 484.707 1150.75 482.816 1152.41 481.007C1156.72 476.343 1161.74 472.384 1167.28 469.276C1178.33 463.082 1191.24 460.483 1203.3 463.777C1203.61 463.861 1203.91 463.946 1204.22 464.038Z" fill="#F0F0F0"/>
<path d="M1204.16 464.435C1188.85 467.881 1174.55 476.232 1164.22 488.055C1161.98 490.611 1159.94 493.398 1158.6 496.535C1157.33 499.603 1156.9 502.956 1157.35 506.246C1157.72 509.323 1158.45 512.427 1158.06 515.539C1157.65 518.819 1155.78 521.543 1153.1 523.43C1149.83 525.74 1145.92 526.738 1142.06 527.581C1137.78 528.517 1133.32 529.422 1129.79 532.199C1129.37 532.536 1128.87 531.855 1129.29 531.519C1135.42 526.687 1143.83 527.449 1150.58 523.975C1153.73 522.353 1156.41 519.775 1157.11 516.19C1157.72 513.056 1156.96 509.854 1156.56 506.742C1156.15 503.474 1156.29 500.319 1157.43 497.201C1158.6 494.012 1160.54 491.139 1162.7 488.537C1167.63 482.673 1173.47 477.621 1179.98 473.565C1187.38 468.895 1195.53 465.523 1204.07 463.597C1204.6 463.477 1204.69 464.317 1204.16 464.435Z" fill="white"/>
<path d="M1167.37 484.035C1165.61 482.007 1164.64 479.422 1164.62 476.742C1164.59 474.061 1165.53 471.46 1167.25 469.403C1167.6 468.988 1168.26 469.511 1167.91 469.926C1166.3 471.839 1165.43 474.262 1165.46 476.758C1165.49 479.254 1166.41 481.658 1168.05 483.537C1168.41 483.946 1167.73 484.442 1167.37 484.035Z" fill="white"/>
<path d="M1156.96 504.71C1162.43 505.158 1167.87 503.531 1172.2 500.153C1172.62 499.818 1173.12 500.498 1172.69 500.833C1168.19 504.34 1162.53 506.022 1156.83 505.544C1156.29 505.498 1156.42 504.665 1156.96 504.71Z" fill="white"/>
<path d="M1187.55 469.999C1188.07 470.925 1188.81 471.709 1189.7 472.28C1190.59 472.851 1191.62 473.192 1192.67 473.271C1193.22 473.31 1193.09 474.143 1192.55 474.104C1191.38 474.011 1190.25 473.634 1189.26 473.005C1188.27 472.376 1187.45 471.515 1186.87 470.497C1186.81 470.406 1186.78 470.294 1186.8 470.185C1186.82 470.075 1186.88 469.976 1186.96 469.908C1187.05 469.843 1187.17 469.815 1187.28 469.832C1187.39 469.85 1187.49 469.909 1187.55 469.999Z" fill="white"/>
<path d="M1387.51 305.701C1387.05 304.327 1381.2 299.655 1384.78 298.87L1387.72 302.781L1401.23 289.297L1402.59 290.653L1387.51 305.701Z" fill="#E10A3C"/>
<path d="M1387.51 351.552C1387.05 350.178 1381.2 345.506 1384.78 344.721L1387.72 348.632L1401.23 335.148L1402.59 336.504L1387.51 351.552Z" fill="#E10A3C"/>
<path d="M1387.51 398.058C1387.05 396.684 1381.2 392.013 1384.78 391.227L1387.72 395.138L1401.23 381.654L1402.59 383.01L1387.51 398.058Z" fill="#E10A3C"/>
<path d="M1375.07 360.459C1377.38 360.459 1379.24 358.596 1379.24 356.298C1379.24 354 1377.38 352.137 1375.07 352.137C1372.77 352.137 1370.9 354 1370.9 356.298C1370.9 358.596 1372.77 360.459 1375.07 360.459Z" fill="#3F3D56"/>
<path d="M1375.07 315.105C1377.38 315.105 1379.24 313.242 1379.24 310.944C1379.24 308.646 1377.38 306.783 1375.07 306.783C1372.77 306.783 1370.9 308.646 1370.9 310.944C1370.9 313.242 1372.77 315.105 1375.07 315.105Z" fill="#3F3D56"/>
<path d="M1482 301.374H1414.88V302.206H1482V301.374Z" fill="#3F3D56"/>
<path d="M1377.16 408.807C1379.46 408.807 1381.33 406.944 1381.33 404.646C1381.33 402.348 1379.46 400.485 1377.16 400.485C1374.86 400.485 1372.99 402.348 1372.99 404.646C1372.99 406.944 1374.86 408.807 1377.16 408.807Z" fill="#3F3D56"/>
<path d="M1482 347.225H1414.88V348.057H1482V347.225Z" fill="#3F3D56"/>
<path d="M1482 393.731H1414.88V394.563H1482V393.731Z" fill="#3F3D56"/>
<path d="M1398.04 404.258H1377.2V383.037H1391.37V383.869H1378.03V403.426H1397.21V393.856H1398.04V404.258Z" fill="#3F3D56"/>
<path d="M1398.04 357.656H1377.2V336.435H1391.37V337.267H1378.03V356.823H1397.21V347.253H1398.04V357.656Z" fill="#3F3D56"/>
<path d="M1398.04 310.221H1377.2V289H1391.37V289.832H1378.03V309.389H1397.21V299.818H1398.04V310.221Z" fill="#3F3D56"/>
<path d="M1261.95 364.634C1261.95 364.634 1256.38 388.111 1263.19 388.111C1270 388.111 1286.09 361.545 1286.09 361.545L1280.52 354.749L1270.52 368.605L1270 361.545L1261.95 364.634Z" fill="#A0616A"/>
<path d="M1284.61 362.566C1287.6 362.566 1290.03 360.144 1290.03 357.156C1290.03 354.169 1287.6 351.747 1284.61 351.747C1281.61 351.747 1279.19 354.169 1279.19 357.156C1279.19 360.144 1281.61 362.566 1284.61 362.566Z" fill="#A0616A"/>
<path d="M1257.23 524.529L1264.44 524.529L1267.88 496.756L1257.23 496.757L1257.23 524.529Z" fill="#A0616A"/>
<path d="M1256.98 532.04L1279.16 532.04V531.76C1279.16 529.474 1278.25 527.282 1276.63 525.666C1275.01 524.05 1272.81 523.142 1270.52 523.142H1270.52L1266.47 520.073L1258.91 523.142L1256.98 523.142L1256.98 532.04Z" fill="#2F2E41"/>
<path d="M1179.64 515.546L1186.09 518.761L1201.59 495.441L1192.06 490.696L1179.64 515.546Z" fill="#A0616A"/>
<path d="M1176.05 522.154L1195.9 532.04L1196.02 531.79C1197.04 529.745 1197.21 527.378 1196.48 525.21C1195.76 523.043 1194.2 521.251 1192.15 520.23L1192.15 520.23L1189.9 515.679L1181.76 515.055L1180.03 514.192L1176.05 522.154Z" fill="#2F2E41"/>
<path d="M1210.59 407.224C1210.59 407.224 1207.71 441.822 1207.09 449.235C1206.67 453.883 1205.63 458.453 1204 462.827C1204 462.827 1202.76 465.298 1202.76 467.769L1188.73 493.219C1188.73 493.219 1184.44 496.365 1185.06 498.836C1185.68 501.307 1182.48 502.789 1182.48 502.789L1197.25 505.632C1197.25 505.632 1196.63 503.778 1198.49 503.161C1200.34 502.543 1201.82 497.184 1201.82 497.184L1222.56 463.445L1237.42 432.555C1237.42 432.555 1246.08 460.356 1247.94 463.445C1247.94 463.445 1254.75 498.042 1255.99 501.131C1257.23 504.22 1257.84 504.22 1257.23 505.455C1256.61 506.691 1256.61 507.927 1257.23 508.544C1257.84 509.162 1269.6 508.544 1269.6 508.544L1266.51 464.68L1260.94 412.167L1232.47 403.518L1210.59 407.224Z" fill="#2F2E41"/>
<path d="M1238.47 324.631C1245.65 324.631 1251.47 318.822 1251.47 311.657C1251.47 304.492 1245.65 298.683 1238.47 298.683C1231.29 298.683 1225.47 304.492 1225.47 311.657C1225.47 318.822 1231.29 324.631 1238.47 324.631Z" fill="#A0616A"/>
<path d="M1262.18 343.591L1246.7 334.233C1246.7 334.233 1246.28 328.423 1241.87 328.149C1239.65 328.012 1236.33 327.802 1231.35 327.481C1230.29 327.414 1229.58 333.166 1228.38 333.088L1212.04 337.413L1214.52 379.423C1214.52 379.423 1210.8 396.104 1212.04 399.193C1213.28 402.282 1208.95 403.518 1210.19 404.136C1211.42 404.753 1210.19 409.078 1210.19 409.078C1210.19 409.078 1234.32 421.434 1260.94 412.167L1258.46 404.136C1258.8 403.086 1258.86 401.967 1258.65 400.886C1258.43 399.805 1257.94 398.797 1257.23 397.957C1257.23 397.957 1259.7 394.251 1256.61 391.162C1256.61 391.162 1257.84 385.601 1254.75 383.13L1254.13 374.481L1255.99 370.156L1262.18 343.591Z" fill="#E6E6E6"/>
<path d="M1227.19 319.069L1226.83 318.226C1226.78 318.117 1222.18 307.271 1226.26 300.58C1228.14 297.483 1231.57 295.734 1236.45 295.383C1244.08 294.833 1249.3 296.64 1251.98 300.75C1252.43 301.447 1252.68 302.251 1252.71 303.079C1252.74 303.906 1252.54 304.727 1252.14 305.453C1251.75 306.179 1251.16 306.785 1250.44 307.207C1249.73 307.629 1248.92 307.851 1248.09 307.849H1247.98L1246.58 306.032L1246.5 306.209C1245.99 307.305 1244.83 307.905 1243.46 307.774C1243.23 307.757 1243.02 307.957 1242.86 308.385C1242.8 308.573 1242.7 308.742 1242.55 308.875C1242.41 309.007 1242.23 309.099 1242.04 309.14C1241.03 309.336 1239.59 308.068 1238.95 307.435C1238.93 307.581 1238.87 307.719 1238.79 307.842C1238.7 307.964 1238.6 308.067 1238.47 308.143C1237.79 308.534 1236.73 308.024 1236.43 307.861C1234.02 308.373 1232.45 308.236 1231.79 307.455C1231.33 310.66 1230.36 316.43 1229.19 316.749C1229.07 316.777 1228.94 316.766 1228.82 316.715C1228.71 316.665 1228.61 316.58 1228.55 316.471C1228.27 316.107 1228.02 315.925 1227.86 315.976C1227.48 316.097 1227.26 317.346 1227.23 318.152L1227.19 319.069Z" fill="#2F2E41"/>
<path d="M1255.37 344.209L1261.54 343.207C1265.99 347.473 1269.02 352.998 1270.22 359.036C1272.08 368.921 1272.7 370.774 1272.7 370.774L1257.84 374.481L1249.8 359.036L1255.37 344.209Z" fill="#E6E6E6"/>
<path d="M1227.97 357.066L1224.16 405.347L1321.53 413.014L1325.35 364.733L1227.97 357.066Z" fill="white"/>
<path d="M1238.37 360.806C1235.99 359.108 1232.97 358.985 1231.81 359.009C1232.16 360.108 1233.26 362.926 1235.64 364.625C1238.03 366.328 1241.05 366.447 1242.21 366.423C1241.85 365.325 1240.76 362.506 1238.37 360.806Z" fill="#E10A3C"/>
<path d="M1247.77 391.529L1232.14 390.298C1231.68 390.261 1231.21 390.316 1230.77 390.459C1230.33 390.602 1229.92 390.83 1229.57 391.13C1229.22 391.431 1228.93 391.797 1228.72 392.209C1228.51 392.621 1228.38 393.071 1228.34 393.532C1228.31 393.993 1228.36 394.457 1228.51 394.897C1228.65 395.337 1228.88 395.744 1229.18 396.096C1229.48 396.448 1229.85 396.737 1230.26 396.947C1230.67 397.157 1231.12 397.284 1231.58 397.32L1247.22 398.552C1248.15 398.625 1249.08 398.326 1249.79 397.719C1250.5 397.112 1250.94 396.248 1251.02 395.317C1251.09 394.386 1250.79 393.463 1250.18 392.753C1249.57 392.043 1248.71 391.602 1247.77 391.529Z" fill="#E10A3C"/>
<path d="M1321.51 360.04L1233.84 353.137C1232.82 353.057 1231.8 353.178 1230.83 353.493C1229.85 353.809 1228.95 354.312 1228.17 354.975C1227.4 355.638 1226.76 356.448 1226.29 357.357C1225.83 358.267 1225.55 359.259 1225.47 360.277L1222.1 402.906C1221.93 404.962 1222.6 406.998 1223.94 408.566C1225.28 410.135 1227.19 411.107 1229.25 411.27L1316.91 418.173C1317.93 418.253 1318.96 418.132 1319.93 417.816C1320.9 417.501 1321.81 416.997 1322.58 416.334C1323.36 415.671 1324 414.862 1324.46 413.952C1324.93 413.043 1325.21 412.051 1325.29 411.033L1328.49 370.516L1328.56 369.688L1328.66 368.4C1328.74 367.382 1328.62 366.358 1328.3 365.388C1327.99 364.417 1327.48 363.517 1326.82 362.741C1326.15 361.965 1325.34 361.327 1324.43 360.863C1323.52 360.4 1322.53 360.12 1321.51 360.04ZM1318.92 397.129L1318.36 404.153C1318.26 405.393 1317.67 406.543 1316.72 407.351C1315.77 408.158 1314.54 408.559 1313.3 408.464L1301.57 407.541C1300.33 407.44 1299.18 406.852 1298.37 405.905C1297.56 404.958 1297.16 403.73 1297.25 402.489L1297.81 395.466C1297.91 394.226 1298.5 393.076 1299.45 392.269C1300.4 391.461 1301.63 391.06 1302.87 391.155L1314.59 392.078C1315.84 392.18 1316.99 392.768 1317.8 393.715C1318.61 394.661 1319.01 395.888 1318.92 397.129ZM1227.57 393.467C1227.66 392.331 1228.2 391.277 1229.07 390.537C1229.93 389.796 1231.06 389.43 1232.2 389.518L1247.84 390.75C1248.4 390.794 1248.95 390.948 1249.46 391.204C1249.96 391.46 1250.41 391.813 1250.78 392.242C1251.15 392.672 1251.43 393.17 1251.6 393.707C1251.78 394.245 1251.85 394.812 1251.8 395.375C1251.76 395.939 1251.6 396.489 1251.35 396.993C1251.09 397.497 1250.74 397.945 1250.31 398.312C1249.87 398.68 1249.38 398.959 1248.84 399.133C1248.3 399.308 1247.73 399.375 1247.17 399.331L1247.16 399.333L1231.52 398.101C1230.96 398.056 1230.41 397.901 1229.9 397.644C1229.4 397.387 1228.95 397.033 1228.58 396.603C1228.22 396.172 1227.94 395.674 1227.76 395.136C1227.59 394.598 1227.52 394.031 1227.57 393.467ZM1230.92 358.731L1230.81 358.295L1231.26 358.253C1231.43 358.235 1235.59 357.862 1238.83 360.17C1242.07 362.478 1243.06 366.528 1243.1 366.698L1243.21 367.135L1242.76 367.181C1242.12 367.228 1241.48 367.224 1240.84 367.168C1238.82 367.05 1236.87 366.391 1235.18 365.26C1231.95 362.951 1230.95 358.901 1230.92 358.731Z" fill="#E10A3C"/>
<path d="M1305.77 401.787L1300.68 401.387C1300.32 401.359 1299.96 401.476 1299.69 401.712C1299.41 401.948 1299.24 402.283 1299.21 402.645C1299.18 403.007 1299.3 403.365 1299.53 403.641C1299.77 403.917 1300.11 404.089 1300.47 404.118L1305.55 404.518C1305.91 404.546 1306.27 404.429 1306.55 404.194C1306.82 403.958 1306.99 403.622 1307.02 403.26C1307.05 402.899 1306.94 402.54 1306.7 402.264C1306.46 401.988 1306.13 401.816 1305.77 401.787Z" fill="#E10A3C"/>
<path d="M1315.15 402.526L1310.07 402.126C1309.7 402.098 1309.34 402.215 1309.07 402.451C1308.79 402.687 1308.62 403.022 1308.59 403.384C1308.56 403.745 1308.68 404.104 1308.92 404.38C1309.15 404.656 1309.49 404.827 1309.85 404.857L1314.93 405.257C1315.29 405.285 1315.65 405.168 1315.93 404.932C1316.2 404.696 1316.37 404.36 1316.4 403.999C1316.43 403.637 1316.32 403.279 1316.08 403.003C1315.84 402.727 1315.51 402.555 1315.15 402.526Z" fill="#E10A3C"/>
<path d="M1306.04 398.276L1300.96 397.876C1300.6 397.848 1300.24 397.965 1299.96 398.201C1299.69 398.437 1299.52 398.772 1299.49 399.134C1299.46 399.495 1299.58 399.853 1299.81 400.13C1300.05 400.406 1300.38 400.577 1300.75 400.607L1305.83 401.007C1306.19 401.035 1306.55 400.918 1306.82 400.682C1307.1 400.446 1307.27 400.111 1307.3 399.749C1307.33 399.387 1307.21 399.029 1306.98 398.753C1306.74 398.476 1306.41 398.305 1306.04 398.276Z" fill="#E10A3C"/>
<path d="M1315.42 399.014L1310.34 398.614C1309.98 398.586 1309.62 398.703 1309.35 398.939C1309.07 399.175 1308.9 399.511 1308.87 399.872C1308.84 400.234 1308.96 400.592 1309.19 400.869C1309.43 401.145 1309.76 401.316 1310.13 401.345L1315.21 401.746C1315.57 401.773 1315.93 401.657 1316.21 401.421C1316.48 401.185 1316.65 400.849 1316.68 400.487C1316.71 400.126 1316.59 399.767 1316.36 399.491C1316.12 399.215 1315.79 399.044 1315.42 399.014Z" fill="#E10A3C"/>
<path d="M1306.32 394.764L1301.24 394.364C1300.88 394.336 1300.52 394.453 1300.24 394.689C1299.96 394.925 1299.79 395.26 1299.77 395.622C1299.74 395.984 1299.85 396.342 1300.09 396.618C1300.32 396.895 1300.66 397.066 1301.02 397.095L1306.1 397.495C1306.47 397.523 1306.83 397.406 1307.1 397.17C1307.38 396.934 1307.55 396.599 1307.58 396.237C1307.61 395.876 1307.49 395.518 1307.25 395.241C1307.02 394.965 1306.68 394.794 1306.32 394.764Z" fill="#E10A3C"/>
<path d="M1315.7 395.503L1310.62 395.103C1310.26 395.075 1309.9 395.192 1309.62 395.428C1309.35 395.664 1309.18 395.999 1309.15 396.361C1309.12 396.723 1309.24 397.081 1309.47 397.357C1309.71 397.633 1310.04 397.805 1310.4 397.834L1315.49 398.234C1315.85 398.262 1316.21 398.145 1316.48 397.909C1316.76 397.673 1316.93 397.338 1316.96 396.976C1316.99 396.614 1316.87 396.256 1316.64 395.98C1316.4 395.704 1316.06 395.532 1315.7 395.503Z" fill="#E10A3C"/>
<path d="M1224.16 373.727L1224.1 374.557L1327 382.626L1327.07 381.796L1224.16 373.727Z" fill="white"/>
<path d="M1328.56 369.688L1328.49 370.516L1324.91 370.235L1286.75 367.244L1286.82 366.415L1324.98 369.407L1328.56 369.688Z" fill="#3F3D56"/>
<path d="M1202.76 360.889C1202.76 360.889 1197.19 384.366 1204 384.366C1210.8 384.366 1226.9 357.8 1226.9 357.8L1221.33 351.004L1211.33 364.86L1210.8 357.8L1202.76 360.889Z" fill="#A0616A"/>
<path d="M1225.41 358.821C1228.41 358.821 1230.83 356.399 1230.83 353.412C1230.83 350.424 1228.41 348.002 1225.41 348.002C1222.42 348.002 1219.99 350.424 1219.99 353.412C1219.99 356.399 1222.42 358.821 1225.41 358.821Z" fill="#A0616A"/>
<path d="M1216.55 341.12L1212.84 337.413C1212.84 337.413 1205.41 341.737 1204.79 346.062C1204.17 350.387 1201.08 363.978 1201.08 363.978L1212.53 364.905L1216.24 359.345L1216.55 341.12Z" fill="#E6E6E6"/>
</g>
<g clip-path="url(#clip3_309_1279)">
<path d="M-64 438.179C-64 438.456 -63.7783 438.678 -63.5023 438.678H241.502C241.778 438.678 242 438.456 242 438.179C242 437.902 241.778 437.68 241.502 437.68H-63.5023C-63.7783 437.68 -64 437.902 -64 438.179Z" fill="#3F3D56"/>
<path d="M131.303 332.236L132.903 352.772L156.097 343.055L143.013 322.167L131.303 332.236Z" fill="#A0616A"/>
<path d="M130.608 338.493C140.156 338.493 147.897 330.728 147.897 321.15C147.897 311.572 140.156 303.807 130.608 303.807C121.06 303.807 113.319 311.572 113.319 321.15C113.319 330.728 121.06 338.493 130.608 338.493Z" fill="#A0616A"/>
<path d="M98.2634 482.847L101.191 509.188L80.6981 506.34L87.3897 482.008L98.2634 482.847Z" fill="#A0616A"/>
<path d="M178.144 486.623L181.071 512.964L160.578 510.116L167.27 485.784L178.144 486.623Z" fill="#A0616A"/>
<path d="M129.421 407.122C129.141 407.122 106.776 408.248 91.9997 408.994C85.0059 409.347 79.6822 415.419 80.2248 422.423L85.5077 490.608L100.564 491.028L100.931 436.069L130.676 437.748L129.421 407.122Z" fill="#2F2E41"/>
<path d="M195.082 406.702C195.082 406.702 198.846 435.65 195.918 438.587C192.991 441.523 101.191 436.279 101.191 436.279C101.191 436.279 121.33 407.106 124.957 406.275C128.584 405.444 186.299 402.507 186.299 402.507L195.082 406.702Z" fill="#2F2E41"/>
<path d="M76.1571 370.257C72.6612 365.352 72.3502 359.567 75.4621 357.336C78.5741 355.105 83.9297 357.272 87.4263 362.179C88.8498 364.12 89.7893 366.374 90.1661 368.754L104.717 389.723L96.4361 395.474L81.4744 374.986C79.3509 373.858 77.5276 372.237 76.1571 370.257Z" fill="#A0616A"/>
<path d="M130.466 345.241L151.796 336.431L191.945 398.522C191.945 398.522 163.924 404.815 154.305 406.073C144.686 407.332 133.812 402.297 133.812 402.297L130.466 345.241Z" fill="#E10A3C"/>
<path d="M156.396 355.73L148.659 331.519L158.696 339.158C158.696 339.158 187.135 358.037 187.135 366.008C187.135 373.979 195.918 398.312 195.918 398.312C195.918 398.312 205.746 406.493 202.401 414.044C199.055 421.596 206.792 420.547 207.628 426.001C208.465 431.455 195.709 438.796 195.709 438.796C195.709 438.796 192.572 407.961 182.535 407.961C172.498 407.961 156.396 355.73 156.396 355.73Z" fill="#3F3D56"/>
<path d="M131.965 344.622L121.475 348.807C121.475 348.807 123.148 378.174 124.82 380.692C126.493 383.209 132.348 396.634 132.348 396.634V401.009C132.348 401.009 120.638 404.605 121.056 406.702C121.475 408.8 148.659 414.673 148.659 414.673C148.659 414.673 143.222 397.892 139.876 392.438C136.531 386.985 131.965 344.622 131.965 344.622Z" fill="#3F3D56"/>
<path d="M125.239 348.807C125.239 348.807 113.11 347.129 111.019 361.393C108.928 375.657 110.257 377.545 110.257 377.545L106.837 385.726L95.545 373.14L84.6713 380.272C84.6713 380.272 104.328 412.156 112.274 411.317C120.22 410.478 131.93 387.404 131.93 387.404L125.239 348.807Z" fill="#3F3D56"/>
<path d="M185.813 411.333L179.607 499.418L163.506 498.789C163.506 498.789 159.951 415.512 159.951 414.254C159.951 412.995 161.624 405.863 172.079 405.444C182.535 405.024 185.813 411.333 185.813 411.333Z" fill="#2F2E41"/>
<path d="M162.46 501.096C162.46 501.096 170.825 498.579 172.079 500.257C173.334 501.935 180.444 502.774 180.444 502.774L182.535 523.331C182.535 523.331 176.68 527.527 175.843 528.366C175.007 529.205 152.841 530.044 152.423 525.009C152.005 519.975 158.278 513.682 158.278 513.682L162.46 501.096Z" fill="#2F2E41"/>
<path d="M100.982 495.223C100.982 495.223 103.491 493.125 104.328 498.999C105.164 504.872 108.092 514.521 103.909 515.78C99.7272 517.038 57.9051 517.458 57.9051 513.682V509.906L61.6691 506.97L69.1987 505.766C69.1987 505.766 83.8348 492.286 85.5077 492.286C87.1806 492.286 92.6175 497.74 92.6175 497.74L100.982 495.223Z" fill="#2F2E41"/>
<path d="M147.614 330.558C147.614 330.558 139.249 320.489 135.903 321.328C132.558 322.167 134.649 323.426 134.649 323.426L126.284 314.196C126.284 314.196 119.593 311.679 113.319 319.65C113.319 319.65 109.555 312.938 113.319 309.162C117.083 305.386 118.338 305.806 119.174 303.708C120.011 301.61 125.866 299.932 125.866 299.932C125.866 299.932 125.53 296.913 127.371 298.423C129.212 299.932 133.809 299.932 133.809 299.932C133.809 299.932 133.835 298.254 135.706 299.932C137.576 301.61 139.667 300.771 139.667 300.771C139.667 300.771 139.667 303.675 141.131 303.692C142.595 303.708 145.104 301.61 145.522 303.289C145.941 304.967 148.868 305.806 149.286 310.84C149.705 315.874 147.614 330.558 147.614 330.558Z" fill="#2F2E41"/>
<path d="M79.4477 373.032L31.6716 406.102C30.023 407.244 27.7562 406.827 26.6186 405.173L13.1678 385.619C12.0302 383.965 12.446 381.691 14.0947 380.55L61.8707 347.48C63.5194 346.339 65.7861 346.756 66.9238 348.41L80.3745 367.963C81.5121 369.617 81.0963 371.891 79.4477 373.032Z" fill="white"/>
<path d="M66.836 348.47L80.2866 368.024C81.3933 369.633 80.9909 371.834 79.3871 372.944L55.9399 389.174C49.7563 387.479 44.1137 383.672 40.1886 377.966C37.6176 374.228 36.0678 370.09 35.4767 365.88L61.9313 347.568C63.5352 346.458 65.7293 346.862 66.836 348.47Z" fill="#E6E6E6"/>
<path d="M29.6147 407.165C28.327 407.165 27.0596 406.552 26.2742 405.411L12.8234 385.857C12.2099 384.965 11.9796 383.885 12.1752 382.817C12.3704 381.748 12.968 380.82 13.8575 380.205L61.6331 347.134C63.4723 345.862 65.9996 346.328 67.2681 348.171L80.719 367.725C81.3324 368.617 81.5628 369.697 81.3671 370.766C81.1719 371.834 80.5744 372.762 79.6853 373.378L31.9092 406.448C31.2084 406.932 30.4075 407.165 29.6147 407.165ZM63.9289 347.256C63.2999 347.256 62.6644 347.441 62.1085 347.825L14.3325 380.895C13.6267 381.383 13.153 382.12 12.9978 382.968C12.8426 383.816 13.0251 384.673 13.512 385.38L26.9628 404.934C27.9692 406.397 29.9749 406.767 31.4338 405.757L79.2103 372.687C79.9156 372.199 80.3894 371.463 80.5446 370.614C80.6998 369.766 80.5172 368.909 80.0304 368.202L66.5795 348.648C65.9567 347.742 64.9507 347.256 63.9289 347.256Z" fill="#3F3D56"/>
<path d="M29.9604 397.402C28.7495 398.24 28.4442 399.91 29.2797 401.125C30.1152 402.339 31.7801 402.646 32.9909 401.808L37.9097 398.403C39.1206 397.565 39.4259 395.895 38.5904 394.68C37.7549 393.465 36.0901 393.159 34.8792 393.997L29.9604 397.402Z" fill="#E10A3C"/>
<path d="M33.2944 370.122C31.384 371.444 30.9023 374.079 32.2206 375.995C33.5388 377.912 36.1655 378.395 38.0759 377.073L45.7275 371.776C47.6379 370.454 48.1197 367.819 46.8014 365.903C45.4832 363.986 42.8564 363.503 40.946 364.825L33.2944 370.122Z" fill="#E10A3C"/>
<path d="M78.3037 375.952H20.2573C18.2543 375.952 16.6246 374.317 16.6246 372.308V348.551C16.6246 346.542 18.2543 344.907 20.2573 344.907H78.3037C80.3067 344.907 81.9364 346.542 81.9364 348.551V372.308C81.9364 374.317 80.3067 375.952 78.3037 375.952Z" fill="white"/>
<path d="M81.8296 348.551V372.308C81.8296 374.263 80.2523 375.845 78.3036 375.845H49.8161C45.6862 370.927 43.1975 364.579 43.1975 357.646C43.1975 353.105 44.2647 348.816 46.1622 345.014H78.3036C80.2523 345.014 81.8296 346.596 81.8296 348.551Z" fill="#E6E6E6"/>
<path d="M78.3036 376.372H20.2574C18.0238 376.372 16.2063 374.549 16.2063 372.308V348.551C16.2063 346.31 18.0238 344.487 20.2574 344.487H78.3036C80.5372 344.487 82.3547 346.31 82.3547 348.551V372.308C82.3547 374.549 80.5372 376.372 78.3036 376.372ZM20.2574 345.327C18.4849 345.327 17.0427 346.773 17.0427 348.551V372.308C17.0427 374.086 18.4849 375.533 20.2574 375.533H78.3036C80.0761 375.533 81.5182 374.086 81.5182 372.308V348.551C81.5182 346.773 80.0761 345.327 78.3036 345.327H20.2574Z" fill="#3F3D56"/>
<path d="M23.7748 367.816C22.3036 367.816 21.1068 369.017 21.1068 370.492C21.1068 371.968 22.3036 373.169 23.7748 373.169H29.751C31.2221 373.169 32.419 371.968 32.419 370.492C32.419 369.017 31.2221 367.816 29.751 367.816H23.7748Z" fill="#E10A3C"/>
<path d="M41.9643 347.262C39.6432 347.262 37.7549 349.156 37.7549 351.485C37.7549 353.813 39.6432 355.707 41.9643 355.707H51.2607C53.5818 355.707 55.4702 353.813 55.4702 351.485C55.4702 349.156 53.5818 347.262 51.2607 347.262H41.9643Z" fill="#E10A3C"/>
<path d="M126.817 458.18H68.771C66.768 458.18 65.1383 456.545 65.1383 454.536V430.779C65.1383 428.769 66.768 427.135 68.771 427.135H126.817C128.82 427.135 130.45 428.769 130.45 430.779V454.536C130.45 456.545 128.82 458.18 126.817 458.18Z" fill="white"/>
<path d="M130.343 430.779V454.536C130.343 456.49 128.766 458.073 126.817 458.073H98.3299C94.2 453.155 91.7112 446.806 91.7112 439.874C91.7112 435.333 92.7784 431.044 94.6759 427.242H126.817C128.766 427.242 130.343 428.824 130.343 430.779Z" fill="#E6E6E6"/>
<path d="M126.817 458.599H68.7711C66.5374 458.599 64.72 456.777 64.72 454.536V430.778C64.72 428.538 66.5374 426.715 68.7711 426.715H126.817C129.051 426.715 130.868 428.538 130.868 430.778V454.536C130.868 456.777 129.051 458.599 126.817 458.599ZM68.7711 427.554C66.9985 427.554 65.5564 429 65.5564 430.778V454.536C65.5564 456.314 66.9985 457.76 68.7711 457.76H126.817C128.59 457.76 130.032 456.314 130.032 454.536V430.778C130.032 429 128.59 427.554 126.817 427.554H68.7711Z" fill="#3F3D56"/>
<path d="M72.2884 450.044C70.8173 450.044 69.6205 451.244 69.6205 452.72C69.6205 454.196 70.8173 455.396 72.2884 455.396H78.2647C79.7358 455.396 80.9326 454.196 80.9326 452.72C80.9326 451.244 79.7358 450.044 78.2647 450.044H72.2884Z" fill="#E10A3C"/>
<path d="M90.478 429.49C88.1569 429.49 86.2686 431.384 86.2686 433.712C86.2686 436.041 88.1569 437.935 90.478 437.935H99.7744C102.096 437.935 103.984 436.041 103.984 433.712C103.984 431.384 102.096 429.49 99.7744 429.49H90.478Z" fill="#E10A3C"/>
<path d="M130.755 436.871C125.424 439.656 119.67 439.154 117.904 435.75C116.138 432.346 119.028 427.331 124.361 424.546C126.477 423.404 128.834 422.787 131.235 422.746L153.972 411.234L158.488 420.265L136.168 432.253C134.757 434.204 132.901 435.787 130.755 436.871Z" fill="#A0616A"/>
<path d="M156.605 338.739C156.605 338.739 180.026 337.48 185.044 350.066C190.063 362.652 194.245 403.766 194.245 403.766L143.222 431.612L134.44 418.03L168.734 391.18L156.605 338.739Z" fill="#3F3D56"/>
</g>
<g clip-path="url(#clip4_309_1279)">
<path d="M69.1387 170.056C68.1194 167.796 68.5029 165.429 69.9952 164.77C71.4874 164.111 73.523 165.41 74.5423 167.671C74.9624 168.569 75.1532 169.556 75.099 170.549L79.2923 180.184L74.5629 182.09L70.9311 172.39C70.1478 171.766 69.5332 170.966 69.1387 170.056Z" fill="#FFAFAF"/>
<path d="M98.1189 174.147C100.675 176.568 100.515 180.697 97.7791 182.911L84.3798 193.751C82.9174 194.934 80.7471 194.516 79.8245 192.873C76.3032 187.15 75.6394 186.836 73.5928 180.969L79.3642 178.942L82.6184 183.034L89.7232 174.618C91.8704 172.075 95.7029 171.86 98.1189 174.147Z" fill="#E10A3C"/>
<path d="M46.3847 159.511V155.246H4.28917V159.511H46.3847Z" fill="#DFDFDF"/>
<path d="M152.975 159.511V155.246H110.88V159.511H152.975Z" fill="#DFDFDF"/>
<path d="M27.6084 140.514H20.4115C17.6204 140.514 15.3577 142.786 15.3577 145.588V172.273C15.3577 175.076 17.6204 177.348 20.4115 177.348H27.6084C30.3996 177.348 32.6623 175.076 32.6623 172.273V145.588C32.6623 142.786 30.3996 140.514 27.6084 140.514Z" fill="#3F3D56"/>
<path d="M141.127 140.514H133.93C131.139 140.514 128.876 142.786 128.876 145.588V172.273C128.876 175.076 131.139 177.348 133.93 177.348H141.127C143.918 177.348 146.181 175.076 146.181 172.273V145.588C146.181 142.786 143.918 140.514 141.127 140.514Z" fill="#3F3D56"/>
<path d="M136.565 168.313H26.6534C22.8322 168.313 19.5624 165.573 18.8789 161.799L14.6756 138.587C12.8476 128.492 16.6352 118.208 24.5621 111.736L32.8503 93.8317C34.7715 89.6815 38.9582 87 43.5162 87H105.43C108.721 87 111.884 88.3981 114.106 90.836L129.336 107.543C140.478 115.082 146.799 128.12 145.835 141.576L144.447 160.948C144.151 165.078 140.689 168.313 136.565 168.313Z" fill="#DFDFDF"/>
<path d="M117.807 110.108H34.7674C33.3253 110.108 31.9945 109.384 31.2076 108.171C30.4207 106.957 30.2991 105.442 30.8824 104.118L35.2594 94.1819C35.9255 92.6698 37.4197 91.6731 39.0657 91.6429L109.855 91.7295C111.202 91.7207 112.49 92.3298 113.307 93.4018L121.181 103.251C122.17 104.549 122.337 106.266 121.616 107.732C120.895 109.198 119.435 110.108 117.807 110.108Z" fill="white"/>
<path d="M130.26 136.344C134.274 136.344 137.528 133.077 137.528 129.046C137.528 125.016 134.274 121.749 130.26 121.749C126.246 121.749 122.992 125.016 122.992 129.046C122.992 133.077 126.246 136.344 130.26 136.344Z" fill="white"/>
<path d="M34.7389 136.344C38.7529 136.344 42.0068 133.077 42.0068 129.046C42.0068 125.016 38.7529 121.749 34.7389 121.749C30.7249 121.749 27.4709 125.016 27.4709 129.046C27.4709 133.077 30.7249 136.344 34.7389 136.344Z" fill="white"/>
<path d="M123.166 156.325H43.9103V156.151C43.9103 152.031 47.2483 148.68 51.3513 148.68H115.725C119.828 148.68 123.166 152.031 123.166 156.151V156.325Z" fill="#3F3D56"/>
<path d="M25.7269 113.266C25.298 113.266 24.8683 113.129 24.5075 112.852L21.6057 110.625C21.3176 110.404 20.9591 110.282 20.5961 110.282H14.2591C13.534 110.282 12.8843 109.906 12.521 109.276C12.1578 108.646 12.1564 107.893 12.5174 107.262L14.0644 104.556C14.3734 104.015 14.9252 103.643 15.5407 103.561L23.4692 102.499C24.4574 102.368 25.3774 102.967 25.6602 103.926L27.6528 110.678C27.8723 111.421 27.6422 112.236 27.0666 112.753C26.6873 113.094 26.2077 113.266 25.7269 113.266Z" fill="#DFDFDF"/>
<path d="M128.543 111.877C128.063 111.877 127.583 111.704 127.204 111.363C126.628 110.846 126.398 110.031 126.618 109.288L128.61 102.536C128.893 101.577 129.814 100.975 130.801 101.11L138.73 102.171C139.345 102.253 139.897 102.625 140.206 103.166L141.753 105.872C142.114 106.503 142.113 107.256 141.749 107.886C141.386 108.516 140.736 108.892 140.011 108.892H133.674C133.311 108.892 132.953 109.014 132.665 109.235L129.763 111.463C129.402 111.739 128.972 111.877 128.543 111.877Z" fill="#DFDFDF"/>
<path d="M8.53736 100.184H4.28918V275.063H8.53736V100.184Z" fill="#DFDFDF"/>
<path d="M155.292 100.184H151.044V275.063H155.292V100.184Z" fill="#DFDFDF"/>
<path d="M-26 275.233C-26 275.366 -25.8937 275.473 -25.7613 275.473H175.761C175.894 275.473 176 275.366 176 275.233C176 275.1 175.894 274.993 175.761 274.993H-25.7613C-25.8937 274.993 -26 275.1 -26 275.233Z" fill="#3F3D56"/>
<path d="M107.061 262.005V269.926L113.026 270.119L112.777 262.005H107.061Z" fill="#FFAFAF"/>
<path d="M105.88 266.412C105.8 266.412 105.721 266.423 105.644 266.444C104.567 266.753 98.3359 272.339 96.4517 274.044C96.2189 274.255 96.0952 274.555 96.1123 274.869C96.1293 275.181 96.2841 275.465 96.5368 275.648C97.9659 276.681 100.893 278.316 104.445 277.655C106.079 277.352 107.728 277.16 109.183 276.992C112.298 276.631 114.758 276.346 114.758 275.239C114.758 273.361 114.243 268.41 113.597 268.202C113.539 268.185 113.471 268.23 113.393 268.34C112.405 269.728 109.012 268.989 108.868 268.958L108.83 268.949L108.809 268.917C108.791 268.89 107.13 266.412 105.88 266.412Z" fill="#2F2E41"/>
<path d="M95.9002 262.005V269.926L101.865 270.119L101.617 262.005H95.9002Z" fill="#FFAFAF"/>
<path d="M93.4949 205.301L90.3199 207.716L89.7427 234.957L95.1305 264.709L102.154 264.999L102.346 236.599L111.39 210.71L109.562 204.624L93.4949 205.301Z" fill="#2F2E41"/>
<path d="M108.311 209.937L111.39 210.71L113.603 264.709L105.617 264.033L100.326 225.876L108.311 209.937Z" fill="#2F2E41"/>
<path d="M91.6414 278C88.9041 278 86.6799 276.785 85.4922 275.966C85.1332 275.719 84.9111 275.326 84.8828 274.888C84.854 274.447 85.0254 274.024 85.3529 273.728C88.3011 271.065 93.401 266.554 94.4305 266.259C95.7649 265.875 97.5557 268.437 97.7861 268.777C98.1589 268.853 101.214 269.439 102.076 268.227C102.24 267.996 102.394 267.986 102.496 268.019C103.417 268.315 103.789 274.269 103.789 275.239C103.789 276.518 101.38 276.797 98.0448 277.184C96.593 277.352 94.9475 277.543 93.32 277.845C92.7431 277.953 92.1822 278 91.6414 278Z" fill="#2F2E41"/>
<path d="M100.092 170.017L102.284 174.45L94.0004 178.467L94.1019 171.36L100.092 170.017Z" fill="#FFAFAF"/>
<path d="M94.03 173.371C98.1466 173.371 101.484 170.02 101.484 165.887C101.484 161.753 98.1466 158.403 94.03 158.403C89.9134 158.403 86.5763 161.753 86.5763 165.887C86.5763 170.02 89.9134 173.371 94.03 173.371Z" fill="#FFAFAF"/>
<path d="M93.9796 176.739L101.622 172.204C107.228 176.151 111.896 177.075 112.044 183.947L111.011 200.341L111.072 207.401C111.097 210.365 108.711 212.781 105.759 212.781H94.8456C91.9575 212.781 89.8057 210.106 90.4138 207.271L92.4742 197.667L90.274 178.948L93.9796 176.739Z" fill="#E10A3C"/>
<path d="M101.695 169.652L100.317 170.643C100.317 170.643 99.9113 166.323 99.3518 166.131C98.7923 165.94 98.0374 166.935 98.0374 166.935L97.4861 168.557L95.6631 167.794C95.6631 167.794 93.5524 166.653 92.8064 166.397C92.0603 166.142 92.1734 163.971 92.1734 163.971C92.1734 163.971 83.2176 165.202 84.5632 160.019C84.5632 160.019 85.0265 156.205 86.0182 156.963C87.01 157.721 87.0233 155.844 87.0233 155.844L89.2702 155.359C89.2702 155.359 92.3536 151.189 98.4357 154.737C104.518 158.284 101.695 169.652 101.695 169.652Z" fill="#2F2E41"/>
<path d="M86.1394 186.218L84.1258 185.91C83.5636 185.824 83.1736 185.291 83.2593 184.727L83.5054 183.105C82.7745 183.558 82.2382 184.317 82.0987 185.237C81.8834 186.656 82.6817 187.992 83.9487 188.512L82.1868 200.124C82.1824 200.153 82.1834 200.181 82.1825 200.21C80.8149 200.324 79.6519 201.362 79.4361 202.784C79.3097 203.618 79.5326 204.424 79.9947 205.052L80.2164 203.591C80.302 203.027 80.8322 202.635 81.3944 202.721L83.408 203.029C83.9702 203.115 84.3602 203.648 84.2745 204.212L84.0284 205.834C84.7592 205.38 85.2956 204.622 85.4351 203.702C85.6509 202.28 84.8486 200.941 83.5768 200.423C83.5846 200.396 83.5939 200.369 83.5984 200.339L85.3602 188.728C86.724 188.61 87.8824 187.573 88.0977 186.155C88.2241 185.321 88.0012 184.515 87.5391 183.887L87.3174 185.348C87.2318 185.912 86.7016 186.304 86.1394 186.218Z" fill="#3F3D56"/>
<path d="M82.3889 196.321C79.9726 195.798 78.3059 194.081 78.6662 192.484C79.0264 190.888 81.277 190.018 83.6942 190.541C84.6628 190.736 85.5664 191.169 86.3292 191.804L96.537 194.151L95.2494 199.102L85.323 196.262C84.3578 196.523 83.3517 196.543 82.3889 196.321Z" fill="#FFAFAF"/>
<path d="M102.904 175.366C106.363 174.743 109.574 177.329 109.718 180.854L110.425 198.116C110.502 200 108.876 201.503 107.012 201.271C100.335 200.707 100.804 201.394 94.8904 199.556L95.2864 193.246L100.797 193.162L98.2867 182.422C97.5281 179.176 99.6359 175.955 102.904 175.366Z" fill="#E10A3C"/>
</g>
<g clip-path="url(#clip5_309_1279)">
<path d="M549.499 505.584H414.712C414.579 505.584 414.452 505.531 414.358 505.438C414.264 505.344 414.211 505.217 414.211 505.084C414.211 504.951 414.264 504.824 414.358 504.73C414.452 504.636 414.579 504.584 414.712 504.584H549.499C549.632 504.584 549.759 504.636 549.853 504.73C549.947 504.824 550 504.951 550 505.084C550 505.217 549.947 505.344 549.853 505.438C549.759 505.531 549.632 505.584 549.499 505.584Z" fill="#3F3D56"/>
<path d="M483.122 444.505C490.792 444.505 497.009 438.299 497.009 430.642C497.009 422.986 490.792 416.78 483.122 416.78C475.452 416.78 469.235 422.986 469.235 430.642C469.235 438.299 475.452 444.505 483.122 444.505Z" fill="#2F2E41"/>
<path d="M490.854 509.307L491.924 514.345L511.9 512.624L510.321 505.188L490.854 509.307Z" fill="#A0616A"/>
<path d="M489.299 525.053L485.938 509.218L492.067 507.922L494.129 517.638C494.474 519.261 494.158 520.954 493.253 522.344C492.347 523.735 490.925 524.709 489.299 525.053Z" fill="#2F2E41"/>
<path d="M478.339 509.038L476.091 513.673L457.11 507.222L460.428 500.381L478.339 509.038Z" fill="#A0616A"/>
<path d="M473.158 516.343L477.494 507.403L483.132 510.128L476.066 524.697C474.571 523.974 473.424 522.688 472.879 521.121C472.333 519.554 472.434 517.836 473.158 516.343Z" fill="#2F2E41"/>
<path d="M440.944 499.883C441.594 500.004 442.262 499.981 442.902 499.816C443.542 499.651 444.138 499.348 444.648 498.928C445.158 498.508 445.569 497.982 445.854 497.386C446.138 496.791 446.287 496.14 446.292 495.48L477.591 466.674L469.818 460.665L441.481 490.887C440.37 490.952 439.322 491.422 438.535 492.207C437.748 492.992 437.276 494.038 437.21 495.147C437.144 496.256 437.488 497.35 438.176 498.223C438.864 499.096 439.849 499.687 440.944 499.883Z" fill="#A0616A"/>
<path d="M483.483 445.971C489.192 445.971 493.819 441.352 493.819 435.654C493.819 429.955 489.192 425.336 483.483 425.336C477.775 425.336 473.147 429.955 473.147 435.654C473.147 441.352 477.775 445.971 483.483 445.971Z" fill="#A0616A"/>
<path d="M460.818 470.131L463.764 461.309L478.914 449.126C478.914 449.126 486.489 449.966 496.167 444.505L499.326 444.595C499.864 444.611 500.393 444.735 500.882 444.96C501.371 445.186 501.809 445.508 502.169 445.907C502.529 446.307 502.804 446.775 502.978 447.284C503.151 447.793 503.22 448.331 503.179 448.867C502.383 459.154 500.845 485.644 505.215 494.706C505.215 494.706 482.07 500.587 471.549 488.404C471.549 488.404 475.758 483.783 471.549 475.382L466.079 477.062L460.818 470.131Z" fill="#E10A3C"/>
<path d="M472.812 488.404C472.812 488.404 445.458 485.884 442.513 493.865C439.567 501.847 442.934 505.628 447.983 507.308C453.033 508.989 465.237 511.089 465.237 511.089L470.708 504.368L485.016 505.208C485.016 505.208 500.958 514.438 505.367 524.311C506.312 526.447 507.82 528.288 509.73 529.637C511.641 530.986 513.881 531.793 516.214 531.972C519.748 532.218 522.89 530.886 522.89 525.372C522.89 512.769 505.215 494.706 505.215 494.706L472.812 488.404Z" fill="#2F2E41"/>
<path d="M451.981 500.797C451.981 500.797 459.135 498.696 470.497 504.158Z" fill="#2F2E41"/>
<path d="M473.172 429.074C477.209 431.534 481.759 433.03 486.47 433.448L485.068 431.771C486.089 432.148 487.163 432.361 488.25 432.402C488.795 432.418 489.335 432.306 489.828 432.075C490.322 431.845 490.754 431.502 491.091 431.075C491.365 430.631 491.529 430.127 491.567 429.607C491.604 429.086 491.515 428.565 491.307 428.086C490.88 427.131 490.215 426.301 489.376 425.675C487.889 424.5 486.133 423.711 484.266 423.378C482.398 423.045 480.478 423.178 478.674 423.766C477.438 424.135 476.33 424.844 475.478 425.813C475.059 426.3 474.769 426.884 474.632 427.512C474.495 428.14 474.517 428.792 474.694 429.409" fill="#2F2E41"/>
<path d="M484.429 418.319C481.169 415.019 477.224 412.472 472.872 410.858C470.078 409.825 467.038 409.187 464.117 409.773C461.196 410.36 458.434 412.377 457.619 415.238C456.953 417.577 457.641 420.096 458.675 422.298C459.709 424.5 461.09 426.541 461.926 428.826C462.779 431.156 463.035 433.663 462.672 436.117C462.309 438.572 461.337 440.897 459.845 442.882C458.353 444.867 456.388 446.448 454.129 447.483C451.87 448.517 449.387 448.972 446.907 448.806C449.777 449.19 452.422 450.536 455.227 451.253C458.032 451.969 461.343 451.921 463.427 449.915C465.633 447.792 465.677 444.341 465.57 441.285C465.412 436.742 465.253 432.199 465.095 427.655C465.014 425.338 464.945 422.947 465.782 420.785C466.619 418.622 468.608 416.728 470.93 416.748C472.691 416.763 474.248 417.827 475.66 418.877C477.071 419.927 478.565 421.047 480.319 421.203C482.072 421.359 484.074 420.064 483.942 418.312" fill="#2F2E41"/>
<path d="M410.741 422.241H229.787C228.783 422.24 227.821 421.841 227.111 421.132C226.401 420.423 226.001 419.462 226 418.46V324.781C226.001 323.778 226.401 322.817 227.111 322.109C227.821 321.4 228.783 321.001 229.787 321H410.741C411.745 321.001 412.708 321.4 413.418 322.109C414.128 322.817 414.527 323.778 414.528 324.781V418.46C414.527 419.462 414.128 420.423 413.418 421.132C412.708 421.841 411.745 422.24 410.741 422.241ZM229.787 321.84C229.006 321.841 228.258 322.151 227.705 322.702C227.153 323.254 226.843 324.001 226.842 324.781V418.46C226.843 419.24 227.153 419.987 227.705 420.538C228.258 421.09 229.006 421.4 229.787 421.401H410.741C411.522 421.4 412.27 421.089 412.823 420.538C413.375 419.987 413.686 419.24 413.686 418.46V324.781C413.686 324.001 413.375 323.254 412.823 322.702C412.27 322.151 411.522 321.841 410.741 321.84H229.787Z" fill="#3F3D56"/>
<path d="M488.27 486.887C488.503 486.889 488.735 486.909 488.965 486.947L503.254 471.762L501.797 466.915L508.838 463.764L513.209 474.429L492.651 490.753C492.762 491.642 492.599 492.543 492.184 493.336C491.769 494.13 491.121 494.779 490.328 495.196C489.535 495.614 488.633 495.781 487.742 495.674C486.852 495.568 486.015 495.193 485.343 494.6C484.671 494.007 484.195 493.224 483.98 492.355C483.765 491.486 483.82 490.572 484.137 489.734C484.455 488.897 485.021 488.176 485.759 487.668C486.497 487.159 487.373 486.887 488.27 486.887Z" fill="#A0616A"/>
<path d="M497.64 445.135C498.13 444.918 498.659 444.802 499.195 444.794C499.731 444.785 500.264 444.886 500.76 445.088C501.256 445.29 501.707 445.591 502.084 445.971C502.461 446.351 502.757 446.804 502.955 447.302L510.265 465.72L498.903 473.281L497.64 445.135Z" fill="#E10A3C"/>
<path d="M485.733 488.451C478.684 484.298 470.542 482.371 462.375 482.922C454.209 483.474 446.401 486.478 439.976 491.541C439.508 491.996 438.985 492.391 438.42 492.718C437.919 492.935 437.322 492.755 436.821 492.63C433.51 491.799 430.036 490.52 427.598 488.036C425.494 485.891 424.022 482.608 425.082 479.62C425.531 478.485 426.325 477.52 427.353 476.86C428.381 476.201 429.59 475.88 430.81 475.942C433.726 476.203 434.918 479.435 434.282 481.966C433.529 484.959 430.612 486.961 427.843 487.922C422.738 489.693 416.818 488.458 412.599 485.163C410.368 483.435 408.677 481.108 407.727 478.453C406.569 475.186 406.497 471.643 407.098 468.253C408.355 461.165 412.204 455.083 415.817 448.992C419.181 443.322 422.541 437.248 422.962 430.533C423.297 425.19 421.894 419.288 417.903 415.488C416.96 414.59 415.89 413.835 414.727 413.247C414.004 412.882 413.364 413.968 414.09 414.335C419.252 416.945 421.548 422.731 421.733 428.247C421.964 435.126 418.809 441.38 415.424 447.174C411.704 453.54 407.545 459.792 406.032 467.127C405.315 470.608 405.199 474.261 406.166 477.707C406.976 480.644 408.603 483.291 410.86 485.341C415.069 489.134 421.165 490.861 426.716 489.56C429.694 488.862 432.672 487.243 434.417 484.672C436.111 482.176 436.28 478.503 434.106 476.219C432.181 474.196 429.09 474.332 426.838 475.713C424.25 477.3 423.125 480.129 423.595 483.086C424.12 486.387 426.44 489.162 429.202 490.91C430.775 491.876 432.462 492.644 434.224 493.195C435.104 493.493 435.999 493.743 436.905 493.945C437.503 494.11 438.135 494.11 438.733 493.944C439.303 493.694 439.825 493.344 440.274 492.912C441.026 492.294 441.805 491.71 442.606 491.155C444.155 490.08 445.779 489.116 447.465 488.268C452.507 485.723 458.042 484.299 463.689 484.094C469.336 483.889 474.96 484.908 480.175 487.081C481.871 487.784 483.516 488.605 485.096 489.539C485.24 489.617 485.409 489.636 485.567 489.592C485.724 489.548 485.859 489.444 485.941 489.303C486.024 489.162 486.049 488.994 486.01 488.835C485.971 488.676 485.872 488.539 485.733 488.451Z" fill="#3F3D56"/>
</g>
<g clip-path="url(#clip6_309_1279)">
<path d="M1427 188.5C1427 194.675 1426.39 200.711 1425.24 206.546C1424.88 208.376 1424.46 210.186 1423.99 211.976C1423.07 215.522 1421.94 218.982 1420.61 222.348C1420.43 222.811 1420.25 223.27 1420.05 223.73C1419.58 224.875 1419.09 226.008 1418.57 227.127C1418.3 227.727 1418.02 228.324 1417.72 228.917C1416.64 231.158 1415.46 233.351 1414.19 235.487C1412.76 237.919 1411.21 240.283 1409.56 242.564C1406.61 246.658 1403.33 250.501 1399.76 254.049C1383.03 270.708 1359.97 281 1334.5 281C1308.91 281 1285.75 270.611 1269.01 253.821C1265.56 250.361 1262.38 246.629 1259.51 242.658C1256.2 238.087 1253.3 233.2 1250.86 228.049C1250.46 227.204 1250.07 226.351 1249.69 225.491C1249.65 225.386 1249.6 225.283 1249.56 225.177C1248.98 223.856 1248.44 222.517 1247.93 221.163C1247.48 219.953 1247.04 218.728 1246.64 217.492C1246.04 215.676 1245.49 213.838 1245.01 211.973C1244.61 210.472 1244.26 208.953 1243.94 207.423C1242.79 201.881 1242.13 196.16 1242.02 190.304C1242.01 189.705 1242 189.102 1242 188.5C1242 185.796 1242.12 183.121 1242.34 180.478C1242.42 179.558 1242.51 178.642 1242.62 177.731C1243.79 167.659 1246.57 158.081 1250.71 149.262C1251.78 146.992 1252.93 144.774 1254.17 142.61C1258.75 134.602 1264.5 127.344 1271.18 121.072C1272.11 120.193 1273.06 119.336 1274.04 118.5C1290.25 104.479 1311.38 96 1334.5 96C1385.59 96 1427 137.414 1427 188.5Z" fill="#F2F2F2"/>
<path d="M1381.75 162.534H1378.29V187.082H1381.75V162.534Z" fill="#3F3D56"/>
<path d="M1381.76 162.223L1381.63 162.534L1380.46 165.426L1378.29 164.547L1375.18 163.285C1355.87 157.086 1331.46 153.914 1322.16 141.765L1321.55 141.519C1317.66 144.748 1314.96 144.936 1314.75 138.756L1314.14 138.51C1298.28 141.773 1284.55 132.456 1271.18 121.072C1272.11 120.193 1273.06 119.336 1274.04 118.5C1292.83 119.027 1308.86 122.288 1315.14 135.184L1315.75 135.432L1323.06 138.396L1323.67 138.644C1339.9 135.222 1358.13 147.557 1376.38 160.039L1381.76 162.223Z" fill="#3F3D56"/>
<path d="M1409.56 242.564C1406.61 246.658 1403.33 250.501 1399.76 254.049C1358.64 254.852 1309.08 254.752 1269.01 253.821C1265.56 250.361 1262.38 246.629 1259.51 242.658C1267.83 242.427 1276.67 242.244 1285.83 242.101C1289.46 242.042 1293.15 241.993 1296.87 241.947C1300.57 241.907 1304.3 241.87 1308.07 241.839H1308.07C1342.29 241.562 1378.89 241.816 1409.56 242.564Z" fill="#D0CDE1"/>
<path d="M1420.61 222.348C1420.43 222.811 1420.25 223.27 1420.05 223.73C1419.58 224.875 1419.09 226.008 1418.57 227.127C1418.3 227.727 1418.02 228.324 1417.72 228.917C1416.64 231.158 1415.46 233.351 1414.19 235.487C1370 240.635 1329.11 241.869 1294.62 235.487V222.348H1420.61Z" fill="#3F3D56"/>
<path d="M1418.57 206.726V227.127C1418.3 227.727 1418.02 228.324 1417.72 228.917C1405.17 222.79 1393.7 223.521 1382.96 228.917V184.143C1391.65 178.945 1400.5 178.089 1409.58 184.143L1417.93 205.101L1418.57 206.726Z" fill="#D0CDE1"/>
<path d="M1388.49 186.909H1403.7V202.122C1398.69 204.801 1393.62 204.744 1388.49 202.122C1385.85 197.051 1385.85 191.98 1388.49 186.909Z" fill="white"/>
<path d="M1415.11 202.294C1413.11 204.545 1409.45 203.74 1405.43 202.294V187.082H1409.58L1415.11 202.294Z" fill="white"/>
<path d="M1392.64 210.765H1389.18V217.334H1392.64V210.765Z" fill="#3F3D56"/>
<path d="M1408.37 196.762H1408.54C1410.36 196.762 1411.83 198.233 1411.83 200.047C1411.83 201.861 1410.36 203.332 1408.54 203.332H1408.37V196.762Z" fill="#3F3D56"/>
<path d="M1279.75 222.348H1279.93C1281.74 222.348 1283.21 223.818 1283.21 225.632C1283.21 227.446 1281.74 228.917 1279.93 228.917H1279.75V222.348Z" fill="#3F3D56"/>
<path d="M1296.87 248.106C1304.12 248.106 1310.01 242.224 1310.01 234.967C1310.01 227.711 1304.12 221.829 1296.87 221.829C1289.61 221.829 1283.73 227.711 1283.73 234.967C1283.73 242.224 1289.61 248.106 1296.87 248.106Z" fill="#3F3D56"/>
<path d="M1296.87 241.882C1300.69 241.882 1303.78 238.786 1303.78 234.967C1303.78 231.148 1300.69 228.053 1296.87 228.053C1293.05 228.053 1289.95 231.148 1289.95 234.967C1289.95 238.786 1293.05 241.882 1296.87 241.882Z" fill="#D0CDE1"/>
<path d="M1384 220.792L1384 177.919H1376.74C1375.3 180.634 1374.56 184.763 1374.3 189.831C1373.41 207.15 1359.23 220.792 1341.89 220.792H1279.58V223.904H1376.12C1376.32 226.033 1376.53 228.17 1376.74 230.3L1384 230.3V223.904L1384 220.792Z" fill="#3F3D56"/>
<path d="M1327.85 206.439L1329.8 205.006L1341.78 221.307L1339.83 222.74C1330.83 221.63 1326.88 216.16 1327.85 206.439Z" fill="#3F3D56"/>
<path d="M1347.81 151.323L1350.03 152.307L1326.1 222.75L1323.89 221.767C1326.86 202.463 1335.96 167.146 1347.81 151.323Z" fill="#3F3D56"/>
<path d="M1410.45 202.986H1406.99V204.369H1410.45V202.986Z" fill="#3F3D56"/>
<path d="M1379.39 182.683C1379.39 182.657 1379.4 182.634 1379.39 182.61C1379.37 182.418 1379.2 182.283 1379.01 182.304L1376.78 182.555L1298.5 185.385L1297.81 185.461C1297.66 185.478 1297.54 185.592 1297.51 185.744C1297.48 185.932 1297.6 186.111 1297.79 186.145L1377.72 196.108C1377.91 196.128 1378.08 195.986 1378.1 195.796L1379.39 182.683ZM1300.25 185.884L1376.66 183.263L1378.66 183.039L1377.45 195.357L1300.25 185.884Z" fill="#3F3D56"/>
<path d="M1323.06 138.396L1321.55 141.519L1301.16 183.789L1314.75 138.756L1315.75 135.432L1315.14 135.184L1314.14 138.51L1300.13 185.285L1299.98 185.965C1299.94 186.113 1300.01 186.265 1300.15 186.339C1300.31 186.433 1300.53 186.373 1300.62 186.205L1322.16 141.765L1323.67 138.644L1323.06 138.396Z" fill="#3F3D56"/>
<path d="M1256.5 186.253L1255.5 176.795L1255.22 174.188L1253.81 160.804L1252.95 152.671C1252.93 152.496 1252.78 152.362 1252.6 152.362C1252.43 152.362 1252.28 152.494 1252.26 152.668L1251.32 160.804L1249.61 175.764L1249.29 178.531L1248.38 186.524L1247.1 197.667C1247.1 197.679 1247.1 197.69 1247.1 197.704C1247.1 197.893 1247.25 198.05 1247.44 198.053L1251.6 198.093L1257.37 198.147H1257.37C1257.38 198.147 1257.39 198.144 1257.41 198.144C1257.6 198.124 1257.73 197.953 1257.71 197.764L1256.5 186.253ZM1253.08 197.413L1251.42 197.399L1247.83 197.365L1248.87 188.292V188.289L1250.01 178.331L1250.33 175.561L1252.02 160.804L1252.59 155.865L1253.11 160.804L1254.55 174.377L1254.82 176.983L1255.82 186.442L1256.99 197.45L1253.08 197.413Z" fill="#3F3D56"/>
<path d="M1307.68 199.911L1305.81 200.928L1300.49 202.415L1296.04 203.665L1286.35 206.375L1281.89 207.622C1268.03 205.349 1261.03 210.135 1254.42 215.314L1249.96 216.561L1246.64 217.492C1246.04 215.676 1245.49 213.838 1245.01 211.973C1244.61 210.472 1244.26 208.953 1243.94 207.423C1242.79 201.881 1242.13 196.16 1242.02 190.304C1242.01 189.705 1242 189.102 1242 188.5C1242 185.796 1242.12 183.121 1242.34 180.478C1242.42 179.558 1242.51 178.642 1242.62 177.731L1249.61 175.764L1250.33 175.561L1254.55 174.377L1255.22 174.188L1265.92 171.176C1274.15 170.595 1280.42 174.169 1285.76 179.712C1285.76 179.712 1293.36 177.443 1298.95 181.448C1300.72 182.719 1302.29 184.617 1303.35 187.418L1304.27 190.059L1307.68 199.911Z" fill="#E10A3C"/>
<path d="M1290.96 213.874C1296.31 213.874 1300.66 209.532 1300.66 204.176C1300.66 198.821 1296.31 194.479 1290.96 194.479C1285.6 194.479 1281.26 198.821 1281.26 204.176C1281.26 209.532 1285.6 213.874 1290.96 213.874Z" fill="#3F3D56"/>
<path d="M1290.96 209.28C1293.78 209.28 1296.06 206.995 1296.06 204.176C1296.06 201.358 1293.78 199.073 1290.96 199.073C1288.14 199.073 1285.85 201.358 1285.85 204.176C1285.85 206.995 1288.14 209.28 1290.96 209.28Z" fill="#D0CDE1"/>
<path d="M1254.58 217.075C1254.58 220.284 1253.02 223.128 1250.61 224.892C1250.32 225.109 1250.01 225.309 1249.69 225.491C1249.65 225.386 1249.6 225.283 1249.56 225.177C1248.98 223.856 1248.44 222.517 1247.93 221.163C1247.48 219.953 1247.04 218.728 1246.64 217.492C1246.04 215.676 1245.49 213.838 1245.01 211.973C1244.61 210.472 1244.26 208.953 1243.94 207.423C1244.25 207.391 1244.56 207.377 1244.88 207.377C1249.63 207.377 1253.59 210.797 1254.42 215.314C1254.52 215.885 1254.58 216.473 1254.58 217.075Z" fill="#3F3D56"/>
<path d="M1249.98 217.075C1249.98 218.748 1249.18 220.233 1247.93 221.163C1247.48 219.953 1247.04 218.728 1246.64 217.492C1246.04 215.676 1245.49 213.838 1245.01 211.973C1247.6 212.036 1249.7 214.023 1249.96 216.561C1249.97 216.73 1249.98 216.901 1249.98 217.075Z" fill="#D0CDE1"/>
<path d="M1278.9 179.982L1248.9 188.381L1246.37 179.349C1250.15 176.398 1257.58 175.085 1265.51 173.992L1278.9 179.982Z" fill="white"/>
<path d="M1245.22 189.408L1242.02 190.304C1242.01 189.705 1242 189.102 1242 188.5C1242 185.796 1242.12 183.121 1242.34 180.478L1242.7 180.378C1245.83 182.431 1246.62 185.462 1245.22 189.408Z" fill="white"/>
<path d="M1252.31 194.688L1250.78 195.116L1251.6 198.025L1253.13 197.597L1252.31 194.688Z" fill="#3F3D56"/>
<path d="M1304.27 190.059C1301.63 191.113 1298.65 189.833 1297.59 187.2C1296.79 185.188 1297.33 182.887 1298.95 181.449C1300.72 182.718 1302.29 184.617 1303.35 187.418L1304.27 190.059Z" fill="#3F3D56"/>
<path d="M1250.71 149.262C1251.78 146.992 1252.93 144.774 1254.17 142.61V160.804H1250.71V149.262Z" fill="#3F3D56"/>
<path d="M1380.02 168.066C1382.69 168.066 1384.86 165.898 1384.86 163.225C1384.86 160.552 1382.69 158.385 1380.02 158.385C1377.35 158.385 1375.18 160.552 1375.18 163.225C1375.18 165.898 1377.35 168.066 1380.02 168.066Z" fill="#3F3D56"/>
</g>
</g>
<defs>
<clipPath id="clip0_309_1279">
<rect width="1415" height="537" fill="white" transform="translate(0 -8)"/>
</clipPath>
<clipPath id="clip1_309_1279">
<rect width="386" height="162" fill="white" transform="translate(740 371)"/>
</clipPath>
<clipPath id="clip2_309_1279">
<rect width="377" height="244" fill="white" transform="translate(1105 289)"/>
</clipPath>
<clipPath id="clip3_309_1279">
<rect width="306" height="231" fill="white" transform="translate(-64 298)"/>
</clipPath>
<clipPath id="clip4_309_1279">
<rect width="202" height="191" fill="white" transform="translate(-26 87)"/>
</clipPath>
<clipPath id="clip5_309_1279">
<rect width="324" height="211" fill="white" transform="translate(226 321)"/>
</clipPath>
<clipPath id="clip6_309_1279">
<rect width="185" height="185" fill="white" transform="translate(1242 96)"/>
</clipPath>
</defs>
</svg>
