<svg xmlns="http://www.w3.org/2000/svg" version="1.2" viewBox="0 0 265 172" width="154" height="100">
	<title>AutoMerSi - Logo Alternative - SIMAKOV-SERGEY-ai</title>
	<style>
		tspan { white-space:pre } 
		.s0 { fill: #f7f7f7 } 
		.s1 { fill: #e10a3c } 
	</style>
	<g id="Layer 1">
		<g id="&lt;Group&gt;">
			<g id="&lt;Group&gt;">
				<g id="&lt;Group&gt;">
					<path id="&lt;Compound Path&gt;" fill-rule="evenodd" class="s0" d="m63.7 68.8l-19.1-0.1c-0.3 0-0.6 0.2-0.7 0.5l-1.5 5.1c-0.1 0.3-0.4 0.6-0.8 0.6l-16.7-0.2c-0.6 0-0.9-0.5-0.8-1l17-49.9c0.1-0.4 0.4-0.6 0.8-0.6l23.9 0.2c0.3 0 0.6 0.2 0.7 0.5l17.8 50.2c0.1 0.5-0.2 1.1-0.8 1.1l-16.8-0.2c-0.3 0-0.6-0.2-0.7-0.5l-1.6-5.2c-0.1-0.3-0.4-0.5-0.7-0.5zm-4.1-14.7l-4-12.8c-0.1-0.3-0.3-0.5-0.7-0.5h-1.9c-0.4 0-0.7 0.2-0.8 0.5l-3.8 12.7c-0.1 0.5 0.2 1 0.8 1l9.7 0.1c0.5 0 0.9-0.5 0.7-1z"/>
					<path id="&lt;Compound Path&gt;" class="s0" d="m80.8 52.3l-0.2-28c0-0.4 0.4-0.7 0.8-0.7l16.5 0.1c0.4 0 0.7 0.3 0.7 0.7l0.2 27.6c0 5.8 2.4 9.5 8.3 9.5 6 0.1 8.4-3.6 8.3-9.4l-0.2-27.5c0-0.5 0.4-0.8 0.8-0.8l16.4 0.1c0.4 0 0.7 0.4 0.7 0.8l0.2 27.9c0.1 17-8.4 24.6-26.1 24.5-17.6-0.1-26.3-7.8-26.4-24.8z"/>
					<path id="&lt;Compound Path&gt;" class="s0" d="m182 39.8l-16.1-0.1c-0.4 0-0.7 0.3-0.7 0.8l0.2 34.6c0 0.4-0.3 0.7-0.8 0.7l-16.3-0.1c-0.4 0-0.8-0.3-0.8-0.8l-0.2-34.6c0-0.4-0.3-0.7-0.8-0.7l-16-0.2c-0.4 0-0.7-0.3-0.7-0.7l-0.1-14c0-0.4 0.3-0.7 0.7-0.7l51.5 0.3c0.4 0 0.7 0.4 0.7 0.8l0.1 13.9c0 0.5-0.3 0.8-0.7 0.8z"/>
					<path id="&lt;Compound Path&gt;" fill-rule="evenodd" class="s0" d="m182.7 50.2c-0.1-16.7 10.9-27.5 28.2-27.4 17.3 0.1 28.4 11.1 28.5 27.8 0.1 16.6-10.8 27.4-28.2 27.3-17.2-0.1-28.4-11.1-28.5-27.7zm39 0.2c-0.1-7.5-5-11.5-10.7-11.5-5.7-0.1-10.6 3.9-10.6 11.4 0.1 7.5 5.1 11.5 10.7 11.5 5.7 0.1 10.6-3.9 10.6-11.4z"/>
				</g>
				<g id="&lt;Group&gt;">
					<path id="&lt;Compound Path&gt;" class="s0" d="m14.9 80.8l20.4 0.2c0.4 0 0.6 0.2 0.7 0.5l6.4 25.4c0.1 0.3 0.4 0.5 0.7 0.5h0.1c0.4 0 0.7-0.2 0.8-0.5l6-25.2c0.1-0.4 0.4-0.6 0.7-0.6l20.5 0.1c0.4 0 0.7 0.4 0.7 0.8l0.3 48.7c0 0.4-0.3 0.7-0.7 0.7l-15-0.1c-0.4 0-0.8-0.3-0.8-0.7l-0.1-18.2c0-0.4-0.3-0.7-0.7-0.7-0.4 0-0.7 0.2-0.8 0.6l-4.3 18.4c0 0.3-0.3 0.6-0.7 0.6l-11.5-0.1c-0.4 0-0.7-0.3-0.7-0.6l-4.6-18.5c-0.1-0.3-0.4-0.6-0.7-0.6-0.4 0-0.8 0.4-0.8 0.8l0.2 18.1c0 0.4-0.4 0.7-0.8 0.7l-15-0.1c-0.4 0-0.7-0.3-0.7-0.7l-0.4-48.7c0-0.4 0.3-0.8 0.8-0.8z"/>
					<path id="&lt;Compound Path&gt;" fill-rule="evenodd" class="s0" d="m158.9 131.6l-5.5-11.7c-0.1-0.3-0.3-0.4-0.6-0.4q-13.4 0-26.8-0.1 0-18.9 0-37.8c0-0.4 0.3-0.8 0.7-0.8l26.4 0.2c13 0.1 20.4 6.1 20.4 20.1 0.1 6.3-2.3 11-5.7 14.1-0.3 0.2-0.4 0.6-0.2 0.9l7.3 14.9c0.2 0.5-0.1 1.1-0.7 1.1l-14.6-0.1q-0.3-0.2-0.7-0.4zm-16.2-26.6c0 0.4 0.3 0.7 0.7 0.8h8.6c3.3 0 4.9-1.8 4.9-4.7 0-3-1.6-4.8-4.9-4.9h-8.6c-0.4 0-0.8 0.3-0.8 0.8z"/>
					<path id="&lt;Compound Path&gt;" class="s0" d="m177.9 114.9l14.2 0.1c0.4 0 0.7 0.3 0.7 0.6 0.4 2.7 3 4.2 9 4.3 5.7 0.1 8.1-1.4 8.1-3.2-0.1-1-0.3-2.6-4.7-3.3l-6.3-1c-9-1.6-20.6-2.3-20.7-15.8-0.1-10.1 7.6-16.3 23.5-16.1 14 0 23.9 3.8 23.9 18.1 0 0.4-0.3 0.8-0.7 0.8l-14.2-0.1c-0.3 0-0.6-0.2-0.7-0.5-0.7-2.7-3.2-4.3-8.6-4.3-4.8 0-6.6 1.4-6.6 3.2 0 0.8 0.4 2.5 3.7 3l5.1 0.9c9.7 1.7 23.4 1.7 23.5 16 0.1 11.2-8.1 16.6-25.2 16.4-16.9-0.2-24.8-5.4-24.7-18.3 0-0.4 0.3-0.8 0.7-0.8z"/>
					<path id="&lt;Compound Path&gt;" class="s0" d="m232.5 82.3l15.8 0.1c0.4 0 0.8 0.4 0.8 0.8l0.3 48.7c0 0.4-0.3 0.7-0.7 0.7l-15.9-0.1c-0.4 0-0.7-0.3-0.7-0.7l-0.3-48.7c-0.1-0.4 0.3-0.8 0.7-0.8z"/>
					<g id="&lt;Group&gt;">
						<g id="&lt;Group&gt;">
							<path id="&lt;Path&gt;" class="s1" d="m76.1 119.5h46v11.9h-46z"/>
							<path id="&lt;Path&gt;" class="s1" d="m76.1 100.5h46v11.9h-46z"/>
							<path id="&lt;Path&gt;" class="s1" d="m76.1 80.8h46v11.9h-46z"/>
						</g>
					</g>
				</g>
			</g>
		</g>
	</g>
</svg>