<svg width="1098" height="706" viewBox="0 0 1097.16 705.45" fill="none" xmlns="http://www.w3.org/2000/svg">
<g clip-path="url(#clip0_310_2)">
<g opacity="0.3">
<path opacity="0.3" d="M254.43 206.86V162.06H57.22V206.86H0V553.38H311.61V206.86H254.43ZM24.58 552.51H11.22V498.1H24.6L24.58 552.51ZM24.58 484.14H11.22V429.73H24.6L24.58 484.14ZM24.58 415.76H11.22V361.36H24.6L24.58 415.76ZM24.58 347.39H11.22V292.97H24.6L24.58 347.39ZM24.58 279.02H11.22V224.61H24.6L24.58 279.02ZM47.58 552.51H34.22V498.1H47.6L47.58 552.51ZM47.58 484.14H34.22V429.73H47.6L47.58 484.14ZM47.58 415.76H34.22V361.36H47.6L47.58 415.76ZM47.58 347.39H34.22V292.97H47.6L47.58 347.39ZM47.58 279.02H34.22V224.61H47.6L47.58 279.02ZM70.58 552.51H57.22V498.1H70.61L70.58 552.51ZM70.58 484.14H57.22V429.73H70.61L70.58 484.14ZM70.58 415.76H57.22V361.36H70.61L70.58 415.76ZM70.58 347.39H57.22V292.97H70.61L70.58 347.39ZM70.58 279.02H57.22V224.61H70.61L70.58 279.02ZM93.58 552.51H80.16V498.1H93.54L93.58 552.51ZM93.58 484.14H80.16V429.73H93.54L93.58 484.14ZM93.58 415.76H80.16V361.36H93.54L93.58 415.76ZM93.58 347.39H80.16V292.97H93.54L93.58 347.39ZM93.58 279.02H80.16V224.61H93.54L93.58 279.02ZM116.58 552.51H103.14V498.1H116.52L116.58 552.51ZM116.58 484.14H103.14V429.73H116.52L116.58 484.14ZM116.58 415.76H103.14V361.36H116.52L116.58 415.76ZM116.58 347.39H103.14V292.97H116.52L116.58 347.39ZM116.58 279.02H103.14V224.61H116.52L116.58 279.02ZM139.58 552.51H126.13V498.1H139.51L139.58 552.51ZM139.58 484.14H126.13V429.73H139.51L139.58 484.14ZM139.58 415.76H126.13V361.36H139.51L139.58 415.76ZM139.58 347.39H126.13V292.97H139.51L139.58 347.39ZM139.58 279.02H126.13V224.61H139.51L139.58 279.02ZM162.58 552.51H149.11V498.1H162.5L162.58 552.51ZM162.58 484.14H149.11V429.73H162.5L162.58 484.14ZM162.58 415.76H149.11V361.36H162.5L162.58 415.76ZM162.58 347.39H149.11V292.97H162.5L162.58 347.39ZM162.58 279.02H149.11V224.61H162.5L162.58 279.02ZM185.58 552.51H172.09V498.1H185.48L185.58 552.51ZM185.58 484.14H172.09V429.73H185.48L185.58 484.14ZM185.58 415.76H172.09V361.36H185.48L185.58 415.76ZM185.58 347.39H172.09V292.97H185.48L185.58 347.39ZM185.58 279.02H172.09V224.61H185.48L185.58 279.02ZM208.58 552.51H195.08V498.1H208.47L208.58 552.51ZM208.58 484.14H195.08V429.73H208.47L208.58 484.14ZM208.58 415.76H195.08V361.36H208.47L208.58 415.76ZM208.58 347.39H195.08V292.97H208.47L208.58 347.39ZM208.58 279.02H195.08V224.61H208.47L208.58 279.02ZM231.58 552.51H218.07V498.1H231.45L231.58 552.51ZM231.58 484.14H218.07V429.73H231.45L231.58 484.14ZM231.58 415.76H218.07V361.36H231.45L231.58 415.76ZM231.58 347.39H218.07V292.97H231.45L231.58 347.39ZM231.58 279.02H218.07V224.61H231.45L231.58 279.02ZM254.58 552.51H241.05V498.1H254.43L254.58 552.51ZM254.58 484.14H241.05V429.73H254.43L254.58 484.14ZM254.58 415.76H241.05V361.36H254.43L254.58 415.76ZM254.58 347.39H241.05V292.97H254.43L254.58 347.39ZM254.58 279.02H241.05V224.61H254.43L254.58 279.02ZM277.58 552.51H264.04V498.1H277.42L277.58 552.51ZM277.58 484.14H264.04V429.73H277.42L277.58 484.14ZM277.58 415.76H264.04V361.36H277.42L277.58 415.76ZM277.58 347.39H264.04V292.97H277.42L277.58 347.39ZM277.58 279.02H264.04V224.61H277.42L277.58 279.02ZM300.58 552.51H287.02V498.1H300.41L300.58 552.51ZM300.58 484.14H287.02V429.73H300.41L300.58 484.14ZM300.58 415.76H287.02V361.36H300.41L300.58 415.76ZM300.58 347.39H287.02V292.97H300.41L300.58 347.39ZM300.58 279.02H287.02V224.61H300.41L300.58 279.02Z" fill="white"/>
<path opacity="0.3" d="M11.2 224.61H24.58V279.02H11.2V224.61Z" fill="white"/>
<path opacity="0.3" d="M11.2 292.99H24.58V347.4H11.2V292.99Z" fill="white"/>
<path opacity="0.3" d="M11.2 361.36H24.58V415.77H11.2V361.36Z" fill="white"/>
<path opacity="0.3" d="M11.2 429.73H24.58V484.14H11.2V429.73Z" fill="white"/>
<path opacity="0.3" d="M11.2 498.1H24.58V552.51H11.2V498.1Z" fill="white"/>
<path opacity="0.3" d="M34.19 224.61H47.57V279.02H34.19V224.61Z" fill="white"/>
<path opacity="0.3" d="M34.19 292.99H47.57V347.4H34.19V292.99Z" fill="white"/>
<path opacity="0.3" d="M34.19 361.36H47.57V415.77H34.19V361.36Z" fill="white"/>
<path opacity="0.3" d="M34.19 429.73H47.57V484.14H34.19V429.73Z" fill="white"/>
<path opacity="0.3" d="M34.19 498.1H47.57V552.51H34.19V498.1Z" fill="white"/>
<path opacity="0.3" d="M57.17 224.61H70.55V279.02H57.17V224.61Z" fill="white"/>
<path opacity="0.3" d="M57.17 292.99H70.55V347.4H57.17V292.99Z" fill="white"/>
<path opacity="0.3" d="M57.17 361.36H70.55V415.77H57.17V361.36Z" fill="white"/>
<path opacity="0.3" d="M57.17 429.73H70.55V484.14H57.17V429.73Z" fill="white"/>
<path opacity="0.3" d="M57.17 498.1H70.55V552.51H57.17V498.1Z" fill="white"/>
<path opacity="0.3" d="M80.16 224.61H93.54V279.02H80.16V224.61Z" fill="white"/>
<path opacity="0.3" d="M80.16 292.99H93.54V347.4H80.16V292.99Z" fill="white"/>
<path opacity="0.3" d="M80.16 361.36H93.54V415.77H80.16V361.36Z" fill="white"/>
<path opacity="0.3" d="M80.16 429.73H93.54V484.14H80.16V429.73Z" fill="white"/>
<path opacity="0.3" d="M80.16 498.1H93.54V552.51H80.16V498.1Z" fill="white"/>
<path opacity="0.3" d="M103.14 224.61H116.52V279.02H103.14V224.61Z" fill="white"/>
<path opacity="0.3" d="M103.14 292.99H116.52V347.4H103.14V292.99Z" fill="white"/>
<path opacity="0.3" d="M103.14 361.36H116.52V415.77H103.14V361.36Z" fill="white"/>
<path opacity="0.3" d="M103.14 429.73H116.52V484.14H103.14V429.73Z" fill="white"/>
<path opacity="0.3" d="M103.14 498.1H116.52V552.51H103.14V498.1Z" fill="white"/>
<path opacity="0.3" d="M126.13 224.61H139.51V279.02H126.13V224.61Z" fill="white"/>
<path opacity="0.3" d="M126.13 292.99H139.51V347.4H126.13V292.99Z" fill="white"/>
<path opacity="0.3" d="M126.13 361.36H139.51V415.77H126.13V361.36Z" fill="white"/>
<path opacity="0.3" d="M126.13 429.73H139.51V484.14H126.13V429.73Z" fill="white"/>
<path opacity="0.3" d="M126.13 498.1H139.51V552.51H126.13V498.1Z" fill="white"/>
<path opacity="0.3" d="M149.11 224.61H162.49V279.02H149.11V224.61Z" fill="white"/>
<path opacity="0.3" d="M149.11 292.99H162.49V347.4H149.11V292.99Z" fill="white"/>
<path opacity="0.3" d="M149.11 361.36H162.49V415.77H149.11V361.36Z" fill="white"/>
<path opacity="0.3" d="M149.11 429.73H162.49V484.14H149.11V429.73Z" fill="white"/>
<path opacity="0.3" d="M149.11 498.1H162.49V552.51H149.11V498.1Z" fill="white"/>
<path opacity="0.3" d="M172.09 224.61H185.47V279.02H172.09V224.61Z" fill="white"/>
<path opacity="0.3" d="M172.09 292.99H185.47V347.4H172.09V292.99Z" fill="white"/>
<path opacity="0.3" d="M172.09 361.36H185.47V415.77H172.09V361.36Z" fill="white"/>
<path opacity="0.3" d="M172.09 429.73H185.47V484.14H172.09V429.73Z" fill="white"/>
<path opacity="0.3" d="M172.09 498.1H185.47V552.51H172.09V498.1Z" fill="white"/>
<path opacity="0.3" d="M195.08 224.61H208.46V279.02H195.08V224.61Z" fill="white"/>
<path opacity="0.3" d="M195.08 292.99H208.46V347.4H195.08V292.99Z" fill="white"/>
<path opacity="0.3" d="M195.08 361.36H208.46V415.77H195.08V361.36Z" fill="white"/>
<path opacity="0.3" d="M195.08 429.73H208.46V484.14H195.08V429.73Z" fill="white"/>
<path opacity="0.3" d="M195.08 498.1H208.46V552.51H195.08V498.1Z" fill="white"/>
<path opacity="0.3" d="M218.07 224.61H231.45V279.02H218.07V224.61Z" fill="white"/>
<path opacity="0.3" d="M218.07 292.99H231.45V347.4H218.07V292.99Z" fill="white"/>
<path opacity="0.3" d="M218.07 361.36H231.45V415.77H218.07V361.36Z" fill="white"/>
<path opacity="0.3" d="M218.07 429.73H231.45V484.14H218.07V429.73Z" fill="white"/>
<path opacity="0.3" d="M218.07 498.1H231.45V552.51H218.07V498.1Z" fill="white"/>
<path opacity="0.3" d="M241.05 224.61H254.43V279.02H241.05V224.61Z" fill="white"/>
<path opacity="0.3" d="M241.05 292.99H254.43V347.4H241.05V292.99Z" fill="white"/>
<path opacity="0.3" d="M241.05 361.36H254.43V415.77H241.05V361.36Z" fill="white"/>
<path opacity="0.3" d="M241.05 429.73H254.43V484.14H241.05V429.73Z" fill="white"/>
<path opacity="0.3" d="M241.05 498.1H254.43V552.51H241.05V498.1Z" fill="white"/>
<path opacity="0.3" d="M264.04 224.61H277.42V279.02H264.04V224.61Z" fill="white"/>
<path opacity="0.3" d="M264.04 292.99H277.42V347.4H264.04V292.99Z" fill="white"/>
<path opacity="0.3" d="M264.04 361.36H277.42V415.77H264.04V361.36Z" fill="white"/>
<path opacity="0.3" d="M264.04 429.73H277.42V484.14H264.04V429.73Z" fill="white"/>
<path opacity="0.3" d="M264.04 498.1H277.42V552.51H264.04V498.1Z" fill="white"/>
<path opacity="0.3" d="M287.02 224.61H300.4V279.02H287.02V224.61Z" fill="white"/>
<path opacity="0.3" d="M287.02 292.99H300.4V347.4H287.02V292.99Z" fill="white"/>
<path opacity="0.3" d="M287.02 361.36H300.4V415.77H287.02V361.36Z" fill="white"/>
<path opacity="0.3" d="M287.02 429.73H300.4V484.14H287.02V429.73Z" fill="white"/>
<path opacity="0.3" d="M287.02 498.1H300.4V552.51H287.02V498.1Z" fill="white"/>
<g opacity="0.3">
<path d="M11.2 224.61H24.58V279.02H11.2V224.61Z" fill="white"/>
<path d="M34.19 224.61H47.57V279.02H34.19V224.61Z" fill="white"/>
<path d="M57.17 224.61H70.55V279.02H57.17V224.61Z" fill="white"/>
<path d="M80.16 224.61H93.54V279.02H80.16V224.61Z" fill="white"/>
<path d="M103.14 224.61H116.52V279.02H103.14V224.61Z" fill="white"/>
<path d="M126.13 224.61H139.51V279.02H126.13V224.61Z" fill="white"/>
<path d="M149.11 224.61H162.49V279.02H149.11V224.61Z" fill="white"/>
<path d="M172.09 224.61H185.47V279.02H172.09V224.61Z" fill="white"/>
<path d="M195.08 224.61H208.46V279.02H195.08V224.61Z" fill="white"/>
<path d="M218.07 224.61H231.45V279.02H218.07V224.61Z" fill="white"/>
<path d="M241.05 224.61H254.43V279.02H241.05V224.61Z" fill="white"/>
<path d="M264.04 224.61H277.42V279.02H264.04V224.61Z" fill="white"/>
<path d="M287.02 224.61H300.4V279.02H287.02V224.61Z" fill="white"/>
</g>
<g opacity="0.3">
<path d="M11.2 292.99H24.58V347.4H11.2V292.99Z" fill="white"/>
<path d="M34.19 292.99H47.57V347.4H34.19V292.99Z" fill="white"/>
<path d="M57.17 292.99H70.55V347.4H57.17V292.99Z" fill="white"/>
<path d="M80.16 292.99H93.54V347.4H80.16V292.99Z" fill="white"/>
<path d="M103.14 292.99H116.52V347.4H103.14V292.99Z" fill="white"/>
<path d="M126.13 292.99H139.51V347.4H126.13V292.99Z" fill="white"/>
<path d="M149.11 292.99H162.49V347.4H149.11V292.99Z" fill="white"/>
<path d="M172.09 292.99H185.47V347.4H172.09V292.99Z" fill="white"/>
<path d="M195.08 292.99H208.46V347.4H195.08V292.99Z" fill="white"/>
<path d="M218.07 292.99H231.45V347.4H218.07V292.99Z" fill="white"/>
<path d="M241.05 292.99H254.43V347.4H241.05V292.99Z" fill="white"/>
<path d="M264.04 292.99H277.42V347.4H264.04V292.99Z" fill="white"/>
<path d="M287.02 292.99H300.4V347.4H287.02V292.99Z" fill="white"/>
</g>
<g opacity="0.3">
<path d="M11.2 361.36H24.58V415.77H11.2V361.36Z" fill="white"/>
<path d="M34.19 361.36H47.57V415.77H34.19V361.36Z" fill="white"/>
<path d="M57.17 361.36H70.55V415.77H57.17V361.36Z" fill="white"/>
<path d="M80.16 361.36H93.54V415.77H80.16V361.36Z" fill="white"/>
<path d="M103.14 361.36H116.52V415.77H103.14V361.36Z" fill="white"/>
<path d="M126.13 361.36H139.51V415.77H126.13V361.36Z" fill="white"/>
<path d="M149.11 361.36H162.49V415.77H149.11V361.36Z" fill="white"/>
<path d="M172.09 361.36H185.47V415.77H172.09V361.36Z" fill="white"/>
<path d="M195.08 361.36H208.46V415.77H195.08V361.36Z" fill="white"/>
<path d="M218.07 361.36H231.45V415.77H218.07V361.36Z" fill="white"/>
<path d="M241.05 361.36H254.43V415.77H241.05V361.36Z" fill="white"/>
<path d="M264.04 361.36H277.42V415.77H264.04V361.36Z" fill="white"/>
<path d="M287.02 361.36H300.4V415.77H287.02V361.36Z" fill="white"/>
</g>
<g opacity="0.3">
<path d="M11.2 429.73H24.58V484.14H11.2V429.73Z" fill="white"/>
<path d="M34.19 429.73H47.57V484.14H34.19V429.73Z" fill="white"/>
<path d="M57.17 429.73H70.55V484.14H57.17V429.73Z" fill="white"/>
<path d="M80.16 429.73H93.54V484.14H80.16V429.73Z" fill="white"/>
<path d="M103.14 429.73H116.52V484.14H103.14V429.73Z" fill="white"/>
<path d="M126.13 429.73H139.51V484.14H126.13V429.73Z" fill="white"/>
<path d="M149.11 429.73H162.49V484.14H149.11V429.73Z" fill="white"/>
<path d="M172.09 429.73H185.47V484.14H172.09V429.73Z" fill="white"/>
<path d="M195.08 429.73H208.46V484.14H195.08V429.73Z" fill="white"/>
<path d="M218.07 429.73H231.45V484.14H218.07V429.73Z" fill="white"/>
<path d="M241.05 429.73H254.43V484.14H241.05V429.73Z" fill="white"/>
<path d="M264.04 429.73H277.42V484.14H264.04V429.73Z" fill="white"/>
<path d="M287.02 429.73H300.4V484.14H287.02V429.73Z" fill="white"/>
</g>
<g opacity="0.3">
<path d="M11.2 498.1H24.58V542.96H11.2V498.1Z" fill="white"/>
<path d="M34.19 498.1H47.57V542.96H34.19V498.1Z" fill="white"/>
<path d="M57.17 498.1H70.55V542.96H57.17V498.1Z" fill="white"/>
<path d="M80.16 498.1H93.54V542.96H80.16V498.1Z" fill="white"/>
<path d="M103.14 498.1H116.52V542.96H103.14V498.1Z" fill="white"/>
<path d="M126.13 498.1H139.51V552.51H126.13V498.1Z" fill="white"/>
<path d="M149.11 498.1H162.49V552.51H149.11V498.1Z" fill="white"/>
<path d="M172.09 498.1H185.47V552.51H172.09V498.1Z" fill="white"/>
<path d="M195.08 498.1H208.46V552.51H195.08V498.1Z" fill="white"/>
<path d="M218.07 498.1H231.45V552.51H218.07V498.1Z" fill="white"/>
<path d="M241.05 498.1H254.43V552.51H241.05V498.1Z" fill="white"/>
<path d="M264.04 498.1H277.42V552.51H264.04V498.1Z" fill="white"/>
<path d="M287.02 498.1H300.4V552.51H287.02V498.1Z" fill="white"/>
</g>
<path opacity="0.3" d="M510.62 336.7V456.93H322.08V336.7H356.12V187.22L402.58 121.33L416 139.65L450.83 187.22V336.7H510.62Z" fill="white"/>
<path opacity="0.3" d="M342.45 354.34H490.25V365.11H342.45V354.34Z" fill="white"/>
<path opacity="0.3" d="M342.45 379.07H490.25V389.84H342.45V379.07Z" fill="white"/>
<path opacity="0.3" d="M342.45 403.8H490.25V414.57H342.45V403.8Z" fill="white"/>
<path opacity="0.3" d="M342.45 428.53H490.25V439.3H342.45V428.53Z" fill="white"/>
<path opacity="0.3" d="M402.58 261.96C417.795 261.96 430.13 249.625 430.13 234.41C430.13 219.195 417.795 206.86 402.58 206.86C387.365 206.86 375.03 219.195 375.03 234.41C375.03 249.625 387.365 261.96 402.58 261.96Z" fill="white"/>
<g opacity="0.3">
<path d="M366.96 281.35H375.4V336.7H366.96V281.35Z" fill="white"/>
<path d="M383.11 281.35H391.55V336.7H383.11V281.35Z" fill="white"/>
<path d="M399.25 281.35H407.69V336.7H399.25V281.35Z" fill="white"/>
<path d="M415.4 281.35H423.84V336.7H415.4V281.35Z" fill="white"/>
<path d="M431.55 281.35H439.99V336.7H431.55V281.35Z" fill="white"/>
</g>
<path opacity="0.3" d="M570.84 0H819.6V403.8H570.84V0Z" fill="white"/>
<path opacity="0.3" d="M570.84 0H819.6V21.82H570.84V0Z" fill="white"/>
<g opacity="0.3">
<path d="M593.26 39.93H612.57V403.8H593.26V39.93Z" fill="white"/>
<path d="M624.03 39.93H643.34V403.8H624.03V39.93Z" fill="white"/>
<path d="M654.8 39.93H674.11V403.8H654.8V39.93Z" fill="white"/>
<path d="M685.56 39.93H704.87V403.8H685.56V39.93Z" fill="white"/>
<path d="M716.33 39.93H735.64V403.8H716.33V39.93Z" fill="white"/>
<path d="M747.1 39.93H766.41V403.8H747.1V39.93Z" fill="white"/>
<path d="M777.87 39.93H797.18V403.8H777.87V39.93Z" fill="white"/>
</g>
<g opacity="0.3">
<path d="M884.77 134.42H1020.06V145.19H884.77V134.42Z" fill="white"/>
<path d="M884.77 156.53H1064.43V167.3H884.77V156.53Z" fill="white"/>
<path d="M884.77 178.64H1064.43V189.41H884.77V178.64Z" fill="white"/>
<path d="M884.77 200.75H1064.43V211.52H884.77V200.75Z" fill="white"/>
<path d="M884.77 222.87H1064.43V233.64H884.77V222.87Z" fill="white"/>
<path d="M884.77 244.98H1064.43V255.75H884.77V244.98Z" fill="white"/>
<path d="M884.77 267.09H1064.43V277.86H884.77V267.09Z" fill="white"/>
<path d="M884.77 289.2H1064.43V299.97H884.77V289.2Z" fill="white"/>
<path d="M884.77 311.31H1064.43V322.08H884.77V311.31Z" fill="white"/>
<path d="M884.77 333.43H1064.43V344.2H884.77V333.43Z" fill="white"/>
<path d="M884.77 355.54H1064.43V366.31H884.77V355.54Z" fill="white"/>
<path d="M884.77 377.65H1064.43V388.42H884.77V377.65Z" fill="white"/>
<path d="M884.77 399.76H1064.43V410.53H884.77V399.76Z" fill="white"/>
<path d="M884.77 421.87H1064.43V432.64H884.77V421.87Z" fill="white"/>
<path d="M884.77 443.99H1064.43V454.76H884.77V443.99Z" fill="white"/>
<path d="M884.77 466.1H1064.43V476.87H884.77V466.1Z" fill="white"/>
<path d="M884.77 488.21H1064.43V498.98H884.77V488.21Z" fill="white"/>
<path d="M884.77 510.32H1064.43V521.09H884.77V510.32Z" fill="white"/>
<path d="M884.77 532.43H1064.43V543.2H884.77V532.43Z" fill="white"/>
</g>
<path opacity="0.3" d="M1097.16 558.62H852.33V48.01L1097.16 137.04V558.62Z" fill="white"/>
<path opacity="0.15" d="M570.84 163.65V365.1H510.62V336.7H450.83V187.22L416 139.65H490.24V259.92H548.58V163.65H570.84Z" fill="white"/>
<path opacity="0.15" d="M356.12 320.19V336.7H322.08V442.53H311.61V320.19H356.12Z" fill="white"/>
<path opacity="0.3" d="M80.16 173.99H231.45V194.94H80.16V173.99Z" fill="white"/>
</g>
<path opacity="0.2" d="M1083.42 644.09C1083.42 672.57 946.05 705.45 785.84 705.45C646.07 705.45 529.39 687.9 501.84 664.45C228.94 663.2 13.69 648.9 13.69 631.45C13.69 613.16 249.6 598.34 540.6 598.34C635.25 598.34 724.06 599.91 800.82 602.66H800.88C909.49 606.54 993.97 612.78 1036.72 620.27C1045.89 621.983 1054.91 624.383 1063.72 627.45H1063.79C1076.45 632.15 1083.42 637.62 1083.42 644.09Z" fill="#275773"/>
<path opacity="0.2" d="M789.94 689.14C638.29 689.14 533.06 668.53 511.05 649.14L510.74 648.86C509.023 647.349 506.817 646.511 504.53 646.5C379.91 645.91 262.09 642.44 172.77 636.73C154.84 635.58 139.03 634.41 125.09 633.25C119.21 632.75 119.2 624.15 125.09 623.66C142.36 622.2 162.49 620.75 185.95 619.35C283.69 613.51 410.65 610.35 543.46 610.35C635.25 610.35 725.6 611.9 804.74 614.84H804.96C914.59 618.87 998.22 625.32 1040.5 632.97C1049.18 634.649 1057.72 636.989 1066.05 639.97L1067.05 640.35H1067.11C1067.59 640.539 1068.01 640.861 1068.31 641.278C1068.61 641.694 1068.79 642.189 1068.83 642.704C1068.86 643.218 1068.75 643.732 1068.5 644.184C1068.25 644.637 1067.88 645.01 1067.43 645.26C1055.1 652.17 1030.72 661.85 986.98 670.83C929.65 682.66 859.67 689.14 789.94 689.14Z" fill="#275773"/>
<path d="M1050.45 443.53V501.74C1050.45 518.74 1041.59 531.22 1033.09 539.24C1028.49 543.601 1023.31 547.303 1017.69 550.24H1009.51V536.83H990.85C990.85 536.27 990.85 535.71 990.85 535.15C990.866 511.026 981.937 487.753 965.788 469.831C949.639 451.909 927.418 440.612 903.423 438.124C879.427 435.636 855.362 442.134 835.88 456.362C816.398 470.589 802.883 491.536 797.95 515.15V515.25C797.117 519.276 796.539 523.351 796.22 527.45C796.027 529.99 795.93 532.557 795.93 535.15H795.12L787.28 535.59V536.59C787.275 538.473 786.873 540.333 786.1 542.05C785.059 544.302 783.398 546.212 781.312 547.556C779.226 548.9 776.801 549.622 774.32 549.64C770.78 549.64 765.23 549.71 758 549.74C689.67 550.18 470.4 551.56 362 552.2L332.81 552.36L316.03 552.47C317.059 546.724 317.578 540.898 317.58 535.06C317.71 522.178 315.286 509.397 310.446 497.458C305.607 485.518 298.448 474.657 289.385 465.501C280.321 456.345 269.533 449.077 257.643 444.117C245.753 439.157 232.998 436.603 220.115 436.603C207.232 436.603 194.477 439.157 182.587 444.117C170.697 449.077 159.909 456.345 150.845 465.501C141.782 474.657 134.623 485.518 129.784 497.458C124.944 509.397 122.519 522.178 122.65 535.06V535.96H105.96V549.17C105.957 550.01 105.668 550.824 105.141 551.479C104.614 552.133 103.88 552.588 103.06 552.77C102.261 552.949 101.425 552.861 100.68 552.52C92.5667 548.822 84.7268 544.551 77.22 539.74C25.02 505.74 28.67 463.09 44.79 429.47C49.4267 419.976 54.9406 410.937 61.26 402.47C63.4301 399.517 65.7532 396.68 68.22 393.97C83.2122 377.457 102.791 365.793 124.45 360.47C168.89 349.47 233.45 341.37 259.78 338.33L260.9 338.19C268.199 337.233 275.254 334.916 281.7 331.36C342.12 298 420.29 267.73 464.84 251.54C566.16 217.54 939.34 241.21 945.32 251.27C946.2 252.75 948.44 252.56 949.5 253.8C950.575 255.082 951.215 256.671 951.33 258.34V258.81C951.328 259.876 951.107 260.931 950.68 261.908C950.253 262.885 949.63 263.764 948.85 264.49C948.204 265.083 947.705 265.818 947.392 266.637C947.079 267.456 946.96 268.337 947.045 269.209C947.131 270.082 947.418 270.923 947.884 271.666C948.349 272.409 948.982 273.033 949.73 273.49C1008.32 310.37 1028.45 363.92 1034.27 384.49C1035.65 389.371 1036.34 394.419 1036.34 399.49V429.55C1036.34 430.408 1036.68 431.23 1037.29 431.837C1037.89 432.445 1038.71 432.787 1039.57 432.79C1040.99 432.781 1042.4 433.051 1043.71 433.586C1045.03 434.121 1046.22 434.909 1047.23 435.907C1048.24 436.904 1049.05 438.09 1049.6 439.398C1050.15 440.706 1050.44 442.11 1050.45 443.53Z" fill="#691032"/>
<path opacity="0.4" d="M783.4 407.44C784.691 407.444 785.951 407.839 787.013 408.574C788.074 409.309 788.888 410.348 789.346 411.555C789.805 412.762 789.886 414.08 789.58 415.334C789.273 416.589 788.593 417.72 787.63 418.58C773.828 431.054 762.338 445.868 753.69 462.34C750.904 467.685 748.692 473.31 747.09 479.12C746.258 482.223 744.433 484.968 741.895 486.936C739.356 488.905 736.242 489.988 733.03 490.02C687.54 490.31 623.58 490.68 559.32 491.02L382.45 492.02C379.397 492.031 376.417 491.092 373.923 489.332C371.428 487.572 369.543 485.08 368.53 482.2C359.816 457.783 345.198 435.9 325.98 418.5C325.045 417.634 324.391 416.508 324.102 415.266C323.813 414.025 323.902 412.726 324.358 411.535C324.814 410.345 325.617 409.319 326.661 408.589C327.706 407.859 328.946 407.459 330.22 407.44H783.4Z" fill="#E10A3C"/>
<path d="M220.09 392.23C182.194 392.243 145.854 407.307 119.063 434.108C92.2707 460.909 77.22 497.254 77.22 535.15C77.22 536.683 77.25 538.213 77.31 539.74C84.8013 544.58 92.6277 548.881 100.73 552.61C101.475 552.951 102.311 553.039 103.11 552.86C103.93 552.678 104.664 552.223 105.191 551.569C105.718 550.914 106.007 550.1 106.01 549.26V536.05H122.69C122.69 535.75 122.69 535.45 122.69 535.15C122.559 522.268 124.984 509.487 129.824 497.548C134.663 485.608 141.822 474.747 150.885 465.591C159.949 456.435 170.737 449.167 182.627 444.207C194.517 439.247 207.272 436.693 220.155 436.693C233.038 436.693 245.793 439.247 257.683 444.207C269.573 449.167 280.361 456.435 289.425 465.591C298.488 474.747 305.647 485.608 310.486 497.548C315.326 509.487 317.75 522.268 317.62 535.15C317.618 540.988 317.1 546.814 316.07 552.56L332.85 552.45L362.04 552.29C362.722 546.602 363.056 540.878 363.04 535.15C363.04 516.379 359.342 497.792 352.158 480.45C344.974 463.108 334.444 447.351 321.169 434.08C307.895 420.808 292.136 410.281 274.792 403.101C257.449 395.92 238.861 392.226 220.09 392.23Z" fill="#E10A3C"/>
<path d="M220.09 421.14C189.855 421.14 160.859 433.151 139.48 454.53C118.101 475.909 106.09 504.905 106.09 535.14V536.04H122.63C122.63 535.74 122.63 535.44 122.63 535.14C122.499 522.258 124.924 509.477 129.764 497.538C134.603 485.598 141.762 474.737 150.825 465.581C159.889 456.425 170.677 449.157 182.567 444.197C194.457 439.237 207.212 436.683 220.095 436.683C232.978 436.683 245.733 439.237 257.623 444.197C269.513 449.157 280.301 456.425 289.365 465.581C298.428 474.737 305.587 485.598 310.426 497.538C315.266 509.477 317.69 522.258 317.56 535.14C317.558 540.978 317.04 546.804 316.01 552.55L332.79 552.44C333.655 546.714 334.089 540.931 334.09 535.14C334.09 504.905 322.079 475.909 300.7 454.53C279.321 433.151 250.325 421.14 220.09 421.14Z" fill="#121C33"/>
<path d="M1033.15 535.15C1033.15 536.51 1033.15 537.88 1033.09 539.24C1028.49 543.601 1023.31 547.303 1017.69 550.24H1009.51V536.83H990.85C990.85 536.27 990.85 535.71 990.85 535.15C990.85 509.299 980.581 484.507 962.302 466.228C944.022 447.949 919.231 437.68 893.38 437.68C867.529 437.68 842.737 447.949 824.458 466.228C806.179 484.507 795.91 509.299 795.91 535.15L787.26 535.63V536.63C787.255 538.513 786.852 540.373 786.08 542.09C785.039 544.342 783.378 546.252 781.292 547.596C779.206 548.94 776.781 549.663 774.3 549.68C770.76 549.68 765.21 549.75 757.98 549.78C757.452 544.905 757.192 540.004 757.2 535.1C757.953 499.006 772.819 464.645 798.612 439.385C824.404 414.124 859.068 399.977 895.17 399.977C931.272 399.977 965.936 414.124 991.728 439.385C1017.52 464.645 1032.39 499.006 1033.14 535.1L1033.15 535.15Z" fill="#E10A3C"/>
<path d="M990.85 536.83C990.85 536.27 990.85 535.71 990.85 535.15C990.85 509.299 980.581 484.507 962.302 466.228C944.022 447.949 919.231 437.68 893.38 437.68C867.529 437.68 842.737 447.949 824.458 466.228C806.179 484.507 795.91 509.299 795.91 535.15L787.26 535.63C787.26 471.12 828.87 420.1 893.38 420.1C957.89 420.1 1009.5 472.3 1009.5 536.8L990.85 536.83Z" fill="#121C33"/>
<path d="M102.22 392.97C76.17 405.73 60.52 421.03 53.22 429.51H44.88C49.5167 420.016 55.0307 410.977 61.35 402.51C63.4898 399.546 65.7829 396.695 68.22 393.97H100.15L102.22 392.97Z" fill="#1C2C50"/>
<path d="M1036.41 399.46V426.82C1030.15 424.88 1022.91 419.31 1018.67 404.9C1013.12 386.02 993.98 376.02 981.06 371.29C978.764 370.433 976.842 368.798 975.629 366.669C974.415 364.54 973.988 362.052 974.422 359.64C974.855 357.228 976.121 355.045 978 353.472C979.878 351.898 982.249 351.034 984.7 351.03C985.862 351.029 987.016 351.229 988.11 351.62C1011.29 359.78 1025.56 372.11 1034.34 384.46C1034.35 384.513 1034.36 384.563 1034.39 384.61C1035.49 388.524 1036.14 392.55 1036.33 396.61C1036.38 397.53 1036.41 398.5 1036.41 399.46Z" fill="#D0504F"/>
<path d="M1036.41 399.46V426.82C1030.15 424.88 1022.91 419.31 1018.67 404.9C1013.12 386.02 993.98 376.02 981.06 371.29C979.972 370.886 978.958 370.305 978.06 369.57C978.16 369.36 978.28 369.17 978.39 368.98C979.625 366.939 981.524 365.385 983.769 364.576C986.013 363.768 988.467 363.755 990.72 364.54C1013.38 372.54 1027.53 384.54 1036.35 396.54C1036.38 397.53 1036.41 398.5 1036.41 399.46Z" fill="#D06D6C"/>
<path d="M902.85 262.53C893.255 286.464 876.031 306.562 853.85 319.71C837.99 329.22 821.32 334.55 807.01 337.53C785.38 342.03 769.14 341.12 769.14 341.12L637.47 345.79L613.32 346.64L598.75 347.23L337.5 357.67C337.5 357.67 423.24 247.67 618.88 245.67C622.48 245.62 626.14 245.62 629.82 245.67C634.54 245.67 639.207 245.67 643.82 245.67C690.73 245.93 732.15 247.43 767.33 249.45C780.57 250.217 792.903 251.04 804.33 251.92C867.8 256.72 902.85 262.53 902.85 262.53Z" fill="#1C2C50" stroke="#275773" stroke-width="2" stroke-linecap="round" stroke-linejoin="round"/>
<path opacity="0.6" d="M376.98 340.74C388.708 331.178 401.121 322.488 414.12 314.74C454.22 290.77 522.22 261.97 619.04 260.97H624.7H629.7H629.86C634.527 260.97 639.16 260.97 643.76 260.97C685.76 261.2 727.03 262.46 766.48 264.73C779.15 265.46 791.48 266.29 803.24 267.18C837.09 269.73 862.82 272.59 879.24 274.67C870.717 287.688 859.322 298.577 845.93 306.5C832.901 314.151 818.68 319.56 803.86 322.5C793.664 324.648 783.279 325.77 772.86 325.85C770.98 325.85 769.92 325.79 769.91 325.79H769.25L612.74 331.33L598.09 331.92L376.98 340.74Z" fill="#691032"/>
<path d="M643.81 245.68L637.43 345.79L613.28 346.64L598.71 347.23L618.88 245.65C622.48 245.6 626.14 245.6 629.82 245.65C634.54 245.643 639.203 245.653 643.81 245.68Z" fill="#2F698A"/>
<path d="M806.97 337.53L808.74 311.13L767.32 249.46C780.56 250.227 792.893 251.05 804.32 251.93L853.76 319.71C837.95 329.22 821.28 334.55 806.97 337.53Z" fill="#2F698A"/>
<path opacity="0.3" d="M788.72 515.21C787.747 521.983 787.262 528.817 787.27 535.66V536.66C787.265 538.539 786.863 540.397 786.09 542.11C785.047 544.362 783.386 546.271 781.301 547.617C779.216 548.962 776.792 549.688 774.31 549.71L757.99 549.81C689.66 550.24 470.39 551.62 361.99 552.26L332.8 552.43C333.664 546.701 334.099 540.914 334.1 535.12C334.107 528.841 333.589 522.572 332.55 516.38L788.72 515.21Z" fill="#306A8B"/>
<path opacity="0.3" d="M629.78 246.82C609.35 352.49 604.7 447.82 619.39 545.38" stroke="#691032" stroke-width="2" stroke-linecap="round" stroke-linejoin="round"/>
<path opacity="0.3" d="M788.09 252.07L838.92 336.56C848.118 351.844 850.89 370.148 846.63 387.47L833.69 440.03" stroke="#691032" stroke-width="2" stroke-linecap="round" stroke-linejoin="round"/>
<path opacity="0.3" d="M307.98 341.9L267.72 360.97C259.111 364.052 250.191 366.188 241.12 367.34L132.39 383.08" stroke="#691032" stroke-width="2" stroke-linecap="round" stroke-linejoin="round"/>
<path d="M464.89 261.71C440.55 272.27 381.07 299.6 307.63 344.3C304.793 346.034 301.602 347.106 298.293 347.437C294.985 347.768 291.644 347.348 288.52 346.21C283.68 344.44 277.3 342.31 269.96 340.35C269.513 340.235 269.115 339.976 268.828 339.614C268.541 339.252 268.381 338.806 268.371 338.344C268.36 337.882 268.501 337.43 268.772 337.055C269.043 336.681 269.428 336.405 269.87 336.27C273.989 335.067 277.963 333.414 281.72 331.34C342.14 297.98 420.31 267.71 464.86 251.52C465.852 251.95 466.698 252.66 467.293 253.563C467.887 254.467 468.206 255.524 468.209 256.605C468.212 257.687 467.9 258.746 467.311 259.652C466.721 260.559 465.88 261.274 464.89 261.71Z" fill="#1C2C50"/>
<path d="M144.95 398.97C120.2 408.21 105.1 422.69 100.38 427.7C99.8547 428.261 99.2198 428.709 98.5145 429.015C97.8093 429.321 97.0488 429.48 96.28 429.48H53.22C60.55 421.01 76.22 405.7 102.22 392.95H102.29C110.67 388.846 119.336 385.354 128.22 382.5C129.526 382.079 130.905 381.933 132.27 382.073C133.635 382.212 134.956 382.633 136.15 383.31L142.78 387.09L145.78 388.82C146.709 389.35 147.467 390.134 147.966 391.08C148.464 392.025 148.683 393.094 148.596 394.159C148.509 395.225 148.119 396.244 147.474 397.096C146.828 397.948 145.952 398.598 144.95 398.97Z" fill="#D0504F"/>
<path opacity="0.3" d="M337.5 357.67C329.79 402.67 334.88 457.4 345.43 516.37" stroke="#691032" stroke-width="2" stroke-linecap="round" stroke-linejoin="round"/>
<path d="M391.82 365.64H344.82C343.425 365.642 342.051 365.299 340.821 364.641C339.591 363.983 338.543 363.03 337.771 361.869C336.999 360.707 336.526 359.373 336.395 357.984C336.264 356.595 336.479 355.196 337.02 353.91C337.906 351.902 338.98 349.984 340.23 348.18C344.14 342.48 349.86 336.87 354.36 332.85C358.621 329.055 363.987 326.727 369.67 326.21L384.77 324.83C386.838 324.636 388.91 325.156 390.64 326.304C392.371 327.452 393.656 329.159 394.28 331.14C395.28 334.3 396.48 338.81 397.87 345.2C398.1 346.2 398.28 347.2 398.42 348.2C400.63 363.2 391.82 365.64 391.82 365.64Z" fill="#E10A3C"/>
<path d="M575.22 383.15H528.98C533.44 378.52 542.12 375.39 552.09 375.39C562.06 375.39 570.76 378.52 575.22 383.15Z" fill="#E10A3C"/>
<path d="M575.82 396.59C571.6 401.59 562.56 405.03 552.09 405.03C541.62 405.03 532.58 401.58 528.37 396.59H575.82Z" fill="#E10A3C"/>
<path d="M810.39 379.27H764.16C768.62 374.64 777.3 371.51 787.27 371.51C797.24 371.51 805.94 374.64 810.39 379.27Z" fill="#E10A3C"/>
<path d="M811 392.71C806.78 397.71 797.74 401.15 787.27 401.15C776.8 401.15 767.77 397.7 763.55 392.71H811Z" fill="#E10A3C"/>
<path d="M144.95 398.97C120.2 408.21 105.1 422.69 100.38 427.7C99.8547 428.261 99.2198 428.709 98.5146 429.015C97.8093 429.321 97.0488 429.48 96.28 429.48H77.48C86.53 418.07 110.48 391.83 142.74 387.1L145.74 388.83C146.667 389.358 147.425 390.138 147.924 391.08C148.424 392.022 148.646 393.087 148.563 394.151C148.48 395.214 148.096 396.232 147.457 397.085C146.817 397.939 145.947 398.592 144.95 398.97Z" fill="#D06D6C"/>
<path d="M398.44 348.18H340.22C344.13 342.48 349.85 336.87 354.35 332.85C358.611 329.055 363.977 326.727 369.66 326.21L384.76 324.83C386.828 324.636 388.9 325.156 390.63 326.304C392.361 327.452 393.646 329.159 394.27 331.14C395.27 334.3 396.47 338.81 397.86 345.2C398.12 346.24 398.3 347.24 398.44 348.18Z" fill="#AB032A"/>
<path d="M893.39 435.97C867.09 435.981 841.87 446.434 823.274 465.031C804.678 483.629 794.228 508.85 794.22 535.15C794.233 561.453 804.692 586.673 823.296 605.266C841.901 623.859 867.128 634.303 893.43 634.3H896.54C922.002 633.505 946.183 622.944 964.07 604.805C981.958 586.667 992.18 562.341 992.62 536.87C992.62 536.3 992.62 535.73 992.62 535.16C992.617 522.132 990.049 509.231 985.06 497.196C980.072 485.16 972.762 474.224 963.548 465.014C954.334 455.803 943.395 448.498 931.358 443.514C919.32 438.531 906.418 435.967 893.39 435.97Z" fill="#1F465C"/>
<path opacity="0.3" d="M893.39 435.97C891.39 435.97 889.45 435.97 887.49 436.15C912.729 437.654 936.442 448.738 953.783 467.138C971.123 485.539 980.784 509.866 980.79 535.15V536.86C980.36 561.85 970.51 585.757 953.212 603.798C935.913 621.838 912.44 632.682 887.49 634.16C889.49 634.29 891.42 634.34 893.4 634.34H896.51C921.972 633.545 946.153 622.984 964.04 604.845C981.928 586.707 992.15 562.381 992.59 536.91C992.59 536.34 992.59 535.77 992.59 535.2C992.593 522.171 990.029 509.269 985.045 497.23C980.061 485.192 972.754 474.253 963.543 465.039C954.331 455.824 943.394 448.514 931.358 443.527C919.321 438.539 906.419 435.971 893.39 435.97Z" fill="#121C33"/>
<path d="M893.39 599.48C880.665 599.478 868.226 595.703 857.646 588.631C847.067 581.56 838.822 571.51 833.954 559.753C829.086 547.995 827.814 535.058 830.298 522.578C832.783 510.098 838.912 498.634 847.912 489.638C856.911 480.641 868.377 474.515 880.858 472.034C893.339 469.554 906.275 470.83 918.031 475.701C929.787 480.573 939.834 488.821 946.902 499.403C953.97 509.985 957.742 522.425 957.74 535.15C957.735 552.213 950.953 568.576 938.885 580.639C926.818 592.703 910.453 599.48 893.39 599.48Z" fill="white"/>
<path d="M893.39 541.14C896.704 541.14 899.39 538.454 899.39 535.14C899.39 531.826 896.704 529.14 893.39 529.14C890.076 529.14 887.39 531.826 887.39 535.14C887.39 538.454 890.076 541.14 893.39 541.14Z" fill="#A6A6A6"/>
<path d="M893.39 522.39C895.119 522.39 896.52 520.989 896.52 519.26C896.52 517.531 895.119 516.13 893.39 516.13C891.661 516.13 890.26 517.531 890.26 519.26C890.26 520.989 891.661 522.39 893.39 522.39Z" fill="#275773"/>
<path d="M878.46 532.84C880.189 532.84 881.59 531.439 881.59 529.71C881.59 527.981 880.189 526.58 878.46 526.58C876.731 526.58 875.33 527.981 875.33 529.71C875.33 531.439 876.731 532.84 878.46 532.84Z" fill="#275773"/>
<path d="M883.18 550.44C884.909 550.44 886.31 549.039 886.31 547.31C886.31 545.581 884.909 544.18 883.18 544.18C881.451 544.18 880.05 545.581 880.05 547.31C880.05 549.039 881.451 550.44 883.18 550.44Z" fill="#275773"/>
<path d="M901.33 552.03C903.059 552.03 904.46 550.629 904.46 548.9C904.46 547.171 903.059 545.77 901.33 545.77C899.601 545.77 898.2 547.171 898.2 548.9C898.2 550.629 899.601 552.03 901.33 552.03Z" fill="#275773"/>
<path d="M909.03 535.52C910.759 535.52 912.16 534.119 912.16 532.39C912.16 530.661 910.759 529.26 909.03 529.26C907.301 529.26 905.9 530.661 905.9 532.39C905.9 534.119 907.301 535.52 909.03 535.52Z" fill="#275773"/>
<path d="M853.67 501.34C858.922 494.249 866.141 488.856 874.43 485.83C875.162 485.549 875.946 485.426 876.729 485.469C877.512 485.512 878.278 485.72 878.975 486.08C879.672 486.44 880.285 486.943 880.773 487.556C881.262 488.17 881.615 488.88 881.81 489.64C883.414 496.327 883.656 503.268 882.52 510.05C882.305 511.418 881.596 512.659 880.527 513.538C879.458 514.417 878.103 514.873 876.72 514.82C869.453 514.542 862.314 512.818 855.72 509.75C854.973 509.393 854.314 508.873 853.792 508.23C853.27 507.587 852.897 506.836 852.701 506.031C852.505 505.226 852.49 504.388 852.658 503.576C852.825 502.765 853.171 502.001 853.67 501.34Z" fill="#275773"/>
<path d="M848.04 560.9C843.174 553.543 840.573 544.92 840.56 536.1C840.546 535.315 840.699 534.536 841.008 533.814C841.316 533.092 841.774 532.443 842.351 531.911C842.928 531.378 843.611 530.974 844.355 530.724C845.1 530.474 845.888 530.384 846.67 530.46C853.502 531.237 860.106 533.383 866.09 536.77C867.301 537.439 868.225 538.53 868.686 539.835C869.147 541.14 869.113 542.568 868.59 543.85C865.847 550.582 861.792 556.701 856.66 561.85C856.067 562.431 855.353 562.874 854.569 563.145C853.785 563.416 852.95 563.51 852.125 563.419C851.3 563.328 850.505 563.055 849.799 562.619C849.092 562.184 848.492 561.596 848.04 560.9Z" fill="#275773"/>
<path d="M902.08 586.57C893.503 588.628 884.511 588.121 876.22 585.11C875.477 584.856 874.796 584.447 874.222 583.91C873.648 583.373 873.195 582.721 872.892 581.996C872.588 581.271 872.442 580.491 872.463 579.705C872.483 578.92 872.669 578.148 873.01 577.44C876.08 571.289 880.355 565.818 885.58 561.35C886.624 560.442 887.964 559.947 889.348 559.96C890.732 559.973 892.063 560.492 893.09 561.42C898.465 566.302 902.815 572.202 905.89 578.78C906.236 579.534 906.411 580.356 906.401 581.186C906.391 582.016 906.197 582.833 905.832 583.578C905.467 584.324 904.941 584.979 904.293 585.496C903.644 586.014 902.888 586.38 902.08 586.57Z" fill="#275773"/>
<path d="M944.69 544.56C943.684 553.325 940.131 561.603 934.47 568.37C933.976 568.98 933.359 569.479 932.659 569.834C931.959 570.189 931.192 570.391 930.407 570.428C929.623 570.465 928.84 570.335 928.11 570.048C927.38 569.76 926.719 569.321 926.17 568.76C921.432 563.775 917.752 557.884 915.35 551.44C914.86 550.153 914.857 548.732 915.341 547.443C915.826 546.154 916.764 545.086 917.98 544.44C924.402 541.06 931.431 538.99 938.66 538.35C939.485 538.281 940.315 538.396 941.09 538.687C941.865 538.977 942.566 539.436 943.143 540.029C943.72 540.623 944.158 541.338 944.425 542.121C944.693 542.905 944.783 543.737 944.69 544.56Z" fill="#275773"/>
<path d="M919.78 490.16C927.675 494.101 934.239 500.273 938.66 507.91C939.064 508.582 939.322 509.333 939.416 510.111C939.509 510.89 939.437 511.68 939.204 512.429C938.97 513.178 938.581 513.869 938.062 514.457C937.542 515.045 936.905 515.516 936.19 515.84C929.876 518.583 923.074 520.025 916.19 520.08C914.807 520.107 913.462 519.625 912.411 518.725C911.36 517.826 910.676 516.571 910.49 515.2C909.508 508.011 909.967 500.699 911.84 493.69C912.058 492.887 912.451 492.142 912.993 491.51C913.534 490.878 914.21 490.375 914.97 490.036C915.731 489.698 916.557 489.534 917.389 489.555C918.221 489.577 919.038 489.783 919.78 490.16Z" fill="#275773"/>
<path d="M220.08 633.26C200.674 633.256 181.705 627.498 165.572 616.713C149.439 605.929 136.865 590.603 129.442 572.673C122.019 554.743 120.079 535.014 123.869 515.982C127.658 496.949 137.005 479.468 150.729 465.748C164.453 452.028 181.938 442.686 200.971 438.903C220.005 435.119 239.733 437.065 257.66 444.494C275.588 451.922 290.911 464.5 301.69 480.637C312.47 496.773 318.222 515.744 318.22 535.15C318.22 548.037 315.681 560.797 310.749 572.702C305.817 584.607 298.587 595.424 289.474 604.535C280.36 613.646 269.541 620.872 257.634 625.8C245.728 630.729 232.967 633.264 220.08 633.26Z" fill="#1F465C"/>
<path opacity="0.3" d="M220.09 437.02C218.09 437.02 216.19 437.07 214.26 437.2C237.856 438.597 260.154 448.466 277.055 464.99C293.957 481.515 304.324 503.586 306.253 527.144C308.181 550.703 301.54 574.165 287.551 593.218C273.562 612.272 253.165 625.634 230.11 630.85H230.01C225.38 631.91 220.677 632.619 215.94 632.97C217.75 633.13 219.52 633.22 221.26 633.26C228.131 633.188 234.975 632.394 241.68 630.89H241.78C260.546 626.625 277.647 616.942 290.959 603.043C304.27 589.145 313.207 571.643 316.66 552.71C317.696 546.914 318.218 541.038 318.22 535.15C318.221 522.263 315.684 509.502 310.753 497.596C305.822 485.689 298.594 474.871 289.481 465.759C280.369 456.646 269.551 449.418 257.644 444.487C245.738 439.556 232.977 437.019 220.09 437.02Z" fill="#121C33"/>
<path d="M220.09 598.78C207.503 598.778 195.2 595.044 184.735 588.049C174.271 581.055 166.115 571.114 161.3 559.485C156.486 547.855 155.227 535.059 157.685 522.715C160.142 510.37 166.205 499.031 175.107 490.133C184.008 481.234 195.349 475.174 207.694 472.721C220.04 470.267 232.835 471.53 244.463 476.348C256.091 481.167 266.029 489.325 273.02 499.792C280.011 510.258 283.742 522.563 283.74 535.15C283.74 543.508 282.093 551.784 278.895 559.505C275.696 567.226 271.007 574.241 265.096 580.15C259.185 586.059 252.169 590.746 244.446 593.942C236.724 597.139 228.448 598.783 220.09 598.78Z" fill="white"/>
<path d="M220.09 541.07C223.365 541.07 226.02 538.415 226.02 535.14C226.02 531.865 223.365 529.21 220.09 529.21C216.815 529.21 214.16 531.865 214.16 535.14C214.16 538.415 216.815 541.07 220.09 541.07Z" fill="#A6A6A6"/>
<path d="M220.09 522.52C221.797 522.52 223.18 521.137 223.18 519.43C223.18 517.723 221.797 516.34 220.09 516.34C218.383 516.34 217 517.723 217 519.43C217 521.137 218.383 522.52 220.09 522.52Z" fill="#275773"/>
<path d="M205.33 532.86C207.037 532.86 208.42 531.477 208.42 529.77C208.42 528.063 207.037 526.68 205.33 526.68C203.623 526.68 202.24 528.063 202.24 529.77C202.24 531.477 203.623 532.86 205.33 532.86Z" fill="#275773"/>
<path d="M209.99 550.27C211.697 550.27 213.08 548.887 213.08 547.18C213.08 545.473 211.697 544.09 209.99 544.09C208.283 544.09 206.9 545.473 206.9 547.18C206.9 548.887 208.283 550.27 209.99 550.27Z" fill="#275773"/>
<path d="M227.95 551.84C229.657 551.84 231.04 550.457 231.04 548.75C231.04 547.043 229.657 545.66 227.95 545.66C226.243 545.66 224.86 547.043 224.86 548.75C224.86 550.457 226.243 551.84 227.95 551.84Z" fill="#275773"/>
<path d="M235.57 535.51C237.277 535.51 238.66 534.127 238.66 532.42C238.66 530.713 237.277 529.33 235.57 529.33C233.863 529.33 232.48 530.713 232.48 532.42C232.48 534.127 233.863 535.51 235.57 535.51Z" fill="#275773"/>
<path d="M180.81 501.71C186.001 494.694 193.14 489.359 201.34 486.37C202.064 486.092 202.84 485.97 203.614 486.013C204.389 486.055 205.146 486.262 205.836 486.618C206.525 486.974 207.131 487.472 207.615 488.079C208.098 488.686 208.448 489.388 208.64 490.14C210.231 496.751 210.469 503.615 209.34 510.32C209.13 511.673 208.43 512.901 207.374 513.771C206.317 514.641 204.978 515.093 203.61 515.04C196.437 514.764 189.39 513.065 182.88 510.04C182.136 509.691 181.479 509.18 180.957 508.544C180.435 507.909 180.061 507.166 179.863 506.368C179.665 505.57 179.647 504.738 179.811 503.932C179.974 503.126 180.316 502.367 180.81 501.71Z" fill="#275773"/>
<path d="M175.22 560.62C170.405 553.344 167.831 544.815 167.82 536.09C167.806 535.317 167.954 534.549 168.256 533.838C168.559 533.126 169.007 532.486 169.573 531.96C170.14 531.433 170.81 531.032 171.542 530.782C172.274 530.532 173.05 530.439 173.82 530.51C180.579 531.276 187.114 533.402 193.03 536.76C194.23 537.419 195.145 538.497 195.601 539.789C196.057 541.08 196.021 542.494 195.5 543.76C192.784 550.404 188.773 556.441 183.7 561.52C183.118 562.09 182.417 562.524 181.647 562.792C180.877 563.059 180.058 563.153 179.248 563.067C178.438 562.981 177.657 562.717 176.96 562.294C176.264 561.871 175.67 561.299 175.22 560.62Z" fill="#275773"/>
<path d="M228.69 585.97C220.206 588.004 211.31 587.5 203.11 584.52C202.375 584.269 201.702 583.865 201.135 583.334C200.568 582.804 200.12 582.159 199.82 581.443C199.52 580.727 199.376 579.955 199.397 579.179C199.418 578.402 199.603 577.639 199.94 576.94C202.97 570.854 207.198 565.443 212.37 561.03C213.402 560.129 214.729 559.639 216.098 559.652C217.468 559.665 218.785 560.18 219.8 561.1C225.111 565.926 229.41 571.759 232.45 578.26C232.795 579.005 232.97 579.818 232.962 580.64C232.954 581.461 232.763 582.27 232.403 583.009C232.043 583.747 231.523 584.396 230.88 584.908C230.238 585.42 229.49 585.783 228.69 585.97Z" fill="#275773"/>
<path d="M270.83 544.46C269.832 553.117 266.317 561.291 260.72 567.97C260.233 568.574 259.624 569.069 258.932 569.42C258.24 569.771 257.481 569.971 256.706 570.007C255.93 570.043 255.156 569.914 254.435 569.628C253.713 569.342 253.061 568.907 252.52 568.35C247.834 563.418 244.191 557.592 241.81 551.22C241.317 549.943 241.31 548.529 241.792 547.248C242.273 545.966 243.208 544.907 244.42 544.27C250.772 540.936 257.723 538.896 264.87 538.27C265.69 538.2 266.516 538.314 267.287 538.603C268.058 538.893 268.754 539.351 269.326 539.944C269.897 540.537 270.328 541.251 270.589 542.032C270.849 542.813 270.931 543.643 270.83 544.46Z" fill="#275773"/>
<path d="M246.22 490.65C254.029 494.543 260.522 500.646 264.89 508.2C265.291 508.866 265.546 509.609 265.639 510.38C265.731 511.151 265.66 511.934 265.428 512.675C265.197 513.417 264.811 514.101 264.296 514.683C263.781 515.265 263.148 515.731 262.44 516.05C256.207 518.767 249.489 520.195 242.69 520.25C241.322 520.275 239.992 519.797 238.952 518.907C237.913 518.017 237.236 516.776 237.05 515.42C236.079 508.308 236.535 501.074 238.39 494.14C238.605 493.348 238.993 492.613 239.527 491.99C240.061 491.366 240.727 490.87 241.476 490.535C242.226 490.201 243.04 490.038 243.861 490.058C244.682 490.078 245.487 490.28 246.22 490.65Z" fill="#275773"/>
<path d="M723.6 101.19C723.86 105.29 723.2 110.42 719.38 111.83C720.38 112.88 723.57 157.08 708.38 157.08L711.88 167.47L719.56 199.36L706.11 206.69L676.76 200.23L654.76 178.86L660.76 161.96C660.76 161.96 680.07 154.41 675.24 133.87C675.165 133.567 675.001 133.294 674.769 133.086C674.538 132.877 674.249 132.743 673.94 132.7C669.82 132.17 654.61 126.7 664.34 114.97C664.34 114.97 664.07 114.4 663.64 113.41C661.14 107.63 653.32 87.41 663.47 80.55C720.38 35.39 723.5 99.69 723.6 101.19Z" fill="#FFAE83"/>
<path d="M660.76 161.97L664.9 166.48C669.626 171.632 674.072 177.033 678.22 182.66C684.38 190.97 695.48 203.37 703.53 197.61C715.23 189.22 711.92 167.47 711.92 167.47L723.57 179.13L730.96 242.33L731.65 338.24L728.86 357.29L674 358.16L652 339.82L653 305.05L640.06 196.91L660.76 161.97Z" fill="white"/>
<path d="M743.57 473.56L735.71 619.78H709.51L686.22 442.63L653.43 618.21H628.52L624.34 499.5C618.51 427.5 623.47 386.06 626.1 370.68C626.89 366.01 627.47 363.75 627.47 363.75L634.29 344.88C668.6 348.6 701.59 349.21 732.48 344.88L737.55 352.88C738.846 358.739 739.818 364.664 740.46 370.63C745.04 410.25 743.57 473.56 743.57 473.56Z" fill="#1C2C50"/>
<path d="M648.91 360.69C605.41 367.23 599.38 356.69 601.79 352.49C604.43 347.96 614.6 324.6 619.43 310.64C620.073 308.827 620.285 306.889 620.049 304.979C619.813 303.07 619.135 301.242 618.07 299.64C607.07 283.27 601.79 230.87 601.79 210.42C601.79 188.42 612.55 183.95 612.55 183.95L656.02 164.1L660.76 161.93C679.86 184.49 686.52 224.24 688.53 240.93C689.13 245.76 689.32 248.66 689.32 248.66V297.66C689.32 297.66 692.42 354.13 648.91 360.69Z" fill="#001529"/>
<path d="M656.02 164.13L650.54 193.77L661.9 189.75L653.86 199.42L688.53 240.98L664.17 198L667.66 184.51L654.78 187.48L656.02 164.13Z" fill="#103F6A"/>
<path d="M658.05 198.31L665.22 187.13L653.86 189.74L656.02 164.13L660.76 161.96C679.86 184.52 686.52 224.27 688.53 240.96C678.46 223.22 658.05 198.31 658.05 198.31Z" fill="#013668"/>
<path d="M759.33 206.44C759.2 208.01 758.97 209.57 758.71 211.12C755.05 232.84 745.93 355.12 745.93 355.12C728.36 353.32 712.22 344.47 712.93 252.44C712.93 252.07 712.93 251.71 712.93 251.35C717.11 214.14 711.88 167.49 711.88 167.49C716.22 169.21 720.18 170.83 723.8 172.35C756.4 185.97 760.52 191.97 759.33 206.44Z" fill="#001529"/>
<path d="M723.79 172.33L731.61 184.16L722.61 184.77L732.74 189.57L712.91 252.42L720.71 188.7L715.4 181.62L723.79 172.33Z" fill="#103F6A"/>
<path d="M712.92 251.33C717.1 214.12 711.87 167.47 711.87 167.47L723.79 172.33L727.71 182.93L718.41 183.85L729.55 189.61C729.55 189.61 719.16 233.1 712.92 252.42C712.9 252.05 712.92 251.69 712.92 251.33Z" fill="#013668"/>
<path d="M707.83 157.07C700.732 156.682 693.874 154.369 687.99 150.38" stroke="#E39B75" stroke-width="0.75" stroke-linecap="round" stroke-linejoin="round"/>
<path d="M693.36 117.55C693.283 116.81 693.372 116.062 693.621 115.361C693.87 114.66 694.272 114.024 694.798 113.498C695.324 112.972 695.96 112.57 696.661 112.321C697.362 112.072 698.11 111.983 698.85 112.06" stroke="#1C2C50" stroke-linecap="round" stroke-linejoin="round"/>
<path d="M709.83 109.9C709.86 109.145 710.075 108.41 710.457 107.758C710.839 107.107 711.375 106.559 712.018 106.164C712.662 105.768 713.392 105.538 714.146 105.492C714.9 105.446 715.653 105.586 716.34 105.9C716.743 106.053 717.102 106.303 717.386 106.627C717.67 106.952 717.871 107.34 717.97 107.76" stroke="#1C2C50" stroke-linecap="round" stroke-linejoin="round"/>
<path d="M698.98 121.57C699.897 121.57 700.64 120.827 700.64 119.91C700.64 118.993 699.897 118.25 698.98 118.25C698.063 118.25 697.32 118.993 697.32 119.91C697.32 120.827 698.063 121.57 698.98 121.57Z" fill="#1C2C50"/>
<path d="M715.23 117.03C716.34 117.03 717.24 116.13 717.24 115.02C717.24 113.91 716.34 113.01 715.23 113.01C714.12 113.01 713.22 113.91 713.22 115.02C713.22 116.13 714.12 117.03 715.23 117.03Z" fill="#1C2C50"/>
<path d="M710.08 145.07C709.234 146.321 707.955 147.215 706.49 147.58C706.234 147.657 705.973 147.721 705.71 147.77C704.197 148.081 702.637 148.076 701.126 147.756C699.615 147.436 698.187 146.808 696.93 145.91C694.809 144.372 693.235 142.196 692.44 139.7C692.207 138.983 692.04 138.247 691.94 137.5C691.61 135.1 691.83 131.4 693.39 129.39C694.24 128.27 695.25 130.22 695.89 130.86C696.781 131.77 697.79 132.557 698.89 133.2C700.716 134.137 702.592 134.971 704.51 135.7C706.436 136.445 708.138 137.675 709.45 139.27C710.093 140.078 710.493 141.052 710.605 142.079C710.716 143.105 710.534 144.143 710.08 145.07Z" fill="white" stroke="#1C2C50" stroke-linecap="round" stroke-linejoin="round"/>
<path d="M705.71 147.77C704.197 148.081 702.637 148.076 701.126 147.756C699.615 147.436 698.187 146.808 696.93 145.91C694.809 144.372 693.235 142.196 692.44 139.7L692.59 139.62C693.612 139.179 694.72 138.972 695.832 139.013C696.944 139.055 698.034 139.344 699.02 139.86C700.994 140.903 702.72 142.359 704.08 144.13C704.816 144.909 705.357 145.852 705.66 146.88C705.721 147.173 705.738 147.472 705.71 147.77Z" fill="#1C2C50"/>
<path d="M710.14 115.16C710.36 118.35 710.63 121.68 712.3 124.41C713.174 125.826 714.34 127.04 715.72 127.97C716.081 128.181 716.416 128.433 716.72 128.72C716.867 128.862 716.982 129.033 717.057 129.223C717.133 129.413 717.168 129.616 717.16 129.82C717.16 130.47 716.5 130.91 715.93 131.23C714.493 132.048 712.962 132.69 711.37 133.14" stroke="#1C2C50" stroke-linecap="round" stroke-linejoin="round"/>
<path d="M696.58 94.11C696.922 96.9684 696.66 99.8668 695.811 102.618C694.961 105.368 693.544 107.91 691.65 110.078C689.756 112.246 687.428 113.992 684.817 115.204C682.205 116.415 679.368 117.065 676.49 117.11H674.42C670.78 117.11 667.6 116.9 664.34 114.91C661.66 109.18 652.96 87.45 663.47 80.49C704.99 47.23 717.9 73.16 721.88 89.86C722.766 93.5622 723.341 97.332 723.6 101.13C714.025 102.361 704.345 99.846 696.58 94.11Z" fill="#21345E"/>
<path d="M648.97 623.8V629.21C644.19 633.35 638.79 633.21 632.81 629.21L631.76 623.8H648.97Z" fill="#FFAE83"/>
<path d="M651.22 633.97V657.66C651.235 659.045 650.926 660.414 650.316 661.657C649.706 662.901 648.814 663.984 647.71 664.82C634.1 674.77 615.46 670.82 606.84 668.18C605.471 667.76 604.274 666.911 603.424 665.759C602.574 664.607 602.117 663.212 602.12 661.78C602.126 660.878 602.315 659.986 602.676 659.159C603.037 658.333 603.562 657.588 604.22 656.97C604.491 656.691 604.789 656.439 605.11 656.22C614.635 649.54 622.653 640.939 628.65 630.97C628.974 630.425 629.433 629.974 629.984 629.66C630.534 629.347 631.156 629.181 631.79 629.18H632.79C638.79 633.18 644.17 633.32 648.95 629.18C649.663 629.758 650.237 630.488 650.629 631.317C651.022 632.146 651.224 633.053 651.22 633.97Z" fill="#8290BF"/>
<path d="M731.98 626.07V633.74C725.44 638.1 719.477 638.1 714.09 633.74V626.07H731.98Z" fill="#FFAE83"/>
<path d="M763.03 661.13C748.53 661.62 708.47 662.42 706.23 656.2C705.625 654.261 705.431 652.218 705.66 650.2C706.163 645.737 707.273 641.363 708.96 637.2C709.357 636.161 710.06 635.268 710.976 634.637C711.892 634.007 712.978 633.67 714.09 633.67C716.456 635.729 719.474 636.887 722.61 636.94C725.99 636.81 729.253 635.671 731.98 633.67V631.48L734.4 632.2C734.4 632.2 759.29 645.91 765.98 650.2L766.17 650.33C766.487 650.54 766.782 650.781 767.05 651.05C767.865 651.867 768.422 652.905 768.654 654.036C768.886 655.166 768.781 656.34 768.354 657.412C767.926 658.483 767.194 659.407 766.248 660.068C765.302 660.728 764.183 661.098 763.03 661.13Z" fill="#8290BF"/>
<path d="M629.66 618.21L630.28 623.8H650.28L652.46 618.21H629.66Z" fill="white"/>
<path d="M711.14 619.78L712 626.07H733.81L734.92 619.78H711.14Z" fill="white"/>
<path d="M833.74 203.9H742.24C739.479 203.9 737.24 206.139 737.24 208.9V343.82C737.24 346.581 739.479 348.82 742.24 348.82H833.74C836.501 348.82 838.74 346.581 838.74 343.82V208.9C838.74 206.139 836.501 203.9 833.74 203.9Z" fill="white"/>
<path d="M778.22 315.88L780.51 317.83C780.919 318.229 781.459 318.465 782.03 318.495C782.6 318.524 783.162 318.345 783.61 317.99C783.866 317.788 784.076 317.534 784.229 317.246C784.382 316.959 784.473 316.642 784.498 316.317C784.522 315.992 784.479 315.665 784.371 315.358C784.263 315.05 784.092 314.768 783.87 314.53L777.28 308.11L770.57 301.64L764.13 293.91C763.136 292.719 761.802 291.859 760.306 291.446C758.81 291.033 757.224 291.087 755.76 291.6L741.35 296.67L738.73 315.18H752.49L767.97 326.18C768.437 326.51 769.007 326.659 769.575 326.6C770.143 326.541 770.671 326.278 771.06 325.86C771.282 325.62 771.452 325.337 771.558 325.028C771.665 324.719 771.706 324.392 771.678 324.066C771.651 323.74 771.556 323.424 771.4 323.137C771.243 322.85 771.029 322.599 770.77 322.4L778.22 315.88Z" fill="#FFAE83"/>
<path d="M783.03 293.2H763.77C762.638 293.2 761.525 293.485 760.532 294.028C759.539 294.572 758.7 295.356 758.09 296.31L752.99 304.25C752.765 304.598 752.64 305.001 752.629 305.415C752.619 305.829 752.723 306.238 752.929 306.596C753.136 306.955 753.438 307.25 753.802 307.448C754.165 307.646 754.576 307.74 754.99 307.72C756.986 307.748 758.946 307.187 760.624 306.105C762.301 305.023 763.622 303.47 764.42 301.64H770.57L783.33 313.97L793.1 312.26L786.55 293.2H783.03Z" fill="#FFC3A3"/>
<path d="M783.32 313.97L770.12 303.23L765.3 303.6C762 308.48 754.97 307.73 754.97 307.73C756.968 307.762 758.931 307.201 760.611 306.119C762.29 305.037 763.613 303.482 764.41 301.65H770.56L783.32 313.97Z" fill="#E39B75"/>
<path d="M783.06 196.79H781.45C780.285 196.79 779.34 197.735 779.34 198.9V215.02C779.34 216.185 780.285 217.13 781.45 217.13H783.06C784.225 217.13 785.17 216.185 785.17 215.02V198.9C785.17 197.735 784.225 196.79 783.06 196.79Z" fill="#FFAE83"/>
<path d="M784.39 214.22C784.244 214.306 784.131 214.437 784.067 214.593C784.003 214.75 783.993 214.923 784.037 215.086C784.081 215.249 784.178 215.393 784.312 215.496C784.447 215.598 784.611 215.654 784.78 215.654C784.949 215.654 785.113 215.598 785.248 215.496C785.382 215.393 785.479 215.249 785.523 215.086C785.567 214.923 785.557 214.75 785.493 214.593C785.429 214.437 785.316 214.306 785.17 214.22V199.7C785.316 199.614 785.429 199.483 785.493 199.327C785.557 199.17 785.567 198.997 785.523 198.834C785.479 198.671 785.382 198.527 785.248 198.424C785.113 198.322 784.949 198.266 784.78 198.266C784.611 198.266 784.447 198.322 784.312 198.424C784.178 198.527 784.081 198.671 784.037 198.834C783.993 198.997 784.003 199.17 784.067 199.327C784.131 199.483 784.244 199.614 784.39 199.7V214.22Z" fill="#E39B75"/>
<path d="M788.89 196.79H787.28C786.115 196.79 785.17 197.735 785.17 198.9V215.02C785.17 216.185 786.115 217.13 787.28 217.13H788.89C790.055 217.13 791 216.185 791 215.02V198.9C791 197.735 790.055 196.79 788.89 196.79Z" fill="#FFAE83"/>
<path d="M790.09 199.7V214.22C790.09 214.77 790.25 215.309 790.55 215.77C790.842 215.306 790.998 214.769 791 214.22V199.7C790.998 199.151 790.842 198.614 790.55 198.15C790.25 198.611 790.09 199.15 790.09 199.7Z" fill="#E39B75"/>
<path d="M777.23 198H775.62C774.455 198 773.51 198.945 773.51 200.11V213.32C773.51 214.485 774.455 215.43 775.62 215.43H777.23C778.395 215.43 779.34 214.485 779.34 213.32V200.11C779.34 198.945 778.395 198 777.23 198Z" fill="#FFAE83"/>
<path d="M778.49 212.51C778.491 213.04 778.64 213.56 778.92 214.01C779.192 213.557 779.337 213.039 779.34 212.51V200.97C779.337 200.441 779.192 199.923 778.92 199.47C778.64 199.92 778.491 200.44 778.49 200.97V212.51Z" fill="#E39B75"/>
<path d="M794.72 199.71H793.11C791.945 199.71 791 200.655 791 201.82V213.32C791 214.485 791.945 215.43 793.11 215.43H794.72C795.885 215.43 796.83 214.485 796.83 213.32V201.82C796.83 200.655 795.885 199.71 794.72 199.71Z" fill="#FFAE83"/>
<path d="M619.39 302.28L724.64 316.8L739.46 318.5C743.18 311.19 745.36 302.56 746.46 293L730.97 288.85L646.7 266.27" fill="#001529"/>
<path d="M746.45 292.97C745.36 302.53 743.18 311.16 739.45 318.47L724.63 316.77C728.79 306.99 730.4 294.56 730.95 288.82L746.45 292.97Z" fill="#013668"/>
<path d="M876.95 288.85C876.95 288.85 828.04 309.95 791.01 315.18C786.16 301.81 784.01 295.85 783.01 293.18L782.22 291.07C782.22 291.07 841.75 268.87 876.43 226.62C877.43 225.41 878.43 224.18 879.36 222.94C887.79 281.97 876.95 288.85 876.95 288.85Z" fill="#7688BF"/>
<path d="M877.22 229.85C841.05 277.01 783.02 293.21 783.02 293.21L782.22 291.07C782.22 291.07 841.75 268.87 876.43 226.62C876.755 227.681 877.018 228.759 877.22 229.85Z" fill="#959FBF"/>
<path d="M956.63 476.27C956.63 476.27 933.73 614.62 930.25 630.17C929.53 630.3 928.83 630.42 928.15 630.52C924.246 631.073 920.296 631.234 916.36 631C915.93 631 915.5 631 915.1 630.91C914.7 630.82 914.61 630.91 914.36 630.85C914.11 630.79 913.56 630.77 913.17 630.73C913.107 630.74 913.043 630.74 912.98 630.73L912.31 630.66C912 630.66 911.71 630.59 911.42 630.54L910.5 630.41C909.94 630.32 909.42 630.24 908.96 630.15C907.06 629.8 905.96 629.5 905.96 629.5L905.83 627.92C905.77 627.25 905.7 626.33 905.58 624.97C905.46 623.61 905.29 621.59 905.07 618.97C900.98 619.62 895.65 618.89 893.07 618.47C892.14 618.31 891.58 618.19 891.58 618.19L867.52 360.08H964.71C971.06 392.97 956.63 476.27 956.63 476.27Z" fill="#2F698A"/>
<path d="M905.09 618.99L904.28 382.3L898.31 386.12L903.07 619.2L905.09 618.99Z" fill="#2A5D7A"/>
<path d="M904.28 442.37L928.15 450.23L916.36 631L926.55 630.73L951.03 375.98L964.71 360.08L879.76 361.21L898.31 386.12L904.28 442.37Z" fill="#2A5D7A"/>
<path d="M966.76 311.97C966.037 313.345 965.852 314.941 966.24 316.445C966.628 317.949 967.562 319.256 968.86 320.11L974.92 346.32L978.11 360.11C974.29 360.29 970.493 360.457 966.72 360.61C958.72 360.943 950.837 361.217 943.07 361.43L934.07 361.64C907.36 362.17 882.55 361.83 860.76 360.11L865.95 281.97C871.19 203.87 900.37 169.46 900.37 169.46L900.23 170.56C899.36 178.42 902.74 180.46 905.78 180.78C908.023 180.963 910.257 180.339 912.08 179.02C913.536 178.002 914.935 176.903 916.27 175.73C929.04 164.44 927.4 152.08 927.27 151.33C932.5 151.33 989.27 181.79 984.27 235.56C981.97 264.81 973.7 297.84 966.76 311.97Z" fill="#8290BF"/>
<path d="M978.11 360.08C974.29 360.26 970.493 360.427 966.72 360.58C958.72 360.913 950.837 361.187 943.07 361.4C943.019 361.125 942.982 360.848 942.96 360.57C942.825 357.982 943.14 355.391 943.89 352.91C945.17 347.81 946.72 342.77 948.49 337.82C951.49 329.49 955.49 320.99 962.85 315.97C965.85 313.87 963.1 312.5 966.76 311.97C966.037 313.345 965.852 314.941 966.24 316.445C966.628 317.949 967.562 319.256 968.86 320.11L974.92 346.32L978.11 360.08Z" fill="#7688BF"/>
<path d="M966.37 319.27L932.47 388.8L930.1 388.04L924.6 386.26L909.9 381.5L907.65 380.77L932.47 239.95L952.44 286.66L966.37 319.27Z" fill="#8290BF"/>
<path d="M937.432 404.301L890.489 400.334C888.838 400.195 887.387 401.42 887.247 403.071L885.641 422.073C885.502 423.724 886.727 425.176 888.378 425.315L935.321 429.282C936.972 429.421 938.423 428.196 938.563 426.545L940.168 407.543C940.308 405.892 939.083 404.44 937.432 404.301Z" fill="white"/>
<path d="M932.59 388.84L928.39 396.08C926.804 398.815 925.966 401.919 925.96 405.08V412.64C925.961 417.174 925.321 421.685 924.06 426.04L922.82 430.31H898.32C898.32 430.31 898.05 419.31 899.89 411.7C901.73 404.09 912.39 382.29 912.39 382.29L932.59 388.84Z" fill="#FFAE83"/>
<path d="M928.15 630.52V636.04C928.166 636.23 928.166 636.42 928.15 636.61C928.065 637.175 927.858 637.714 927.541 638.189C927.225 638.664 926.808 639.064 926.32 639.36C926.175 639.443 926.025 639.517 925.87 639.58H925.8C924.581 640.061 923.328 640.449 922.05 640.74L921.5 640.86L920.74 641C919.772 641.161 918.792 641.245 917.81 641.25H916.86C916.41 641.25 915.97 641.17 915.52 641.11L914.67 640.97H914.6C914.417 640.938 914.237 640.895 914.06 640.84C913.857 640.797 913.657 640.744 913.46 640.68C913.253 640.625 913.049 640.559 912.85 640.48C912.51 640.38 912.19 640.25 911.85 640.12C911.509 639.991 911.175 639.844 910.85 639.68C910.57 639.54 910.28 639.39 909.99 639.22C909.7 639.05 909.3 638.81 908.99 638.58V630.14C909.45 630.23 909.99 630.31 910.53 630.4L911.45 630.53C911.74 630.58 912.03 630.62 912.34 630.65L913.01 630.72C913.073 630.73 913.137 630.73 913.2 630.72C913.59 630.72 913.99 630.81 914.39 630.84C914.79 630.87 914.88 630.84 915.13 630.9C915.38 630.96 915.96 630.97 916.39 630.99C920.316 631.225 924.255 631.067 928.15 630.52Z" fill="#FFAE83"/>
<path d="M905.84 627.89C896.97 629.36 893.12 624.94 893.12 624.94V618.49C895.66 618.91 900.99 619.64 905.12 618.99C905.34 621.56 905.5 623.49 905.63 624.99C905.76 626.49 905.78 627.22 905.84 627.89Z" fill="#FFAE83"/>
<path d="M908.95 630.12V638.56L908.74 638.67C906.938 639.686 905.603 641.365 905.02 643.35C905.02 643.44 905.02 643.53 904.93 643.64C904.367 645.282 903.576 646.838 902.58 648.26H861.06C859.988 648.287 858.941 647.93 858.108 647.253C857.276 646.577 856.713 645.625 856.52 644.57C856.377 643.519 856.622 642.452 857.21 641.57C858.96 638.72 863.72 636.57 869.01 635.97C874.6 635.28 880.59 631.11 884.3 628.09C886.795 626.069 889.909 624.968 893.12 624.97C893.12 624.97 895.96 628.22 902.36 628.22C903.526 628.216 904.69 628.115 905.84 627.92L905.97 629.5C905.97 629.5 907.05 629.77 908.95 630.12Z" fill="#001529"/>
<path d="M926.27 160.83C924.64 166.17 920.81 172.96 912.08 179.04C910.257 180.359 908.023 180.983 905.78 180.8C902.78 180.48 899.36 178.44 900.23 170.58L900.37 169.48V162.48C900.367 161.494 900.147 160.52 899.727 159.628C899.307 158.736 898.697 157.946 897.939 157.315C897.181 156.684 896.295 156.227 895.341 155.976C894.387 155.724 893.39 155.685 892.42 155.86L887.2 156.86C886.653 156.961 886.09 156.941 885.552 156.8C885.013 156.66 884.513 156.402 884.085 156.046C883.657 155.69 883.313 155.244 883.077 154.74C882.842 154.236 882.719 153.686 882.72 153.13V147.89C882.72 147.409 882.625 146.932 882.44 146.487C882.256 146.042 881.985 145.638 881.644 145.298C881.304 144.958 880.899 144.689 880.454 144.506C880.008 144.322 879.531 144.229 879.05 144.23H876.93C876.526 144.231 876.127 144.139 875.765 143.96C875.403 143.781 875.087 143.52 874.843 143.198C874.598 142.876 874.432 142.502 874.357 142.105C874.282 141.708 874.3 141.299 874.41 140.91L881.92 114.71C882.174 114.758 882.432 114.791 882.69 114.81C884.79 114.98 886.85 114.28 888.94 113.98C891.03 113.68 893.4 113.87 894.85 115.41C896.01 116.65 896.49 118.67 898.1 119.22C898.683 119.363 899.295 119.334 899.862 119.135C900.428 118.936 900.925 118.576 901.29 118.1C901.996 117.136 902.475 116.025 902.69 114.85C903.051 112.687 903.701 110.581 904.62 108.59C905.69 106.68 907.7 105.1 909.89 105.29C910.735 105.41 911.539 105.73 912.235 106.225C912.93 106.719 913.498 107.372 913.89 108.13C914.66 109.635 915.112 111.283 915.22 112.97C915.607 116.537 915.473 120.142 914.82 123.67C914.21 126.95 912.19 130.2 911.82 133.43C911.38 137.43 913.99 138.07 917.06 137.43C918.414 137.132 919.734 136.696 921 136.13C921.069 136.381 921.159 136.625 921.27 136.86L927.27 151.37C927.59 154.559 927.25 157.779 926.27 160.83Z" fill="#FFAE83"/>
<path d="M932.58 126.23C930.597 129.252 928.043 131.858 925.06 133.9C923.778 134.749 922.418 135.476 921 136.07C917.82 137.45 914 138.44 912.43 136.51C911.827 135.586 911.608 134.463 911.82 133.38C912.17 130.15 914.19 126.9 914.82 123.62C915.473 120.092 915.607 116.487 915.22 112.92C915.116 111.222 914.664 109.565 913.89 108.05C913.498 107.292 912.931 106.639 912.235 106.145C911.539 105.65 910.735 105.33 909.89 105.21C907.7 105.02 905.69 106.6 904.62 108.51C903.701 110.501 903.051 112.607 902.69 114.77C902.475 115.945 901.996 117.056 901.29 118.02C900.925 118.496 900.428 118.856 899.862 119.055C899.295 119.254 898.683 119.283 898.1 119.14C896.49 118.59 896.01 116.57 894.85 115.33C892.93 113.33 889.42 113.63 887.07 114.33C885.671 114.748 884.204 114.891 882.75 114.75C882.472 114.732 882.195 114.699 881.92 114.65C880.811 114.452 879.754 114.034 878.81 113.42C877.265 112.419 876.048 110.986 875.31 109.3C874.939 108.523 874.663 107.704 874.49 106.86C870.02 85.44 899.75 79.34 909.39 79.95C914.615 80.2911 919.659 81.9937 924.022 84.8885C928.385 87.7834 931.915 91.7698 934.259 96.4513C936.604 101.133 937.683 106.347 937.388 111.574C937.094 116.802 935.436 121.862 932.58 126.25V126.23Z" fill="#21345E"/>
<path d="M885.52 127.91C886.68 127.91 887.62 126.97 887.62 125.81C887.62 124.65 886.68 123.71 885.52 123.71C884.36 123.71 883.42 124.65 883.42 125.81C883.42 126.97 884.36 127.91 885.52 127.91Z" fill="#1C2C50"/>
<path d="M883.42 120.14C883.726 119.739 884.123 119.416 884.579 119.199C885.035 118.981 885.535 118.875 886.04 118.89C887.046 118.919 888.017 119.27 888.81 119.89C890.043 120.821 890.896 122.167 891.21 123.68" stroke="#1C2C50" stroke-linecap="round" stroke-linejoin="round"/>
<path d="M892.16 146.56C894.108 144.797 895.288 142.342 895.45 139.72C896.99 141.337 897.843 143.487 897.83 145.72C897.813 146.82 897.51 147.896 896.951 148.843C896.391 149.79 895.595 150.575 894.64 151.12C893.049 151.867 891.242 152.017 889.55 151.54C888.67 151.33 884.1 149.94 886.55 149.09C888.66 148.34 890.44 148.11 892.16 146.56Z" fill="white" stroke="#1C2C50" stroke-linecap="round" stroke-linejoin="round"/>
<path d="M936.52 653.76C936.7 658.164 935.528 662.518 933.161 666.236C930.794 669.954 927.346 672.859 923.28 674.56C910.53 679.77 893.33 678.56 887.93 678.06C886.14 677.921 884.439 677.221 883.07 676.06C882.135 675.29 881.492 674.224 881.246 673.038C881.001 671.852 881.168 670.618 881.72 669.54C882.72 667.25 885.05 664.41 889.72 660.95C896.52 655.95 900.39 651.62 902.58 648.29C903.634 646.784 904.456 645.129 905.02 643.38C905.603 641.395 906.938 639.716 908.74 638.7L908.95 638.59C909.3 638.82 909.65 639.04 909.95 639.23C910.25 639.42 910.53 639.55 910.81 639.69C911.135 639.854 911.469 640.001 911.81 640.13C912.134 640.274 912.468 640.394 912.81 640.49C913.009 640.569 913.213 640.635 913.42 640.69C913.617 640.754 913.817 640.807 914.02 640.85C914.197 640.905 914.377 640.948 914.56 640.98H914.63L915.48 641.12C915.93 641.18 916.37 641.24 916.82 641.26H917.77C918.752 641.255 919.732 641.171 920.7 641.01L921.46 640.87L922.01 640.75C923.287 640.459 924.541 640.071 925.76 639.59H925.83C925.985 639.527 926.135 639.453 926.28 639.37C926.78 639.088 927.207 638.692 927.525 638.215C927.843 637.737 928.043 637.19 928.11 636.62C928.126 636.43 928.126 636.24 928.11 636.05C928.281 636.014 928.455 635.997 928.63 636C929.081 636.002 929.524 636.12 929.916 636.342C930.308 636.565 930.637 636.884 930.87 637.27C932.712 640.527 934.213 643.965 935.35 647.53C936.044 649.538 936.438 651.637 936.52 653.76Z" fill="#001529"/>
<path d="M688.61 311.83C688 316.822 686.953 321.751 685.48 326.56L619.39 302.28L688.61 311.83Z" fill="#103F6A"/>
<path d="M682.92 275.97C664.49 266.24 649.47 252.41 639.01 233.06C639.01 233.06 639.01 262.94 647.56 266.49C655.22 269.68 682.92 275.97 682.92 275.97Z" fill="#103F6A"/>
<path d="M667.58 119.97C667.5 120.81 666.96 121.56 666.93 122.41C666.942 122.818 667.037 123.218 667.209 123.588C667.381 123.958 667.626 124.288 667.93 124.56C668.561 125.088 669.229 125.57 669.93 126C671.227 126.918 672.337 128.076 673.2 129.41C673.44 129.79 673.66 130.32 673.37 130.68C673.275 130.779 673.156 130.851 673.024 130.889C672.893 130.928 672.753 130.932 672.62 130.9C672.354 130.829 672.104 130.71 671.88 130.55L667.38 127.78C666.055 127.043 664.843 126.121 663.78 125.04C663.251 124.498 662.842 123.849 662.582 123.137C662.322 122.425 662.215 121.666 662.27 120.91C662.476 120.054 662.839 119.244 663.34 118.52C663.634 118.036 664.074 117.657 664.597 117.44C665.121 117.222 665.699 117.177 666.25 117.31C666.44 117.355 666.62 117.437 666.78 117.55C667.098 117.859 667.337 118.241 667.476 118.662C667.615 119.083 667.651 119.532 667.58 119.97Z" fill="#E39B75"/>
<path d="M916.27 175.75C911.73 158.82 894.51 155.75 894.51 155.75C894.51 155.75 897.35 155.09 898.13 154.87C901.331 153.896 904.303 152.287 906.87 150.14C910.858 146.637 914.208 142.469 916.77 137.82C916.857 137.658 916.954 137.501 917.06 137.35C918.414 137.052 919.734 136.616 921 136.05C921.069 136.301 921.159 136.545 921.27 136.78L927.27 151.29C932.9 155.34 923.67 174.25 916.27 175.75Z" fill="#E39B75"/>
<path d="M984.22 235.54C981.15 275.54 968.85 320.08 968.85 320.08L934.95 389.61L932.58 388.84L927.09 387.07C927.369 385.203 927.78 383.359 928.32 381.55C930.213 374.883 932.11 368.237 934.01 361.61C939.163 343.55 944.317 325.487 949.47 307.42C951.34 300.81 953.24 294.17 954.92 287.47C958.57 272.86 961.23 258.07 960.6 243.09C959.68 221.24 950.6 198.55 932.17 186.76C926.8 183.33 920.31 180.31 916.26 175.76C929.03 164.47 927.39 152.11 927.26 151.36C932.51 151.31 989.31 181.77 984.22 235.54Z" fill="#7688BF"/>
<path d="M910.15 381.58L934.96 240.76L915.45 383.29L910.15 381.58Z" fill="#959FBF"/>
<path d="M634.29 508.97V618.21H628.52L624.34 499.5C618.51 427.5 623.47 386.06 626.1 370.68C628.5 374.535 629.914 378.92 630.22 383.45C631.33 401.75 634.29 453.75 634.29 508.97Z" fill="#2D4680"/>
<path d="M743.57 473.56L735.71 619.78H729.81L732.72 374.78C732.741 373.89 732.999 373.021 733.469 372.264C733.938 371.507 734.601 370.889 735.389 370.474C736.177 370.059 737.062 369.862 737.952 369.903C738.841 369.945 739.704 370.223 740.45 370.71C745.04 410.25 743.57 473.56 743.57 473.56Z" fill="#2D4680"/>
<path d="M651.22 647.65V657.65C651.235 659.035 650.926 660.404 650.316 661.647C649.706 662.891 648.814 663.974 647.71 664.81C634.1 674.76 615.46 670.81 606.84 668.17C605.471 667.75 604.274 666.901 603.424 665.749C602.574 664.597 602.117 663.202 602.12 661.77C602.127 660.869 602.317 659.98 602.678 659.155C603.039 658.33 603.564 657.587 604.22 656.97C608.65 658.24 613.03 659.74 617.53 660.82C624.2 662.41 631.44 662.96 637.75 660.28C642.156 658.245 645.965 655.111 648.81 651.18C649.66 650.05 650.47 648.86 651.22 647.65Z" fill="#6E79A1"/>
<path d="M763.03 661.13C748.53 661.62 708.47 662.42 706.23 656.2C705.625 654.261 705.431 652.218 705.66 650.2C706.954 651.441 708.484 652.41 710.16 653.05C712.98 654.042 715.919 654.657 718.9 654.88C726.596 655.965 734.358 656.503 742.13 656.49C749.925 656.468 757.639 654.908 764.83 651.9C765.552 651.566 766.293 651.276 767.05 651.03C767.871 651.846 768.435 652.886 768.67 654.02C768.906 655.153 768.803 656.331 768.375 657.407C767.947 658.483 767.212 659.41 766.262 660.071C765.311 660.733 764.188 661.101 763.03 661.13Z" fill="#6E79A1"/>
<path d="M813.22 258.8C823.183 258.8 831.26 250.723 831.26 240.76C831.26 230.797 823.183 222.72 813.22 222.72C803.257 222.72 795.18 230.797 795.18 240.76C795.18 250.723 803.257 258.8 813.22 258.8Z" stroke="#001529" stroke-width="2" stroke-miterlimit="10"/>
<path d="M802.43 241L810.42 249L823.87 235.54" stroke="#001529" stroke-width="2" stroke-linecap="round" stroke-linejoin="round"/>
<path d="M746.45 222.72H782.52" stroke="#C6CFE3" stroke-linecap="round" stroke-linejoin="round"/>
<path d="M746.45 248.37H782.52" stroke="#C6CFE3" stroke-linecap="round" stroke-linejoin="round"/>
<path d="M746.45 274.02H795.18" stroke="#C6CFE3" stroke-linecap="round" stroke-linejoin="round"/>
<path d="M791.08 339.99H799.04L807.51 331.52V339.99L817.69 329.82V339.99H825.77" stroke="#C6CFE3" stroke-linecap="round" stroke-linejoin="round"/>
<path d="M765.79 318.5L774.36 325.14C774.818 325.483 775.383 325.65 775.954 325.612C776.525 325.573 777.062 325.331 777.47 324.93C777.7 324.698 777.879 324.421 777.996 324.116C778.114 323.812 778.166 323.486 778.151 323.16C778.136 322.834 778.054 322.514 777.909 322.222C777.764 321.929 777.56 321.67 777.31 321.46L770.22 315.55" fill="#FFAE83"/>
<path d="M774.37 325.14L765.88 318.57L771.57 323.42L774.37 325.14Z" fill="#E39B75"/>
<path d="M773.78 318.51L778.62 322.51C779.051 322.885 779.604 323.091 780.175 323.091C780.746 323.091 781.299 322.885 781.73 322.51C781.974 322.292 782.17 322.026 782.306 321.729C782.442 321.432 782.515 321.11 782.521 320.783C782.527 320.456 782.465 320.132 782.339 319.83C782.213 319.528 782.026 319.256 781.79 319.03L775.13 312.69" fill="#FFAE83"/>
<path d="M782.02 318.82L775.36 312.47L781.66 319.18C782.083 319.583 782.341 320.128 782.383 320.711C782.426 321.293 782.25 321.87 781.89 322.33H781.96C782.21 322.113 782.412 321.846 782.551 321.546C782.691 321.246 782.767 320.919 782.772 320.588C782.778 320.257 782.714 319.929 782.584 319.624C782.455 319.319 782.262 319.046 782.02 318.82Z" fill="#E39B75"/>
<path d="M777.68 321.09L770.62 315.18L777.31 321.46C777.782 321.857 778.079 322.424 778.135 323.038C778.191 323.653 778.002 324.264 777.61 324.74L777.84 324.56C778.07 324.328 778.249 324.051 778.366 323.746C778.484 323.442 778.536 323.116 778.521 322.79C778.506 322.464 778.424 322.144 778.279 321.852C778.134 321.559 777.93 321.3 777.68 321.09Z" fill="#E39B75"/>
<path d="M752.08 324.05C751.591 323.63 751.288 323.033 751.238 322.391C751.187 321.748 751.393 321.111 751.81 320.62L757.33 314.1C757.538 313.857 757.792 313.658 758.077 313.514C758.362 313.37 758.672 313.283 758.991 313.259C759.31 313.235 759.63 313.273 759.933 313.373C760.237 313.473 760.518 313.632 760.76 313.84C761.003 314.048 761.202 314.302 761.346 314.587C761.49 314.872 761.577 315.182 761.601 315.501C761.625 315.82 761.587 316.14 761.487 316.443C761.387 316.747 761.228 317.028 761.02 317.27L755.51 323.78C755.09 324.269 754.493 324.572 753.851 324.622C753.208 324.673 752.571 324.467 752.08 324.05Z" fill="#FFC3A3"/>
<path d="M755.01 323.36C754.733 323.677 754.55 324.065 754.48 324.48C754.867 324.336 755.212 324.095 755.48 323.78L760.99 317.27C761.267 316.953 761.45 316.565 761.52 316.15C761.133 316.291 760.789 316.528 760.52 316.84L755.01 323.36Z" fill="#E39B75"/>
<path d="M755.77 327.21C755.527 327.002 755.328 326.748 755.184 326.463C755.04 326.178 754.953 325.868 754.929 325.549C754.904 325.23 754.943 324.91 755.043 324.607C755.143 324.303 755.302 324.022 755.51 323.78L761.02 317.27C761.228 317.027 761.482 316.828 761.767 316.684C762.052 316.54 762.362 316.453 762.681 316.429C763 316.404 763.32 316.443 763.623 316.543C763.927 316.643 764.208 316.802 764.45 317.01C764.693 317.218 764.892 317.472 765.036 317.757C765.18 318.042 765.267 318.352 765.291 318.671C765.315 318.99 765.277 319.31 765.177 319.613C765.077 319.917 764.918 320.198 764.71 320.44L759.22 326.97C759.01 327.214 758.754 327.414 758.467 327.558C758.179 327.703 757.866 327.789 757.545 327.811C757.224 327.833 756.902 327.792 756.597 327.688C756.293 327.585 756.011 327.423 755.77 327.21Z" fill="#FFC3A3"/>
<path d="M764.13 319.97L758.62 326.48C758.316 326.83 758.121 327.261 758.06 327.72C758.511 327.587 758.914 327.327 759.22 326.97L764.73 320.46C765.034 320.11 765.229 319.679 765.29 319.22C764.839 319.353 764.436 319.613 764.13 319.97Z" fill="#E39B75"/>
<path d="M749.31 319.8C749.067 319.592 748.868 319.338 748.724 319.053C748.58 318.768 748.493 318.458 748.469 318.139C748.444 317.82 748.483 317.5 748.583 317.197C748.683 316.893 748.842 316.612 749.05 316.37L752.98 311.7C753.188 311.457 753.442 311.258 753.727 311.114C754.012 310.97 754.322 310.883 754.641 310.859C754.96 310.835 755.28 310.873 755.583 310.973C755.887 311.073 756.168 311.232 756.41 311.44C756.653 311.648 756.852 311.902 756.996 312.187C757.14 312.472 757.227 312.782 757.251 313.101C757.275 313.42 757.237 313.74 757.137 314.043C757.037 314.347 756.878 314.628 756.67 314.87L752.74 319.54C752.318 320.028 751.721 320.329 751.079 320.377C750.436 320.426 749.8 320.218 749.31 319.8Z" fill="#FFC3A3"/>
<path d="M752.22 319.07C751.935 319.406 751.748 319.815 751.68 320.25C752.099 320.117 752.472 319.872 752.76 319.54L756.69 314.87C756.834 314.891 756.981 314.865 757.109 314.796C757.237 314.726 757.338 314.617 757.398 314.485C757.459 314.352 757.474 314.204 757.443 314.062C757.411 313.92 757.334 313.792 757.223 313.697C757.112 313.603 756.974 313.547 756.828 313.538C756.683 313.53 756.539 313.569 756.418 313.649C756.297 313.73 756.205 313.848 756.157 313.985C756.108 314.122 756.106 314.271 756.15 314.41L752.22 319.07Z" fill="#E39B75"/>
<path d="M760.38 329.3C759.892 328.878 759.591 328.281 759.543 327.639C759.494 326.996 759.702 326.36 760.12 325.87L763.12 322.28C763.542 321.792 764.139 321.491 764.781 321.443C765.424 321.394 766.06 321.602 766.55 322.02C766.793 322.228 766.992 322.482 767.136 322.767C767.28 323.052 767.367 323.362 767.391 323.681C767.415 324 767.377 324.32 767.277 324.623C767.177 324.927 767.018 325.208 766.81 325.45L763.81 329.04C763.602 329.283 763.348 329.482 763.063 329.626C762.778 329.77 762.467 329.857 762.149 329.881C761.83 329.905 761.51 329.867 761.207 329.767C760.903 329.667 760.622 329.508 760.38 329.3Z" fill="#FFC3A3"/>
<path d="M909.653 415.212L907.787 415.083C906.547 414.997 905.473 415.933 905.387 417.172L904.163 434.86C904.077 436.1 905.012 437.174 906.252 437.26L908.117 437.389C909.357 437.475 910.432 436.539 910.517 435.3L911.742 417.612C911.828 416.372 910.892 415.298 909.653 415.212Z" fill="#FFAE83"/>
<path d="M909.68 434.37C909.648 434.922 909.758 435.473 910 435.97C910.311 435.513 910.497 434.982 910.54 434.43L911.63 418.61C911.669 418.061 911.558 417.511 911.31 417.02C911.005 417.476 910.822 418.003 910.78 418.55L909.68 434.37Z" fill="#E39B75"/>
<path d="M916.017 415.65L914.151 415.521C912.912 415.435 911.837 416.371 911.751 417.61L910.527 435.298C910.441 436.538 911.377 437.612 912.616 437.698L914.482 437.827C915.721 437.913 916.796 436.978 916.882 435.738L918.106 418.05C918.192 416.811 917.257 415.736 916.017 415.65Z" fill="#FFAE83"/>
<path d="M916.99 418.97L915.89 434.79C915.853 435.391 915.985 435.99 916.27 436.52C916.634 436.039 916.85 435.462 916.89 434.86L917.99 419.04C918.025 418.439 917.894 417.841 917.61 417.31C917.247 417.792 917.032 418.368 916.99 418.97Z" fill="#E39B75"/>
<path d="M903.217 416.083L901.351 415.954C900.112 415.868 899.037 416.803 898.951 418.043L897.947 432.548C897.861 433.788 898.797 434.862 900.036 434.948L901.902 435.077C903.142 435.163 904.216 434.228 904.302 432.988L905.306 418.483C905.392 417.243 904.457 416.169 903.217 416.083Z" fill="#FFAE83"/>
<path d="M903.38 432.07C903.346 432.645 903.467 433.218 903.73 433.73C904.066 433.26 904.267 432.706 904.31 432.13L905.19 419.49C905.224 418.915 905.103 418.342 904.84 417.83C904.5 418.298 904.299 418.853 904.26 419.43L903.38 432.07Z" fill="#E39B75"/>
<path d="M922.152 419.257L920.286 419.128C919.047 419.042 917.972 419.978 917.886 421.218L917.011 433.867C916.925 435.107 917.86 436.181 919.1 436.267L920.966 436.396C922.205 436.482 923.28 435.547 923.366 434.307L924.241 421.657C924.327 420.418 923.392 419.343 922.152 419.257Z" fill="#FFAE83"/>
<path d="M936.52 653.76C936.7 658.164 935.528 662.518 933.161 666.236C930.794 669.954 927.346 672.859 923.28 674.56C910.53 679.77 893.33 678.56 887.93 678.06C886.14 677.921 884.439 677.221 883.07 676.06C882.135 675.29 881.492 674.224 881.246 673.038C881.001 671.852 881.168 670.618 881.72 669.54C883.491 669.979 885.18 670.701 886.72 671.68C896.58 676.98 908.92 677.79 919.11 673.18C922.455 671.665 925.519 669.592 928.17 667.05C931.99 663.363 934.855 658.801 936.52 653.76Z" fill="#001529"/>
<path d="M904.93 643.64C904.367 645.282 903.576 646.838 902.58 648.26H861.06C859.988 648.287 858.941 647.93 858.108 647.253C857.276 646.577 856.713 645.625 856.52 644.57C856.377 643.519 856.622 642.452 857.21 641.57C857.714 642.331 858.366 642.984 859.127 643.489C859.888 643.994 860.743 644.341 861.64 644.51C863.442 644.855 865.281 644.956 867.11 644.81L902.4 643.59C903.243 643.542 904.089 643.558 904.93 643.64Z" fill="#001529"/>
<path d="M696.58 94.11C696.922 96.9684 696.66 99.8668 695.811 102.618C694.961 105.368 693.544 107.91 691.65 110.078C689.756 112.246 687.428 113.992 684.817 115.204C682.205 116.415 679.368 117.065 676.49 117.11H674.42C674.2 116.69 673.99 116.28 673.81 115.85C672.398 112.296 671.853 108.457 672.22 104.65C672.53 99.2957 674.256 94.1196 677.22 89.65C680.233 85.1939 684.73 81.9515 689.91 80.5C694.537 79.4707 699.346 79.6013 703.91 80.88C710.078 82.2978 715.853 85.0678 720.82 88.99C721.17 89.2641 721.504 89.5579 721.82 89.87C722.706 93.5722 723.281 97.342 723.54 101.14C713.984 102.352 704.328 99.8344 696.58 94.11Z" fill="#1C2C50"/>
<path d="M932.58 126.23C930.597 129.252 928.043 131.858 925.06 133.9C923.778 134.749 922.418 135.476 921 136.07C917.82 137.45 914 138.44 912.43 136.51C913.133 134.853 914.152 133.348 915.43 132.08C919.51 127.31 922.69 121.6 923.59 115.38C924.49 109.16 922.85 102.38 918.47 97.91C913.81 93.09 906.73 91.38 900.02 91.24C893.02 91.1 885.53 92.64 880.32 97.38C876.41 100.96 875.57 104.86 875.32 109.28C874.949 108.503 874.673 107.684 874.5 106.84C870.03 85.42 899.76 79.32 909.4 79.93C914.625 80.2711 919.669 81.9737 924.032 84.8685C928.395 87.7634 931.925 91.7498 934.269 96.4313C936.614 101.113 937.693 106.327 937.398 111.554C937.104 116.782 935.446 121.842 932.59 126.23H932.58Z" fill="#1C2C50"/>
<path fill-rule="evenodd" clip-rule="evenodd" d="M753.298 233.401L749.91 233.383C749.857 233.383 749.804 233.419 749.786 233.473L749.52 234.392C749.502 234.446 749.449 234.5 749.378 234.5L746.416 234.464C746.31 234.464 746.257 234.374 746.274 234.284L749.289 225.295C749.307 225.223 749.36 225.187 749.431 225.187L753.67 225.223C753.723 225.223 753.777 225.259 753.794 225.313L756.951 234.356C756.969 234.446 756.916 234.554 756.809 234.554L753.83 234.518C753.777 234.518 753.723 234.482 753.706 234.428L753.422 233.491C753.404 233.437 753.351 233.401 753.298 233.401ZM752.571 230.753L751.861 228.447C751.843 228.393 751.808 228.357 751.737 228.357H751.4C751.329 228.357 751.276 228.393 751.258 228.447L750.584 230.735C750.566 230.825 750.62 230.915 750.726 230.915L752.446 230.933C752.535 230.933 752.606 230.843 752.571 230.753Z" fill="black"/>
<path d="M756.331 230.429L756.295 225.385C756.295 225.313 756.366 225.259 756.437 225.259L759.363 225.277C759.434 225.277 759.488 225.331 759.488 225.403L759.523 230.375C759.523 231.42 759.949 232.086 760.995 232.086C762.059 232.104 762.485 231.438 762.467 230.393L762.432 225.439C762.432 225.349 762.503 225.295 762.574 225.295L765.482 225.313C765.553 225.313 765.606 225.385 765.606 225.457L765.642 230.483C765.66 233.546 764.152 234.915 761.013 234.897C757.891 234.879 756.348 233.491 756.331 230.429Z" fill="black"/>
<path d="M774.279 228.177L771.424 228.159C771.353 228.159 771.3 228.213 771.3 228.303L771.335 234.536C771.335 234.608 771.282 234.662 771.193 234.662L768.302 234.644C768.231 234.644 768.16 234.59 768.16 234.5L768.125 228.267C768.125 228.195 768.072 228.141 767.983 228.141L765.145 228.105C765.074 228.105 765.021 228.051 765.021 227.979L765.003 225.457C765.003 225.385 765.057 225.331 765.128 225.331L774.262 225.385C774.332 225.385 774.386 225.457 774.386 225.529L774.403 228.033C774.403 228.123 774.35 228.177 774.279 228.177Z" fill="black"/>
<path fill-rule="evenodd" clip-rule="evenodd" d="M774.403 230.051C774.386 227.042 776.337 225.096 779.405 225.114C782.473 225.132 784.442 227.114 784.46 230.123C784.477 233.113 782.544 235.059 779.458 235.041C776.408 235.023 774.421 233.041 774.403 230.051ZM781.32 230.087C781.303 228.735 780.434 228.015 779.423 228.015C778.412 227.997 777.543 228.717 777.543 230.069C777.56 231.42 778.447 232.14 779.44 232.14C780.451 232.158 781.32 231.438 781.32 230.087Z" fill="black"/>
<path d="M744.643 235.563L748.261 235.599C748.332 235.599 748.367 235.635 748.385 235.689L749.52 240.265C749.538 240.319 749.591 240.355 749.644 240.355H749.662C749.733 240.355 749.786 240.319 749.804 240.265L750.868 235.725C750.886 235.653 750.939 235.617 750.992 235.617L754.628 235.635C754.699 235.635 754.752 235.707 754.752 235.779L754.805 244.553C754.805 244.625 754.752 244.679 754.681 244.679L752.021 244.661C751.95 244.661 751.879 244.607 751.879 244.535L751.861 241.256C751.861 241.184 751.808 241.13 751.737 241.13C751.666 241.13 751.613 241.166 751.595 241.238L750.832 244.553C750.832 244.607 750.779 244.661 750.708 244.661L748.669 244.643C748.598 244.643 748.545 244.589 748.545 244.535L747.729 241.202C747.711 241.148 747.658 241.094 747.605 241.094C747.534 241.094 747.463 241.166 747.463 241.238L747.498 244.499C747.498 244.571 747.427 244.625 747.356 244.625L744.696 244.607C744.625 244.607 744.572 244.553 744.572 244.481L744.501 235.707C744.501 235.635 744.554 235.563 744.643 235.563Z" fill="black"/>
<path fill-rule="evenodd" clip-rule="evenodd" d="M770.182 244.715L769.207 242.607C769.189 242.553 769.154 242.535 769.1 242.535C767.516 242.535 765.932 242.529 764.347 242.517C764.347 240.247 764.347 237.977 764.347 235.707C764.347 235.635 764.4 235.563 764.471 235.563L769.154 235.599C771.459 235.617 772.772 236.698 772.772 239.22C772.789 240.355 772.364 241.202 771.761 241.76C771.708 241.796 771.69 241.868 771.725 241.923L773.02 244.607C773.055 244.697 773.002 244.805 772.896 244.805L770.306 244.787C770.271 244.763 770.23 244.739 770.182 244.715ZM767.309 239.923C767.309 239.995 767.362 240.049 767.433 240.067H768.958C769.544 240.067 769.828 239.743 769.828 239.22C769.828 238.68 769.544 238.356 768.958 238.338H767.433C767.362 238.338 767.291 238.392 767.291 238.482L767.309 239.923Z" fill="black"/>
<path d="M773.552 241.706L776.071 241.724C776.142 241.724 776.195 241.778 776.195 241.832C776.266 242.319 776.727 242.589 777.791 242.607C778.802 242.625 779.228 242.355 779.228 242.031C779.21 241.85 779.174 241.562 778.394 241.436L777.277 241.256C775.68 240.968 773.623 240.842 773.605 238.41C773.588 236.59 774.953 235.473 777.773 235.509C780.256 235.509 782.012 236.194 782.012 238.77C782.012 238.842 781.959 238.914 781.888 238.914L779.369 238.896C779.316 238.896 779.263 238.86 779.245 238.806C779.121 238.32 778.678 238.031 777.72 238.031C776.869 238.031 776.549 238.283 776.549 238.608C776.549 238.752 776.62 239.058 777.206 239.148L778.11 239.31C779.831 239.617 782.26 239.617 782.278 242.193C782.296 244.21 780.842 245.183 777.809 245.147C774.811 245.111 773.41 244.174 773.428 241.85C773.428 241.778 773.481 241.706 773.552 241.706Z" fill="black"/>
<path d="M783.236 235.833L786.038 235.851C786.109 235.851 786.18 235.924 786.18 235.996L786.233 244.769C786.233 244.841 786.18 244.895 786.109 244.895L783.289 244.877C783.218 244.877 783.165 244.823 783.165 244.751L783.112 235.978C783.094 235.905 783.165 235.833 783.236 235.833Z" fill="black"/>
<path d="M755.497 242.535H763.655V244.679H755.497V242.535Z" fill="#E10A3C"/>
<path d="M755.497 239.112H763.655V241.256H755.497V239.112Z" fill="#E10A3C"/>
<path d="M755.497 235.563H763.655V237.707H755.497V235.563Z" fill="#E10A3C"/>
</g>
<defs>
<clipPath id="clip0_310_2">
<rect width="1097.16" height="705.45" fill="white"/>
</clipPath>
</defs>
</svg>
