<?xml version="1.0" encoding="UTF-8"?> <svg xmlns="http://www.w3.org/2000/svg" viewBox="0 0 1097.16 705.45"> <g fill="#fff" opacity=".3"> <path d="m355.21 353.89v-44.8h-197.21v44.8h-57.22v346.52h311.61v-346.52zm-229.85 345.65h-13.36v-54.41h13.38zm0-68.37h-13.36v-54.41h13.38zm0-68.38h-13.36v-54.4h13.38zm0-68.37h-13.36v-54.42h13.38zm0-68.37h-13.36v-54.41h13.38zm23 273.49h-13.36v-54.41h13.38zm0-68.37h-13.36v-54.41h13.38zm0-68.38h-13.36v-54.4h13.38zm0-68.37h-13.36v-54.42h13.38zm0-68.37h-13.36v-54.41h13.38zm23 273.49h-13.36v-54.41h13.39zm0-68.37h-13.36v-54.41h13.39zm0-68.38h-13.36v-54.4h13.39zm0-68.37h-13.36v-54.42h13.39zm0-68.37h-13.36v-54.41h13.39zm23 273.49h-13.42v-54.41h13.38zm0-68.37h-13.42v-54.41h13.38zm0-68.38h-13.42v-54.4h13.38zm0-68.37h-13.42v-54.42h13.38zm0-68.37h-13.42v-54.41h13.38zm23 273.49h-13.44v-54.41h13.38zm0-68.37h-13.44v-54.41h13.38zm0-68.38h-13.44v-54.4h13.38zm0-68.37h-13.44v-54.42h13.38zm0-68.37h-13.44v-54.41h13.38zm23 273.49h-13.45v-54.41h13.38zm0-68.37h-13.45v-54.41h13.38zm0-68.38h-13.45v-54.4h13.38zm0-68.37h-13.45v-54.42h13.38zm0-68.37h-13.45v-54.41h13.38zm23 273.49h-13.47v-54.41h13.39zm0-68.37h-13.47v-54.41h13.39zm0-68.38h-13.47v-54.4h13.39zm0-68.37h-13.47v-54.42h13.39zm0-68.37h-13.47v-54.41h13.39zm23 273.49h-13.49v-54.41h13.39zm0-68.37h-13.49v-54.41h13.39zm0-68.38h-13.49v-54.4h13.39zm0-68.37h-13.49v-54.42h13.39zm0-68.37h-13.49v-54.41h13.39zm23 273.49h-13.5v-54.41h13.39zm0-68.37h-13.5v-54.41h13.39zm0-68.38h-13.5v-54.4h13.39zm0-68.37h-13.5v-54.42h13.39zm0-68.37h-13.5v-54.41h13.39zm23 273.49h-13.51v-54.41h13.38zm0-68.37h-13.51v-54.41h13.38zm0-68.38h-13.51v-54.4h13.38zm0-68.37h-13.51v-54.42h13.38zm0-68.37h-13.51v-54.41h13.38zm23 273.49h-13.53v-54.41h13.38zm0-68.37h-13.53v-54.41h13.38zm0-68.38h-13.53v-54.4h13.38zm0-68.37h-13.53v-54.42h13.38zm0-68.37h-13.53v-54.41h13.38zm23 273.49h-13.54v-54.41h13.38zm0-68.37h-13.54v-54.41h13.38zm0-68.38h-13.54v-54.4h13.38zm0-68.37h-13.54v-54.42h13.38zm0-68.37h-13.54v-54.41h13.38zm23 273.49h-13.56v-54.41h13.39zm0-68.37h-13.56v-54.41h13.39zm0-68.38h-13.56v-54.4h13.39zm0-68.37h-13.56v-54.42h13.39zm0-68.37h-13.56v-54.41h13.39z" opacity=".3" transform="translate(-100.78 -147.03)"></path> <path d="m11.2 224.61h13.38v54.41h-13.38z" opacity=".3"></path> <path d="m11.2 292.99h13.38v54.41h-13.38z" opacity=".3"></path> <path d="m11.2 361.36h13.38v54.41h-13.38z" opacity=".3"></path> <path d="m11.2 429.73h13.38v54.41h-13.38z" opacity=".3"></path> <path d="m11.2 498.1h13.38v54.41h-13.38z" opacity=".3"></path> <path d="m34.19 224.61h13.38v54.41h-13.38z" opacity=".3"></path> <path d="m34.19 292.99h13.38v54.41h-13.38z" opacity=".3"></path> <path d="m34.19 361.36h13.38v54.41h-13.38z" opacity=".3"></path> <path d="m34.19 429.73h13.38v54.41h-13.38z" opacity=".3"></path> <path d="m34.19 498.1h13.38v54.41h-13.38z" opacity=".3"></path> <path d="m57.17 224.61h13.38v54.41h-13.38z" opacity=".3"></path> <path d="m57.17 292.99h13.38v54.41h-13.38z" opacity=".3"></path> <path d="m57.17 361.36h13.38v54.41h-13.38z" opacity=".3"></path> <path d="m57.17 429.73h13.38v54.41h-13.38z" opacity=".3"></path> <path d="m57.17 498.1h13.38v54.41h-13.38z" opacity=".3"></path> <path d="m80.16 224.61h13.38v54.41h-13.38z" opacity=".3"></path> <path d="m80.16 292.99h13.38v54.41h-13.38z" opacity=".3"></path> <path d="m80.16 361.36h13.38v54.41h-13.38z" opacity=".3"></path> <path d="m80.16 429.73h13.38v54.41h-13.38z" opacity=".3"></path> <path d="m80.16 498.1h13.38v54.41h-13.38z" opacity=".3"></path> <path d="m103.14 224.61h13.38v54.41h-13.38z" opacity=".3"></path> <path d="m103.14 292.99h13.38v54.41h-13.38z" opacity=".3"></path> <path d="m103.14 361.36h13.38v54.41h-13.38z" opacity=".3"></path> <path d="m103.14 429.73h13.38v54.41h-13.38z" opacity=".3"></path> <path d="m103.14 498.1h13.38v54.41h-13.38z" opacity=".3"></path> <path d="m126.13 224.61h13.38v54.41h-13.38z" opacity=".3"></path> <path d="m126.13 292.99h13.38v54.41h-13.38z" opacity=".3"></path> <path d="m126.13 361.36h13.38v54.41h-13.38z" opacity=".3"></path> <path d="m126.13 429.73h13.38v54.41h-13.38z" opacity=".3"></path> <path d="m126.13 498.1h13.38v54.41h-13.38z" opacity=".3"></path> <path d="m149.11 224.61h13.38v54.41h-13.38z" opacity=".3"></path> <path d="m149.11 292.99h13.38v54.41h-13.38z" opacity=".3"></path> <path d="m149.11 361.36h13.38v54.41h-13.38z" opacity=".3"></path> <path d="m149.11 429.73h13.38v54.41h-13.38z" opacity=".3"></path> <path d="m149.11 498.1h13.38v54.41h-13.38z" opacity=".3"></path> <path d="m172.09 224.61h13.38v54.41h-13.38z" opacity=".3"></path> <path d="m172.09 292.99h13.38v54.41h-13.38z" opacity=".3"></path> <path d="m172.09 361.36h13.38v54.41h-13.38z" opacity=".3"></path> <path d="m172.09 429.73h13.38v54.41h-13.38z" opacity=".3"></path> <path d="m172.09 498.1h13.38v54.41h-13.38z" opacity=".3"></path> <path d="m195.08 224.61h13.38v54.41h-13.38z" opacity=".3"></path> <path d="m195.08 292.99h13.38v54.41h-13.38z" opacity=".3"></path> <path d="m195.08 361.36h13.38v54.41h-13.38z" opacity=".3"></path> <path d="m195.08 429.73h13.38v54.41h-13.38z" opacity=".3"></path> <path d="m195.08 498.1h13.38v54.41h-13.38z" opacity=".3"></path> <path d="m218.07 224.61h13.38v54.41h-13.38z" opacity=".3"></path> <path d="m218.07 292.99h13.38v54.41h-13.38z" opacity=".3"></path> <path d="m218.07 361.36h13.38v54.41h-13.38z" opacity=".3"></path> <path d="m218.07 429.73h13.38v54.41h-13.38z" opacity=".3"></path> <path d="m218.07 498.1h13.38v54.41h-13.38z" opacity=".3"></path> <path d="m241.05 224.61h13.38v54.41h-13.38z" opacity=".3"></path> <path d="m241.05 292.99h13.38v54.41h-13.38z" opacity=".3"></path> <path d="m241.05 361.36h13.38v54.41h-13.38z" opacity=".3"></path> <path d="m241.05 429.73h13.38v54.41h-13.38z" opacity=".3"></path> <path d="m241.05 498.1h13.38v54.41h-13.38z" opacity=".3"></path> <path d="m264.04 224.61h13.38v54.41h-13.38z" opacity=".3"></path> <path d="m264.04 292.99h13.38v54.41h-13.38z" opacity=".3"></path> <path d="m264.04 361.36h13.38v54.41h-13.38z" opacity=".3"></path> <path d="m264.04 429.73h13.38v54.41h-13.38z" opacity=".3"></path> <path d="m264.04 498.1h13.38v54.41h-13.38z" opacity=".3"></path> <path d="m287.02 224.61h13.38v54.41h-13.38z" opacity=".3"></path> <path d="m287.02 292.99h13.38v54.41h-13.38z" opacity=".3"></path> <path d="m287.02 361.36h13.38v54.41h-13.38z" opacity=".3"></path> <path d="m287.02 429.73h13.38v54.41h-13.38z" opacity=".3"></path> <path d="m287.02 498.1h13.38v54.41h-13.38z" opacity=".3"></path> <g opacity=".3"> <path d="m11.2 224.61h13.38v54.41h-13.38z"></path> <path d="m34.19 224.61h13.38v54.41h-13.38z"></path> <path d="m57.17 224.61h13.38v54.41h-13.38z"></path> <path d="m80.16 224.61h13.38v54.41h-13.38z"></path> <path d="m103.14 224.61h13.38v54.41h-13.38z"></path> <path d="m126.13 224.61h13.38v54.41h-13.38z"></path> <path d="m149.11 224.61h13.38v54.41h-13.38z"></path> <path d="m172.09 224.61h13.38v54.41h-13.38z"></path> <path d="m195.08 224.61h13.38v54.41h-13.38z"></path> <path d="m218.07 224.61h13.38v54.41h-13.38z"></path> <path d="m241.05 224.61h13.38v54.41h-13.38z"></path> <path d="m264.04 224.61h13.38v54.41h-13.38z"></path> <path d="m287.02 224.61h13.38v54.41h-13.38z"></path> </g> <g opacity=".3"> <path d="m11.2 292.99h13.38v54.41h-13.38z"></path> <path d="m34.19 292.99h13.38v54.41h-13.38z"></path> <path d="m57.17 292.99h13.38v54.41h-13.38z"></path> <path d="m80.16 292.99h13.38v54.41h-13.38z"></path> <path d="m103.14 292.99h13.38v54.41h-13.38z"></path> <path d="m126.13 292.99h13.38v54.41h-13.38z"></path> <path d="m149.11 292.99h13.38v54.41h-13.38z"></path> <path d="m172.09 292.99h13.38v54.41h-13.38z"></path> <path d="m195.08 292.99h13.38v54.41h-13.38z"></path> <path d="m218.07 292.99h13.38v54.41h-13.38z"></path> <path d="m241.05 292.99h13.38v54.41h-13.38z"></path> <path d="m264.04 292.99h13.38v54.41h-13.38z"></path> <path d="m287.02 292.99h13.38v54.41h-13.38z"></path> </g> <g opacity=".3"> <path d="m11.2 361.36h13.38v54.41h-13.38z"></path> <path d="m34.19 361.36h13.38v54.41h-13.38z"></path> <path d="m57.17 361.36h13.38v54.41h-13.38z"></path> <path d="m80.16 361.36h13.38v54.41h-13.38z"></path> <path d="m103.14 361.36h13.38v54.41h-13.38z"></path> <path d="m126.13 361.36h13.38v54.41h-13.38z"></path> <path d="m149.11 361.36h13.38v54.41h-13.38z"></path> <path d="m172.09 361.36h13.38v54.41h-13.38z"></path> <path d="m195.08 361.36h13.38v54.41h-13.38z"></path> <path d="m218.07 361.36h13.38v54.41h-13.38z"></path> <path d="m241.05 361.36h13.38v54.41h-13.38z"></path> <path d="m264.04 361.36h13.38v54.41h-13.38z"></path> <path d="m287.02 361.36h13.38v54.41h-13.38z"></path> </g> <g opacity=".3"> <path d="m11.2 429.73h13.38v54.41h-13.38z"></path> <path d="m34.19 429.73h13.38v54.41h-13.38z"></path> <path d="m57.17 429.73h13.38v54.41h-13.38z"></path> <path d="m80.16 429.73h13.38v54.41h-13.38z"></path> <path d="m103.14 429.73h13.38v54.41h-13.38z"></path> <path d="m126.13 429.73h13.38v54.41h-13.38z"></path> <path d="m149.11 429.73h13.38v54.41h-13.38z"></path> <path d="m172.09 429.73h13.38v54.41h-13.38z"></path> <path d="m195.08 429.73h13.38v54.41h-13.38z"></path> <path d="m218.07 429.73h13.38v54.41h-13.38z"></path> <path d="m241.05 429.73h13.38v54.41h-13.38z"></path> <path d="m264.04 429.73h13.38v54.41h-13.38z"></path> <path d="m287.02 429.73h13.38v54.41h-13.38z"></path> </g> <g opacity=".3"> <path d="m11.2 498.1h13.38v44.86h-13.38z"></path> <path d="m34.19 498.1h13.38v44.86h-13.38z"></path> <path d="m57.17 498.1h13.38v44.86h-13.38z"></path> <path d="m80.16 498.1h13.38v44.86h-13.38z"></path> <path d="m103.14 498.1h13.38v44.86h-13.38z"></path> <path d="m126.13 498.1h13.38v54.41h-13.38z"></path> <path d="m149.11 498.1h13.38v54.41h-13.38z"></path> <path d="m172.09 498.1h13.38v54.41h-13.38z"></path> <path d="m195.08 498.1h13.38v54.41h-13.38z"></path> <path d="m218.07 498.1h13.38v54.41h-13.38z"></path> <path d="m241.05 498.1h13.38v54.41h-13.38z"></path> <path d="m264.04 498.1h13.38v54.41h-13.38z"></path> <path d="m287.02 498.1h13.38v54.41h-13.38z"></path> </g> <path d="m510.62 336.7v120.23h-188.54v-120.23h34.04v-149.48l46.46-65.89 13.42 18.32 34.83 47.57v149.48z" opacity=".3"></path> <path d="m342.45 354.34h147.8v10.77h-147.8z" opacity=".3"></path> <path d="m342.45 379.07h147.8v10.77h-147.8z" opacity=".3"></path> <path d="m342.45 403.8h147.8v10.77h-147.8z" opacity=".3"></path> <path d="m342.45 428.53h147.8v10.77h-147.8z" opacity=".3"></path> <circle cx="402.58" cy="234.41" opacity=".3" r="27.55"></circle> <g opacity=".3"> <path d="m366.96 281.35h8.44v55.35h-8.44z"></path> <path d="m383.11 281.35h8.44v55.35h-8.44z"></path> <path d="m399.25 281.35h8.44v55.35h-8.44z"></path> <path d="m415.4 281.35h8.44v55.35h-8.44z"></path> <path d="m431.55 281.35h8.44v55.35h-8.44z"></path> </g> <path d="m570.84 0h248.76v403.8h-248.76z" opacity=".3"></path> <path d="m570.84 0h248.76v21.82h-248.76z" opacity=".3"></path> <g opacity=".3"> <path d="m593.26 39.93h19.31v363.87h-19.31z"></path> <path d="m624.03 39.93h19.31v363.87h-19.31z"></path> <path d="m654.8 39.93h19.31v363.87h-19.31z"></path> <path d="m685.56 39.93h19.31v363.87h-19.31z"></path> <path d="m716.33 39.93h19.31v363.87h-19.31z"></path> <path d="m747.1 39.93h19.31v363.87h-19.31z"></path> <path d="m777.87 39.93h19.31v363.87h-19.31z"></path> </g> <g opacity=".3"> <path d="m884.77 134.42h135.29v10.77h-135.29z"></path> <path d="m884.77 156.53h179.66v10.77h-179.66z"></path> <path d="m884.77 178.64h179.66v10.77h-179.66z"></path> <path d="m884.77 200.75h179.66v10.77h-179.66z"></path> <path d="m884.77 222.87h179.66v10.77h-179.66z"></path> <path d="m884.77 244.98h179.66v10.77h-179.66z"></path> <path d="m884.77 267.09h179.66v10.77h-179.66z"></path> <path d="m884.77 289.2h179.66v10.77h-179.66z"></path> <path d="m884.77 311.31h179.66v10.77h-179.66z"></path> <path d="m884.77 333.43h179.66v10.77h-179.66z"></path> <path d="m884.77 355.54h179.66v10.77h-179.66z"></path> <path d="m884.77 377.65h179.66v10.77h-179.66z"></path> <path d="m884.77 399.76h179.66v10.77h-179.66z"></path> <path d="m884.77 421.87h179.66v10.77h-179.66z"></path> <path d="m884.77 443.99h179.66v10.77h-179.66z"></path> <path d="m884.77 466.1h179.66v10.77h-179.66z"></path> <path d="m884.77 488.21h179.66v10.77h-179.66z"></path> <path d="m884.77 510.32h179.66v10.77h-179.66z"></path> <path d="m884.77 532.43h179.66v10.77h-179.66z"></path> </g> <path d="m1097.16 558.62h-244.83v-510.61l244.83 89.03z" opacity=".3"></path> <path d="m570.84 163.65v201.45h-60.22v-28.4h-59.79v-149.48l-34.83-47.57h74.24v120.27h58.34v-96.27z" opacity=".15"></path> <path d="m356.12 320.19v16.51h-34.04v105.83h-10.47v-122.34z" opacity=".15"></path> <path d="m80.16 173.99h151.29v20.95h-151.29z" opacity=".3"></path> </g> <g transform="translate(-100.78 -147.03)"> <path d="m1184.2 791.12c0 28.48-137.37 61.36-297.58 61.36-139.77 0-256.45-17.55-284-41-272.9-1.25-488.15-15.55-488.15-33 0-18.29 235.91-33.11 526.91-33.11 94.65 0 183.46 1.57 260.22 4.32h.06c108.61 3.88 193.09 10.12 235.84 17.61a185.92 185.92 0 0 1 27 7.18h.07c12.66 4.7 19.63 10.17 19.63 16.64z" fill="#275773" opacity=".2"></path> <path d="m890.72 836.17c-151.65 0-256.88-20.61-278.89-40l-.31-.28a9.47 9.47 0 0 0 -6.21-2.36c-124.62-.59-242.44-4.06-331.76-9.77-17.93-1.15-33.74-2.32-47.68-3.48-5.88-.5-5.89-9.1 0-9.59 17.27-1.46 37.4-2.91 60.86-4.31 97.74-5.84 224.7-9 357.51-9 91.79 0 182.14 1.55 261.28 4.49h.22c109.63 4.03 193.26 10.48 235.54 18.13a173.49 173.49 0 0 1 25.55 7l1 .38h.06a2.72 2.72 0 0 1 .32 4.91c-12.33 6.91-36.71 16.59-80.45 25.57-57.33 11.83-127.31 18.31-197.04 18.31z" fill="#275773" opacity=".2"></path> <path d="m1151.23 590.56v58.21c0 17-8.86 29.48-17.36 37.5a68.59 68.59 0 0 1 -15.4 11h-8.18v-13.41h-18.66c0-.56 0-1.12 0-1.68a97.48 97.48 0 0 0 -192.9-20v.1a97.69 97.69 0 0 0 -1.73 12.2q-.29 3.81-.29 7.7h-.81l-7.84.44v1a13.4 13.4 0 0 1 -1.18 5.46 13.08 13.08 0 0 1 -11.78 7.59c-3.54 0-9.09.07-16.32.1-68.33.44-287.6 1.82-396 2.46l-29.19.16-16.78.11a98.89 98.89 0 0 0 1.55-17.41 97.47 97.47 0 1 0 -194.93 0v.9h-16.69v13.21a3.7 3.7 0 0 1 -2.9 3.6 3.75 3.75 0 0 1 -2.38-.25 187.89 187.89 0 0 1 -23.46-12.78c-52.2-34-48.55-76.65-32.43-110.27a169.53 169.53 0 0 1 16.47-27 105 105 0 0 1 6.96-8.5 112.07 112.07 0 0 1 56.23-33.5c44.44-11 109-19.1 135.33-22.14l1.12-.14a58.92 58.92 0 0 0 20.8-6.83c60.42-33.36 138.59-63.63 183.14-79.82 101.32-34 474.5-10.33 480.48-.27.88 1.48 3.12 1.29 4.18 2.53a7.91 7.91 0 0 1 1.83 4.54v.47a7.78 7.78 0 0 1 -2.48 5.68 5.66 5.66 0 0 0 .88 9c58.59 36.88 78.72 90.43 84.54 111a55.25 55.25 0 0 1 2.07 15v30.06a3.24 3.24 0 0 0 3.23 3.24 10.81 10.81 0 0 1 10.88 10.74z" fill="#98d3d9"></path> <path d="m884.18 554.47a6.38 6.38 0 0 1 4.23 11.14 157.94 157.94 0 0 0 -33.94 43.76 85.43 85.43 0 0 0 -6.6 16.78 14.71 14.71 0 0 1 -14.06 10.9c-45.49.29-109.45.66-173.71 1l-176.87 1a14.7 14.7 0 0 1 -13.92-9.82 157.22 157.22 0 0 0 -42.55-63.7 6.38 6.38 0 0 1 4.24-11.06z" fill="#79b4ba" opacity=".4"></path> <path d="m320.87 539.26a142.92 142.92 0 0 0 -142.87 142.92q0 2.3.09 4.59a187.89 187.89 0 0 0 23.42 12.87 3.75 3.75 0 0 0 2.38.25 3.7 3.7 0 0 0 2.9-3.6v-13.21h16.68c0-.3 0-.6 0-.9a97.47 97.47 0 1 1 194.93 0 98.89 98.89 0 0 1 -1.55 17.41l16.78-.11 29.19-.16a140.73 140.73 0 0 0 1-17.14 142.92 142.92 0 0 0 -142.95-142.92z" fill="#a4e2e8"></path> <path d="m320.87 568.17a114 114 0 0 0 -114 114v.9h16.54c0-.3 0-.6 0-.9a97.47 97.47 0 1 1 194.93 0 98.89 98.89 0 0 1 -1.55 17.41l16.78-.11a116 116 0 0 0 1.3-17.3 114 114 0 0 0 -114-114z" fill="#121c33"></path> <path d="m1133.93 682.18c0 1.36 0 2.73-.06 4.09a68.59 68.59 0 0 1 -15.4 11h-8.18v-13.41h-18.66c0-.56 0-1.12 0-1.68a97.47 97.47 0 1 0 -194.94 0l-8.65.48v1a13.4 13.4 0 0 1 -1.18 5.46 13.08 13.08 0 0 1 -11.78 7.59c-3.54 0-9.09.07-16.32.1a134.46 134.46 0 0 1 -.78-14.68 138 138 0 0 1 275.94 0z" fill="#a4e2e8"></path> <path d="m1091.63 683.86c0-.56 0-1.12 0-1.68a97.47 97.47 0 1 0 -194.94 0l-8.65.48c0-64.51 41.61-115.53 106.12-115.53s116.12 52.2 116.12 116.7z" fill="#121c33"></path> <path d="m203 540c-26.05 12.76-41.7 28.06-49 36.54h-8.34a169.53 169.53 0 0 1 16.47-27 105 105 0 0 1 6.87-8.54h31.93z" fill="#1c2c50"></path> <path d="m1137.19 546.49v27.36c-6.26-1.94-13.5-7.51-17.74-21.92-5.55-18.88-24.69-28.88-37.61-33.61a10.46 10.46 0 0 1 3.64-20.26 10.12 10.12 0 0 1 3.41.59c23.18 8.16 37.45 20.49 46.23 32.84a.44.44 0 0 0 .05.15 53.9 53.9 0 0 1 1.94 12c.05.92.08 1.89.08 2.85z" fill="#d0504f"></path> <path d="m1137.19 546.49v27.36c-6.26-1.94-13.5-7.51-17.74-21.92-5.55-18.88-24.69-28.88-37.61-33.61a10.51 10.51 0 0 1 -3-1.72c.1-.21.22-.4.33-.59a10.41 10.41 0 0 1 12.33-4.44c22.66 8 36.81 20 45.63 32 .03.99.06 1.96.06 2.92z" fill="#d06d6c"></path> <path d="m1003.63 409.56a117.14 117.14 0 0 1 -49 57.18c-15.86 9.51-32.53 14.84-46.84 17.82-21.63 4.5-37.87 3.59-37.87 3.59l-131.67 4.67-24.15.85-14.57.59-261.25 10.44s85.74-110 281.38-112c3.6-.05 7.26-.05 10.94 0q7.08 0 14 0c46.91.26 88.33 1.76 123.51 3.78q19.86 1.15 37 2.47c63.47 4.8 98.52 10.61 98.52 10.61z" fill="#1c2c50" stroke="#275773" stroke-linecap="round" stroke-linejoin="round" stroke-width="2"></path> <path d="m477.76 487.77a309.69 309.69 0 0 1 37.14-26c40.1-23.97 108.1-52.77 204.92-53.77h5.66 5 .16q7 0 13.9 0c42 .23 83.27 1.49 122.72 3.76 12.67.73 25 1.56 36.76 2.45 33.85 2.55 59.58 5.41 76 7.49a101.72 101.72 0 0 1 -33.31 31.83 134.94 134.94 0 0 1 -42.07 16 156.19 156.19 0 0 1 -31 3.35c-1.88 0-2.94-.06-2.95-.06h-.66l-156.51 5.54-14.65.59z" fill="#98d3d9" opacity=".6"></path> <path d="m744.59 392.71-6.38 100.11-24.15.85-14.57.59 20.17-101.58c3.6-.05 7.26-.05 10.94 0q7.08-.01 13.99.03z" fill="#2f698a"></path> <path d="m907.75 484.56 1.77-26.4-41.42-61.67q19.86 1.15 37 2.47l49.44 67.78c-15.81 9.51-32.48 14.84-46.79 17.82z" fill="#2f698a"></path> <path d="m889.5 662.24a142.58 142.58 0 0 0 -1.45 20.45v1a13.35 13.35 0 0 1 -1.18 5.45 13.11 13.11 0 0 1 -11.78 7.6l-16.32.1c-68.33.43-287.6 1.81-396 2.45l-29.19.17a116.19 116.19 0 0 0 1.3-17.31 112.49 112.49 0 0 0 -1.55-18.74z" fill="#306a8b" opacity=".3"></path> <path d="m730.56 393.85c-20.43 105.67-25.08 201-10.39 298.56" style="stroke-linecap:round;stroke-linejoin:round;stroke-width:2;opacity:.3;fill:none;stroke:#98d3d9"></path> <path d="m888.87 399.1 50.83 84.49a67.48 67.48 0 0 1 7.71 50.91l-12.94 52.56" style="stroke-linecap:round;stroke-linejoin:round;stroke-width:2;opacity:.3;fill:none;stroke:#98d3d9"></path> <path d="m408.76 488.93-40.26 19.07a126.06 126.06 0 0 1 -26.6 6.37l-108.73 15.74" style="stroke-linecap:round;stroke-linejoin:round;stroke-width:2;opacity:.3;fill:none;stroke:#98d3d9"></path> <path d="m565.67 408.74c-24.34 10.56-83.82 37.89-157.26 82.59a22.12 22.12 0 0 1 -19.11 1.91c-4.84-1.77-11.22-3.9-18.56-5.86a2.12 2.12 0 0 1 -.09-4.08 58.4 58.4 0 0 0 11.85-4.93c60.42-33.36 138.59-63.63 183.14-79.82a5.56 5.56 0 0 1 .03 10.19z" fill="#1c2c50"></path> <path d="m245.73 546c-24.75 9.24-39.85 23.72-44.57 28.73a5.62 5.62 0 0 1 -4.1 1.78h-43.06c7.33-8.47 23-23.78 49-36.53h.07a193.58 193.58 0 0 1 25.93-10.45 9.91 9.91 0 0 1 7.93.81l6.63 3.78 3 1.73a5.62 5.62 0 0 1 -.83 10.15z" fill="#d0504f"></path> <path d="m438.28 504.7c-7.71 45-2.62 99.73 7.93 158.7" style="stroke-linecap:round;stroke-linejoin:round;stroke-width:2;opacity:.3;fill:none;stroke:#98d3d9"></path> <g fill="#79b4ba"> <path d="m492.6 512.67h-47a8.45 8.45 0 0 1 -7.8-11.73 34.55 34.55 0 0 1 3.21-5.73c3.91-5.7 9.63-11.31 14.13-15.33a26.65 26.65 0 0 1 15.31-6.64l15.1-1.38a9.08 9.08 0 0 1 9.51 6.31c1 3.16 2.2 7.67 3.59 14.06.23 1 .41 2 .55 3 2.21 15-6.6 17.44-6.6 17.44z"></path> <path d="m676 530.18h-46.24c4.46-4.63 13.14-7.76 23.11-7.76s18.67 3.13 23.13 7.76z"></path> <path d="m676.6 543.62c-4.22 5-13.26 8.44-23.73 8.44s-19.51-3.45-23.72-8.44z"></path> <path d="m911.17 526.3h-46.23c4.46-4.63 13.14-7.76 23.11-7.76s18.67 3.13 23.12 7.76z"></path> <path d="m911.78 539.74c-4.22 5-13.26 8.44-23.73 8.44s-19.5-3.45-23.72-8.44z"></path> </g> <path d="m245.73 546c-24.75 9.24-39.85 23.72-44.57 28.73a5.62 5.62 0 0 1 -4.1 1.78h-18.8c9.05-11.41 33-37.65 65.26-42.38l3 1.73a5.62 5.62 0 0 1 -.79 10.14z" fill="#d06d6c"></path> <path d="m499.22 495.21h-58.22c3.91-5.7 9.63-11.31 14.13-15.33a26.65 26.65 0 0 1 15.31-6.64l15.1-1.38a9.08 9.08 0 0 1 9.51 6.31c1 3.16 2.2 7.67 3.59 14.06.26 1.04.44 2.04.58 2.98z" fill="#a2dee6"></path> <path d="m994.17 583a99.21 99.21 0 0 0 -99.17 99.18 99.2 99.2 0 0 0 99.21 99.15h3.11a99.19 99.19 0 0 0 96.08-97.43c0-.57 0-1.14 0-1.71a99.21 99.21 0 0 0 -99.23-99.19z" fill="#1f465c"></path> <path d="m994.17 583c-2 0-3.94 0-5.9.18a99.2 99.2 0 0 1 93.3 99v1.71a99.18 99.18 0 0 1 -93.3 97.3c2 .13 3.93.18 5.91.18h3.11a99.19 99.19 0 0 0 96.08-97.43c0-.57 0-1.14 0-1.71a99.21 99.21 0 0 0 -99.2-99.23z" fill="#121c33" opacity=".3"></path> <path d="m994.17 746.51a64.34 64.34 0 1 1 64.35-64.33 64.35 64.35 0 0 1 -64.35 64.33z" fill="#fff"></path> </g> <circle cx="893.39" cy="535.14" fill="#a6a6a6" r="6"></circle> <circle cx="893.39" cy="519.26" fill="#275773" r="3.13"></circle> <circle cx="878.46" cy="529.71" fill="#275773" r="3.13"></circle> <circle cx="883.18" cy="547.31" fill="#275773" r="3.13"></circle> <circle cx="901.33" cy="548.9" fill="#275773" r="3.13"></circle> <circle cx="909.03" cy="532.39" fill="#275773" r="3.13"></circle> <path d="m954.45 648.37a45.06 45.06 0 0 1 20.76-15.51 5.56 5.56 0 0 1 7.38 3.81 51.22 51.22 0 0 1 .71 20.41 5.65 5.65 0 0 1 -5.8 4.77 54.74 54.74 0 0 1 -21-5.07 5.59 5.59 0 0 1 -2.05-8.41z" fill="#275773" transform="translate(-100.78 -147.03)"></path> <path d="m948.82 707.93a45.08 45.08 0 0 1 -7.48-24.8 5.57 5.57 0 0 1 6.11-5.64 51.16 51.16 0 0 1 19.42 6.31 5.65 5.65 0 0 1 2.5 7.08 54.77 54.77 0 0 1 -11.93 18 5.6 5.6 0 0 1 -8.62-.95z" fill="#275773" transform="translate(-100.78 -147.03)"></path> <path d="m1002.86 733.6a45 45 0 0 1 -25.86-1.46 5.56 5.56 0 0 1 -3.21-7.67 51.34 51.34 0 0 1 12.57-16.09 5.66 5.66 0 0 1 7.51.07 54.8 54.8 0 0 1 12.8 17.36 5.6 5.6 0 0 1 -3.81 7.79z" fill="#275773" transform="translate(-100.78 -147.03)"></path> <path d="m1045.47 691.59a45.12 45.12 0 0 1 -10.22 23.81 5.56 5.56 0 0 1 -8.3.39 51 51 0 0 1 -10.82-17.32 5.65 5.65 0 0 1 2.63-7 54.79 54.79 0 0 1 20.68-6.09 5.6 5.6 0 0 1 6.03 6.21z" fill="#275773" transform="translate(-100.78 -147.03)"></path> <path d="m1020.56 637.19a45.08 45.08 0 0 1 18.88 17.75 5.56 5.56 0 0 1 -2.47 7.93 51.22 51.22 0 0 1 -20 4.24 5.64 5.64 0 0 1 -5.7-4.88 54.66 54.66 0 0 1 1.35-21.51 5.6 5.6 0 0 1 7.94-3.53z" fill="#275773" transform="translate(-100.78 -147.03)"></path> <path d="m320.86 780.29a98.12 98.12 0 1 1 98.14-98.11 98.11 98.11 0 0 1 -98.14 98.11z" fill="#1f465c" transform="translate(-100.78 -147.03)"></path> <path d="m320.87 584.05c-2 0-3.9.05-5.83.18a98.12 98.12 0 0 1 15.85 193.65h-.1a94.28 94.28 0 0 1 -14.07 2.12c1.81.16 3.58.25 5.32.29a98 98 0 0 0 20.42-2.37h.1a98.25 98.25 0 0 0 74.88-78.18 100.06 100.06 0 0 0 1.56-17.56 98.12 98.12 0 0 0 -98.13-98.13z" fill="#121c33" opacity=".3" transform="translate(-100.78 -147.03)"></path> <path d="m320.87 745.81a63.64 63.64 0 1 1 63.65-63.63 63.63 63.63 0 0 1 -63.65 63.63z" fill="#fff" transform="translate(-100.78 -147.03)"></path> <circle cx="220.09" cy="535.14" fill="#a6a6a6" r="5.93"></circle> <circle cx="220.09" cy="519.43" fill="#275773" r="3.09"></circle> <circle cx="205.33" cy="529.77" fill="#275773" r="3.09"></circle> <circle cx="209.99" cy="547.18" fill="#275773" r="3.09"></circle> <circle cx="227.95" cy="548.75" fill="#275773" r="3.09"></circle> <circle cx="235.57" cy="532.42" fill="#275773" r="3.09"></circle> <path d="m281.59 648.74a44.49 44.49 0 0 1 20.53-15.34 5.5 5.5 0 0 1 7.3 3.77 50.45 50.45 0 0 1 .7 20.18 5.58 5.58 0 0 1 -5.73 4.72 54.13 54.13 0 0 1 -20.73-5 5.53 5.53 0 0 1 -2.07-8.33z" fill="#275773" transform="translate(-100.78 -147.03)"></path> <path d="m276 707.65a44.55 44.55 0 0 1 -7.4-24.53 5.5 5.5 0 0 1 6-5.58 50.43 50.43 0 0 1 19.21 6.25 5.57 5.57 0 0 1 2.47 7 54.1 54.1 0 0 1 -11.8 17.76 5.53 5.53 0 0 1 -8.48-.9z" fill="#275773" transform="translate(-100.78 -147.03)"></path> <path d="m329.47 733a44.51 44.51 0 0 1 -25.58-1.45 5.49 5.49 0 0 1 -3.17-7.58 50.5 50.5 0 0 1 12.43-15.91 5.59 5.59 0 0 1 7.43.07 54.22 54.22 0 0 1 12.65 17.16 5.53 5.53 0 0 1 -3.76 7.71z" fill="#275773" transform="translate(-100.78 -147.03)"></path> <path d="m371.61 691.49a44.54 44.54 0 0 1 -10.11 23.51 5.48 5.48 0 0 1 -8.2.38 50.57 50.57 0 0 1 -10.71-17.13 5.58 5.58 0 0 1 2.61-6.95 54.18 54.18 0 0 1 20.45-6 5.53 5.53 0 0 1 5.96 6.19z" fill="#275773" transform="translate(-100.78 -147.03)"></path> <path d="m347 637.68a44.51 44.51 0 0 1 18.67 17.55 5.5 5.5 0 0 1 -2.45 7.85 50.45 50.45 0 0 1 -19.75 4.2 5.59 5.59 0 0 1 -5.64-4.83 54.06 54.06 0 0 1 1.34-21.28 5.53 5.53 0 0 1 7.83-3.49z" fill="#275773" transform="translate(-100.78 -147.03)"></path> <path d="m824.38 248.22c.26 4.1-.4 9.23-4.22 10.64 1 1.05 4.19 45.25-11 45.25l3.5 10.39 7.68 31.89-13.45 7.33-29.35-6.46-22-21.37 6-16.9s19.31-7.55 14.48-28.09a1.56 1.56 0 0 0 -1.3-1.17c-4.12-.53-19.33-6-9.6-17.73 0 0-.27-.57-.7-1.56-2.5-5.78-10.32-26-.17-32.86 56.91-45.16 60.03 19.14 60.13 20.64z" fill="#ffae83" transform="translate(-100.78 -147.03)"></path> <path d="m761.54 309 4.14 4.51a195.81 195.81 0 0 1 13.32 16.18c6.16 8.31 17.26 20.71 25.31 14.95 11.7-8.39 8.39-30.14 8.39-30.14l11.65 11.66 7.39 63.2.69 95.91-2.79 19.05-54.86.87-22-18.34 1-34.77-12.94-108.14z" fill="#fff" transform="translate(-100.78 -147.03)"></path> <path d="m844.35 620.59-7.86 146.22h-26.2l-23.29-177.15-32.79 175.58h-24.91l-4.18-118.71c-5.83-72-.87-113.44 1.76-128.82.79-4.67 1.37-6.93 1.37-6.93l6.82-18.87c34.31 3.72 67.3 4.33 98.19 0l5.07 8a162.77 162.77 0 0 1 2.91 17.75c4.58 39.62 3.11 102.93 3.11 102.93z" fill="#1c2c50" transform="translate(-100.78 -147.03)"></path> <path d="m749.69 507.72c-43.5 6.54-49.53-4-47.12-8.2 2.64-4.53 12.81-27.89 17.64-41.85a12.39 12.39 0 0 0 -1.36-11c-11-16.37-16.28-68.77-16.28-89.22 0-22 10.76-26.47 10.76-26.47l43.47-19.85 4.74-2.17c19.1 22.56 25.76 62.31 27.77 79 .6 4.83.79 7.73.79 7.73v49s3.1 56.47-40.41 63.03z" fill="#8abfc5" transform="translate(-100.78 -147.03)"></path> <path d="m656.02 164.13-5.48 29.64 11.36-4.02-8.04 9.67 34.67 41.56-24.36-42.98 3.49-13.49-12.88 2.97z" fill="#7babb0"></path> <path d="m758.83 345.34 7.17-11.18-11.36 2.61 2.16-25.61 4.74-2.17c19.1 22.56 25.76 62.31 27.77 79-10.07-17.74-30.48-42.65-30.48-42.65z" fill="#97d3d9" transform="translate(-100.78 -147.03)"></path> <path d="m860.11 353.47c-.13 1.57-.36 3.13-.62 4.68-3.66 21.72-12.78 144-12.78 144-17.57-1.8-33.71-10.65-33-102.68 0-.37 0-.73 0-1.09 4.18-37.21-1.05-83.86-1.05-83.86 4.34 1.72 8.3 3.34 11.92 4.86 32.6 13.62 36.72 19.62 35.53 34.09z" fill="#8abfc5" transform="translate(-100.78 -147.03)"></path> <path d="m723.79 172.33 7.82 11.83-9 .61 10.13 4.8-19.83 62.85 7.8-63.72-5.31-7.08z" fill="#7babb0"></path> <path d="m813.7 398.36c4.18-37.21-1.05-83.86-1.05-83.86l11.92 4.86 3.92 10.6-9.3.92 11.14 5.76s-10.39 43.49-16.63 62.81c-.02-.37 0-.73 0-1.09z" fill="#97d3d9" transform="translate(-100.78 -147.03)"></path> <path d="m808.61 304.1a39.16 39.16 0 0 1 -19.84-6.69" fill="none" stroke="#e39b75" stroke-linecap="round" stroke-linejoin="round" stroke-width=".75" transform="translate(-100.78 -147.03)"></path> <path d="m794.14 264.58a5 5 0 0 1 5.49-5.49" fill="none" stroke="#1c2c50" stroke-linecap="round" stroke-linejoin="round" transform="translate(-100.78 -147.03)"></path> <path d="m810.61 256.93a4.6 4.6 0 0 1 6.51-4 2.64 2.64 0 0 1 1.63 1.86" fill="none" stroke="#1c2c50" stroke-linecap="round" stroke-linejoin="round" transform="translate(-100.78 -147.03)"></path> <circle cx="698.98" cy="119.91" fill="#1c2c50" r="1.66"></circle> <circle cx="715.23" cy="115.02" fill="#1c2c50" r="2.01"></circle> <path d="m810.86 292.1a6.12 6.12 0 0 1 -3.59 2.51 7.38 7.38 0 0 1 -.78.19 11.22 11.22 0 0 1 -8.78-1.86 12.27 12.27 0 0 1 -4.49-6.21 12.53 12.53 0 0 1 -.5-2.2c-.33-2.4-.11-6.1 1.45-8.11.85-1.12 1.86.83 2.5 1.47a14.29 14.29 0 0 0 3 2.34 55.49 55.49 0 0 0 5.62 2.5 12 12 0 0 1 4.94 3.57 5.46 5.46 0 0 1 .63 5.8z" fill="#fff" stroke="#1c2c50" stroke-linecap="round" stroke-linejoin="round" transform="translate(-100.78 -147.03)"></path> <path d="m806.49 294.8a11.22 11.22 0 0 1 -8.78-1.86 12.27 12.27 0 0 1 -4.49-6.21l.15-.08a7.48 7.48 0 0 1 6.43.24 15.52 15.52 0 0 1 5.06 4.27 6.8 6.8 0 0 1 1.58 2.75 3 3 0 0 1 .05.89z" fill="#1c2c50" transform="translate(-100.78 -147.03)"></path> <path d="m810.92 262.19c.22 3.19.49 6.52 2.16 9.25a11.71 11.71 0 0 0 3.42 3.56 5.46 5.46 0 0 1 1 .75 1.45 1.45 0 0 1 .44 1.1c0 .65-.66 1.09-1.23 1.41a20.48 20.48 0 0 1 -4.56 1.91" fill="none" stroke="#1c2c50" stroke-linecap="round" stroke-linejoin="round" transform="translate(-100.78 -147.03)"></path> <path d="m797.36 241.14a20.56 20.56 0 0 1 -20.09 23h-2.07c-3.64 0-6.82-.21-10.08-2.2-2.68-5.73-11.38-27.46-.87-34.42 41.52-33.26 54.43-7.33 58.41 9.37a68.36 68.36 0 0 1 1.72 11.27 37.44 37.44 0 0 1 -27.02-7.02z" fill="#21345e" transform="translate(-100.78 -147.03)"></path> <path d="m749.75 770.83v5.41c-4.78 4.14-10.18 4-16.16 0l-1.05-5.41z" fill="#ffae83" transform="translate(-100.78 -147.03)"></path> <path d="m752 781v23.69a8.86 8.86 0 0 1 -3.51 7.16c-13.61 9.95-32.25 6-40.87 3.36a6.68 6.68 0 0 1 -4.72-6.4 6.66 6.66 0 0 1 2.1-4.81 5.8 5.8 0 0 1 .89-.75 83.26 83.26 0 0 0 23.54-25.25 3.66 3.66 0 0 1 3.14-1.79h1c6 4 11.38 4.14 16.16 0a6.13 6.13 0 0 1 2.27 4.79z" fill="#8290bf" transform="translate(-100.78 -147.03)"></path> <path d="m832.76 773.1v7.67q-9.81 6.54-17.89 0v-7.67z" fill="#ffae83" transform="translate(-100.78 -147.03)"></path> <path d="m863.81 808.16c-14.5.49-54.56 1.29-56.8-4.93a14.61 14.61 0 0 1 -.57-6 49.34 49.34 0 0 1 3.3-13 5.49 5.49 0 0 1 5.13-3.53 13.32 13.32 0 0 0 8.52 3.27 16.93 16.93 0 0 0 9.37-3.27v-2.19l2.42.72s24.89 13.71 31.58 18l.19.13a5.63 5.63 0 0 1 .88.72 5.91 5.91 0 0 1 -4.02 10.08z" fill="#8290bf" transform="translate(-100.78 -147.03)"></path> <path d="m629.66 618.21.62 5.59h20l2.18-5.59z" fill="#fff"></path> <path d="m711.14 619.78.86 6.29h21.81l1.11-6.29z" fill="#fff"></path> <rect fill="#fff" height="144.92" rx="5" width="101.5" x="737.24" y="203.9"></rect> <path d="m879 462.91 2.29 1.95a2.35 2.35 0 0 0 3.1.16 2.36 2.36 0 0 0 .26-3.46l-6.59-6.42-6.71-6.47-6.44-7.73a7.62 7.62 0 0 0 -8.37-2.31l-14.41 5.07-2.62 18.51h13.76l15.48 11a2.36 2.36 0 0 0 3.09-.32 2.35 2.35 0 0 0 -.29-3.46z" fill="#ffae83" transform="translate(-100.78 -147.03)"></path> <path d="m883.81 440.23h-19.26a6.74 6.74 0 0 0 -5.68 3.11l-5.1 7.94a2.25 2.25 0 0 0 2 3.47 10.13 10.13 0 0 0 9.43-6.08h6.15l12.76 12.33 9.77-1.71-6.55-19.06z" fill="#ffc3a3" transform="translate(-100.78 -147.03)"></path> <path d="m884.1 461-13.2-10.74-4.82.37c-3.3 4.88-10.33 4.13-10.33 4.13a10.12 10.12 0 0 0 9.44-6.08h6.15z" fill="#e39b75" transform="translate(-100.78 -147.03)"></path> <rect fill="#ffae83" height="20.34" rx="2.11" width="5.83" x="779.34" y="196.79"></rect> <path d="m885.17 361.25a.77.77 0 1 0 .78 0v-14.52a.77.77 0 1 0 -.78 0z" fill="#e39b75" transform="translate(-100.78 -147.03)"></path> <rect fill="#ffae83" height="20.34" rx="2.11" width="5.83" x="785.17" y="196.79"></rect> <path d="m890.87 346.73v14.52a2.85 2.85 0 0 0 .46 1.55 2.93 2.93 0 0 0 .45-1.55v-14.52a2.93 2.93 0 0 0 -.45-1.55 2.85 2.85 0 0 0 -.46 1.55z" fill="#e39b75" transform="translate(-100.78 -147.03)"></path> <rect fill="#ffae83" height="17.43" rx="2.11" width="5.83" x="773.51" y="198"></rect> <path d="m879.27 359.54a2.85 2.85 0 0 0 .43 1.5 2.94 2.94 0 0 0 .42-1.5v-11.54a2.94 2.94 0 0 0 -.42-1.5 2.85 2.85 0 0 0 -.43 1.5z" fill="#e39b75" transform="translate(-100.78 -147.03)"></path> <rect fill="#ffae83" height="15.72" rx="2.11" width="5.83" x="791" y="199.71"></rect> <path d="m720.17 449.31 105.25 14.52 14.82 1.7c3.72-7.31 5.9-15.94 7-25.5l-15.49-4.15-84.27-22.58" fill="#8abfc5" transform="translate(-100.78 -147.03)"></path> <path d="m847.23 440c-1.09 9.56-3.27 18.19-7 25.5l-14.82-1.7c4.16-9.78 5.77-22.21 6.32-27.95z" fill="#97d3d9" transform="translate(-100.78 -147.03)"></path> <path d="m977.73 435.88s-48.91 21.1-85.94 26.33c-4.85-13.37-7-19.33-8-22l-.79-2.11s59.53-22.2 94.21-64.45c1-1.21 2-2.44 2.93-3.68 8.43 59.03-2.41 65.91-2.41 65.91z" fill="#7688bf" transform="translate(-100.78 -147.03)"></path> <path d="m978 376.88c-36.17 47.16-94.2 63.36-94.2 63.36l-.8-2.14s59.53-22.2 94.21-64.45a29.11 29.11 0 0 1 .79 3.23z" fill="#959fbf" transform="translate(-100.78 -147.03)"></path> <path d="m1057.41 623.3s-22.9 138.35-26.38 153.9c-.72.13-1.42.25-2.1.35a59.13 59.13 0 0 1 -11.79.48c-.43 0-.86 0-1.26-.09s-.49 0-.74-.06-.8-.08-1.19-.12a.58.58 0 0 1 -.19 0l-.67-.07c-.31 0-.6-.07-.89-.12l-.92-.13c-.56-.09-1.08-.17-1.54-.26-1.9-.35-3-.65-3-.65l-.13-1.58c-.06-.67-.13-1.59-.25-2.95s-.29-3.38-.51-6c-4.09.65-9.42-.08-12-.5-.93-.16-1.49-.28-1.49-.28l-24.06-258.11h97.19c6.35 32.89-8.08 116.19-8.08 116.19z" fill="#2f698a" transform="translate(-100.78 -147.03)"></path> <path d="m905.09 618.99-.81-236.69-5.97 3.82 4.76 233.08z" fill="#2a5d7a"></path> <path d="m904.28 442.37 23.87 7.86-11.79 180.77 10.19-.27 24.48-254.75 13.68-15.9-84.95 1.13 18.55 24.91z" fill="#2a5d7a"></path> <path d="m1067.54 459a6.26 6.26 0 0 0 2.1 8.14l6.06 26.21 3.19 13.79q-5.73.27-11.39.5-12 .5-23.65.82l-9 .21c-26.71.53-51.52.19-73.31-1.53l5.19-78.14c5.24-78.1 34.42-112.51 34.42-112.51l-.14 1.1c-.87 7.86 2.51 9.9 5.55 10.22a9.44 9.44 0 0 0 6.3-1.76 48.14 48.14 0 0 0 4.19-3.29c12.77-11.29 11.13-23.65 11-24.4 5.23 0 62 30.46 57 84.23-2.3 29.25-10.57 62.28-17.51 76.41z" fill="#8290bf" transform="translate(-100.78 -147.03)"></path> <path d="m1078.89 507.11q-5.73.27-11.39.5-12 .5-23.65.82a7.86 7.86 0 0 1 -.11-.83 22.45 22.45 0 0 1 .93-7.66c1.28-5.1 2.83-10.14 4.6-15.09 3-8.33 7-16.83 14.36-21.85 3-2.1.25-3.47 3.91-4a6.26 6.26 0 0 0 2.1 8.14l6.06 26.21z" fill="#7688bf" transform="translate(-100.78 -147.03)"></path> <path d="m966.37 319.27-33.9 69.53-2.37-.76-5.5-1.78-14.7-4.76-2.25-.73 24.82-140.82 19.97 46.71z" fill="#8290bf"></path> <rect fill="#fff" height="25.07" rx="3" transform="matrix(.99644891 .08419959 -.08419959 .99644891 -49.83 -230.43)" width="53.11" x="987.09" y="549.35"></rect> <path d="m1033.37 535.87-4.2 7.24a18 18 0 0 0 -2.43 9v7.56a48.16 48.16 0 0 1 -1.9 13.4l-1.24 4.27h-24.5s-.27-11 1.57-18.61 12.5-29.41 12.5-29.41z" fill="#ffae83" transform="translate(-100.78 -147.03)"></path> <path d="m1028.93 777.55v5.52a3.48 3.48 0 0 1 0 .57 3.89 3.89 0 0 1 -1.83 2.75 3.74 3.74 0 0 1 -.45.22h-.07a25.92 25.92 0 0 1 -3.75 1.16l-.55.12-.76.14a18.4 18.4 0 0 1 -2.93.25h-.95c-.45 0-.89-.08-1.34-.14l-.85-.14h-.07a4.27 4.27 0 0 1 -.54-.13 5.87 5.87 0 0 1 -.6-.16 5.45 5.45 0 0 1 -.61-.2c-.34-.1-.66-.23-1-.36a10.39 10.39 0 0 1 -1-.44c-.28-.14-.57-.29-.86-.46s-.69-.41-1-.64v-8.44c.46.09 1 .17 1.54.26l.92.13c.29.05.58.09.89.12l.67.07a.58.58 0 0 0 .19 0c.39 0 .79.09 1.19.12s.49 0 .74.06.83.07 1.26.09a59.13 59.13 0 0 0 11.76-.47z" fill="#ffae83" transform="translate(-100.78 -147.03)"></path> <path d="m1006.62 774.92c-8.87 1.47-12.72-2.95-12.72-2.95v-6.45c2.54.42 7.87 1.15 12 .5.22 2.57.38 4.5.51 6s.15 2.23.21 2.9z" fill="#ffae83" transform="translate(-100.78 -147.03)"></path> <path d="m1009.73 777.15v8.44l-.21.11a7.94 7.94 0 0 0 -3.72 4.68c0 .09 0 .18-.09.29a18.53 18.53 0 0 1 -2.35 4.62h-41.52a4.5 4.5 0 0 1 -4.54-3.69 4.35 4.35 0 0 1 .69-3c1.75-2.85 6.51-5 11.8-5.6 5.59-.69 11.58-4.86 15.29-7.88a14 14 0 0 1 8.82-3.12s2.84 3.25 9.24 3.25a21.26 21.26 0 0 0 3.48-.3l.13 1.58s1.08.27 2.98.62z" fill="#8abfc5" transform="translate(-100.78 -147.03)"></path> <path d="m1027.05 307.86c-1.63 5.34-5.46 12.13-14.19 18.21a9.44 9.44 0 0 1 -6.3 1.76c-3-.32-6.42-2.36-5.55-10.22l.14-1.1v-7a6.75 6.75 0 0 0 -7.95-6.62l-5.22 1a3.79 3.79 0 0 1 -4.48-3.73v-5.24a3.66 3.66 0 0 0 -3.67-3.66h-2.12a2.61 2.61 0 0 1 -2.52-3.32l7.51-26.2a6.76 6.76 0 0 0 .77.1c2.1.17 4.16-.53 6.25-.83s4.46-.11 5.91 1.43c1.16 1.24 1.64 3.26 3.25 3.81a3.09 3.09 0 0 0 3.19-1.12 7.91 7.91 0 0 0 1.4-3.25 24.61 24.61 0 0 1 1.93-6.26c1.07-1.91 3.08-3.49 5.27-3.3a5.35 5.35 0 0 1 4 2.84 12.36 12.36 0 0 1 1.33 4.84 36.91 36.91 0 0 1 -.4 10.7c-.61 3.28-2.63 6.53-3 9.76-.44 4 2.17 4.64 5.24 4a20.42 20.42 0 0 0 3.94-1.3 4.55 4.55 0 0 0 .27.73l6 14.51a23.31 23.31 0 0 1 -1 9.46z" fill="#ffae83" transform="translate(-100.78 -147.03)"></path> <path d="m1033.36 273.26a27.73 27.73 0 0 1 -7.52 7.67 24.51 24.51 0 0 1 -4.06 2.17c-3.18 1.38-7 2.37-8.57.44a4.24 4.24 0 0 1 -.61-3.13c.35-3.23 2.37-6.48 3-9.76a36.91 36.91 0 0 0 .4-10.7 12.36 12.36 0 0 0 -1.33-4.87 5.35 5.35 0 0 0 -4-2.84c-2.19-.19-4.2 1.39-5.27 3.3a24.61 24.61 0 0 0 -1.93 6.26 7.91 7.91 0 0 1 -1.4 3.25 3.09 3.09 0 0 1 -3.19 1.12c-1.61-.55-2.09-2.57-3.25-3.81-1.92-2-5.43-1.7-7.78-1a11.29 11.29 0 0 1 -4.32.42 7.53 7.53 0 0 1 -.83-.1 8.42 8.42 0 0 1 -3.11-1.23 9.4 9.4 0 0 1 -3.5-4.12 10.62 10.62 0 0 1 -.82-2.44c-4.47-21.42 25.26-27.52 34.9-26.91a30 30 0 0 1 23.19 46.3z" fill="#21345e" transform="translate(-100.78 -147.03)"></path> <circle cx="885.52" cy="125.81" fill="#1c2c50" r="2.1"></circle> <path d="m984.2 267.17a3.18 3.18 0 0 1 2.62-1.25 4.72 4.72 0 0 1 2.77 1 6.37 6.37 0 0 1 2.4 3.79" fill="none" stroke="#1c2c50" stroke-linecap="round" stroke-linejoin="round" transform="translate(-100.78 -147.03)"></path> <path d="m992.94 293.59a10.06 10.06 0 0 0 3.29-6.84 8.63 8.63 0 0 1 2.38 6 6.33 6.33 0 0 1 -3.19 5.4 7.31 7.31 0 0 1 -5.09.42c-.88-.21-5.45-1.6-3-2.45 2.11-.75 3.89-.98 5.61-2.53z" fill="#fff" stroke="#1c2c50" stroke-linecap="round" stroke-linejoin="round" transform="translate(-100.78 -147.03)"></path> <path d="m1037.3 800.79a21.59 21.59 0 0 1 -13.24 20.8c-12.75 5.21-29.95 4-35.35 3.5a8.54 8.54 0 0 1 -4.86-2 5.31 5.31 0 0 1 -1.35-6.52c1-2.29 3.33-5.13 8-8.59 6.8-5 10.67-9.33 12.86-12.66a18.43 18.43 0 0 0 2.44-4.91 7.94 7.94 0 0 1 3.72-4.68l.21-.11c.35.23.7.45 1 .64s.58.32.86.46a10.39 10.39 0 0 0 1 .44 7.35 7.35 0 0 0 1 .36 5.45 5.45 0 0 0 .61.2 5.87 5.87 0 0 0 .6.16 4.27 4.27 0 0 0 .54.13h.07l.85.14c.45.06.89.12 1.34.14h.95a18.4 18.4 0 0 0 2.93-.25l.76-.14.55-.12a25.92 25.92 0 0 0 3.75-1.16h.07a3.74 3.74 0 0 0 .45-.22 3.64 3.64 0 0 0 1.83-2.75 3.48 3.48 0 0 0 0-.57 2.29 2.29 0 0 1 .52-.05 2.63 2.63 0 0 1 2.24 1.27 54.47 54.47 0 0 1 4.48 10.26 21.61 21.61 0 0 1 1.17 6.23z" fill="#8abfc5" transform="translate(-100.78 -147.03)"></path> <path d="m789.39 458.86a85.81 85.81 0 0 1 -3.13 14.73l-66.09-24.28z" fill="#7babb0" transform="translate(-100.78 -147.03)"></path> <path d="m783.7 423c-18.43-9.73-33.45-23.56-43.91-42.91 0 0 0 29.88 8.55 33.43 7.66 3.19 35.36 9.48 35.36 9.48z" fill="#7babb0" transform="translate(-100.78 -147.03)"></path> <path d="m768.36 267c-.08.84-.62 1.59-.65 2.44a3 3 0 0 0 1 2.15 16.81 16.81 0 0 0 2 1.44 12.49 12.49 0 0 1 3.27 3.41c.24.38.46.91.17 1.27a.79.79 0 0 1 -.75.22 2.29 2.29 0 0 1 -.74-.35l-4.5-2.77a15.87 15.87 0 0 1 -3.6-2.74 5.36 5.36 0 0 1 -1.51-4.13 7.15 7.15 0 0 1 1.07-2.39 2.67 2.67 0 0 1 2.91-1.21 1.53 1.53 0 0 1 .53.24 2.76 2.76 0 0 1 .8 2.42z" fill="#e39b75" transform="translate(-100.78 -147.03)"></path> <path d="m1017.05 322.78c-4.54-16.93-21.76-20-21.76-20s2.84-.66 3.62-.88a24.94 24.94 0 0 0 8.74-4.73 45.87 45.87 0 0 0 9.9-12.32 4.57 4.57 0 0 1 .29-.47 20.42 20.42 0 0 0 3.94-1.3 4.55 4.55 0 0 0 .27.73l6 14.51c5.63 4.05-3.6 22.96-11 24.46z" fill="#e39b75" transform="translate(-100.78 -147.03)"></path> <path d="m1085 382.57c-3.07 40-15.37 84.54-15.37 84.54l-33.9 69.53-2.37-.77-5.49-1.77a39.84 39.84 0 0 1 1.23-5.52q2.84-10 5.69-19.94 7.73-27.09 15.46-54.19c1.87-6.61 3.77-13.25 5.45-19.95 3.65-14.61 6.31-29.4 5.68-44.38-.92-21.85-10-44.54-28.43-56.33-5.37-3.43-11.86-6.45-15.91-11 12.77-11.29 11.13-23.65 11-24.4 5.25-.05 62.05 30.41 56.96 84.18z" fill="#7688bf" transform="translate(-100.78 -147.03)"></path> <path d="m910.15 381.58 24.81-140.82-19.51 142.53z" fill="#959fbf"></path> <path d="m735.07 656v109.24h-5.77l-4.18-118.71c-5.83-72-.87-113.44 1.76-128.82a27.69 27.69 0 0 1 4.12 12.77c1.11 18.3 4.07 70.3 4.07 125.52z" fill="#2d4680" transform="translate(-100.78 -147.03)"></path> <path d="m844.35 620.59-7.86 146.22h-5.9l2.91-245a5 5 0 0 1 7.73-4.07c4.59 39.54 3.12 102.85 3.12 102.85z" fill="#2d4680" transform="translate(-100.78 -147.03)"></path> <path d="m752 794.68v10a8.86 8.86 0 0 1 -3.51 7.16c-13.61 9.95-32.25 6-40.87 3.36a6.68 6.68 0 0 1 -4.72-6.4 6.66 6.66 0 0 1 2.1-4.8c4.43 1.27 8.81 2.77 13.31 3.85 6.67 1.59 13.91 2.14 20.22-.54a28.3 28.3 0 0 0 11.06-9.1c.85-1.13 1.66-2.32 2.41-3.53z" fill="#6e79a1" transform="translate(-100.78 -147.03)"></path> <path d="m863.81 808.16c-14.5.49-54.56 1.29-56.8-4.93a14.61 14.61 0 0 1 -.57-6 13.41 13.41 0 0 0 4.5 2.85 34 34 0 0 0 8.74 1.83 164.5 164.5 0 0 0 23.23 1.61 59.27 59.27 0 0 0 22.7-4.59 20 20 0 0 1 2.22-.87 5.91 5.91 0 0 1 -4.02 10.1z" fill="#6e79a1" transform="translate(-100.78 -147.03)"></path> <circle cx="813.22" cy="240.76" fill="none" r="18.04" stroke="#8abfc5" stroke-miterlimit="10" stroke-width="2"></circle> <path d="m802.43 241 7.99 8 13.45-13.46" fill="none" stroke="#8abfc5" stroke-linecap="round" stroke-linejoin="round" stroke-width="2"></path> <path d="m746.45 222.72h36.07" fill="none" stroke="#c6cfe3" stroke-linecap="round" stroke-linejoin="round"></path> <path d="m746.45 248.37h36.07" fill="none" stroke="#c6cfe3" stroke-linecap="round" stroke-linejoin="round"></path> <path d="m746.45 274.02h48.73" fill="none" stroke="#c6cfe3" stroke-linecap="round" stroke-linejoin="round"></path> <path d="m791.08 339.99h7.96l8.47-8.47v8.47l10.18-10.17v10.17h8.08" fill="none" stroke="#c6cfe3" stroke-linecap="round" stroke-linejoin="round"></path> <path d="m866.57 465.53 8.57 6.64a2.39 2.39 0 0 0 3.11-.21 2.36 2.36 0 0 0 -.16-3.47l-7.09-5.91" fill="#ffae83" transform="translate(-100.78 -147.03)"></path> <path d="m774.37 325.14-8.49-6.57 5.69 4.85z" fill="#e39b75"></path> <g transform="translate(-100.78 -147.03)"> <path d="m874.56 465.54 4.84 4a2.37 2.37 0 0 0 3.11 0 2.37 2.37 0 0 0 .06-3.48l-6.66-6.34" fill="#ffae83"></path> <path d="m882.8 465.85-6.66-6.35 6.3 6.71a2.35 2.35 0 0 1 .23 3.15h.07a2.36 2.36 0 0 0 .06-3.51z" fill="#e39b75"></path> <path d="m878.46 468.12-7.06-5.91 6.69 6.28a2.34 2.34 0 0 1 .3 3.28l.23-.18a2.36 2.36 0 0 0 -.16-3.47z" fill="#e39b75"></path> <path d="m852.86 471.08a2.44 2.44 0 0 1 -.27-3.43l5.52-6.52a2.43 2.43 0 0 1 3.43-.26 2.43 2.43 0 0 1 .26 3.43l-5.51 6.51a2.44 2.44 0 0 1 -3.43.27z" fill="#ffc3a3"></path> <path d="m855.79 470.39a2.28 2.28 0 0 0 -.53 1.12 2.43 2.43 0 0 0 1-.7l5.51-6.51a2.28 2.28 0 0 0 .53-1.12 2.41 2.41 0 0 0 -1 .69z" fill="#e39b75"></path> <path d="m856.55 474.24a2.43 2.43 0 0 1 -.26-3.43l5.51-6.51a2.43 2.43 0 0 1 3.43-.26 2.43 2.43 0 0 1 .26 3.43l-5.49 6.53a2.43 2.43 0 0 1 -3.45.24z" fill="#ffc3a3"></path> <path d="m864.91 467-5.51 6.51a2.37 2.37 0 0 0 -.56 1.24 2.43 2.43 0 0 0 1.16-.75l5.51-6.51a2.37 2.37 0 0 0 .56-1.24 2.43 2.43 0 0 0 -1.16.75z" fill="#e39b75"></path> <path d="m850.09 466.83a2.43 2.43 0 0 1 -.26-3.43l3.93-4.67a2.43 2.43 0 0 1 3.43-.26 2.43 2.43 0 0 1 .26 3.43l-3.93 4.67a2.44 2.44 0 0 1 -3.43.26z" fill="#ffc3a3"></path> <path d="m853 466.1a2.4 2.4 0 0 0 -.54 1.18 2.38 2.38 0 0 0 1.08-.71l3.93-4.67a.67.67 0 1 0 -.54-.46z" fill="#e39b75"></path> <path d="m861.16 476.33a2.44 2.44 0 0 1 -.26-3.43l3-3.59a2.44 2.44 0 0 1 3.43-.26 2.43 2.43 0 0 1 .26 3.43l-3 3.59a2.43 2.43 0 0 1 -3.43.26z" fill="#ffc3a3"></path> </g> <rect fill="#ffae83" height="22.23" rx="2.25" transform="matrix(.99761251 .06906003 -.06906003 .99761251 -58.73 -215.39)" width="6.37" x="1005.5" y="562.22"></rect> <path d="m1010.46 581.4a3.22 3.22 0 0 0 .32 1.6 3.17 3.17 0 0 0 .54-1.54l1.09-15.82a3.05 3.05 0 0 0 -.32-1.59 3.19 3.19 0 0 0 -.53 1.53z" fill="#e39b75" transform="translate(-100.78 -147.03)"></path> <rect fill="#ffae83" height="22.23" rx="2.25" transform="matrix(.99761251 .06906003 -.06906003 .99761251 -58.68 -215.83)" width="6.37" x="1011.86" y="562.66"></rect> <path d="m1017.77 566-1.1 15.82a3.24 3.24 0 0 0 .38 1.73 3.09 3.09 0 0 0 .62-1.66l1.1-15.82a3.26 3.26 0 0 0 -.38-1.73 3.12 3.12 0 0 0 -.62 1.66z" fill="#e39b75" transform="translate(-100.78 -147.03)"></path> <rect fill="#ffae83" height="19.04" rx="2.25" transform="matrix(.99761251 .06906003 -.06906003 .99761251 -58.79 -214.96)" width="6.37" x="999.17" y="563.1"></rect> <path d="m1004.16 579.1a3.21 3.21 0 0 0 .35 1.66 3.16 3.16 0 0 0 .58-1.6l.88-12.64a3.21 3.21 0 0 0 -.35-1.66 3.07 3.07 0 0 0 -.58 1.6z" fill="#e39b75" transform="translate(-100.78 -147.03)"></path> <rect fill="#ffae83" height="17.18" rx="2.25" transform="matrix(.99761251 .06906003 -.06906003 .99761251 -58.59 -216.27)" width="6.37" x="1018.17" y="566.28"></rect> <path d="m1037.3 800.79a21.59 21.59 0 0 1 -13.24 20.8c-12.75 5.21-29.95 4-35.35 3.5a8.54 8.54 0 0 1 -4.86-2 5.31 5.31 0 0 1 -1.35-6.52 16.89 16.89 0 0 1 5 2.14c9.86 5.3 22.2 6.11 32.39 1.5a32.41 32.41 0 0 0 9.06-6.13 32.74 32.74 0 0 0 8.35-13.29z" fill="#78a6ab" transform="translate(-100.78 -147.03)"></path> <path d="m1005.71 790.67a18.53 18.53 0 0 1 -2.35 4.62h-41.52a4.5 4.5 0 0 1 -4.54-3.69 4.35 4.35 0 0 1 .69-3 6.83 6.83 0 0 0 4.43 2.94 20.45 20.45 0 0 0 5.47.3l35.29-1.22a16.43 16.43 0 0 1 2.53.05z" fill="#78a6ab" transform="translate(-100.78 -147.03)"></path> <path d="m797.36 241.14a20.56 20.56 0 0 1 -20.09 23h-2.07c-.22-.42-.43-.83-.61-1.26a24.07 24.07 0 0 1 -1.59-11.2 30.31 30.31 0 0 1 5-15 22.72 22.72 0 0 1 12.69-9.15 28.75 28.75 0 0 1 14 .38 42.73 42.73 0 0 1 16.91 8.11 11.68 11.68 0 0 1 1 .88 68.36 68.36 0 0 1 1.72 11.27 37.44 37.44 0 0 1 -26.96-7.03z" fill="#1c2c50" transform="translate(-100.78 -147.03)"></path> <path d="m1033.36 273.26a27.73 27.73 0 0 1 -7.52 7.67 24.51 24.51 0 0 1 -4.06 2.17c-3.18 1.38-7 2.37-8.57.44a13.88 13.88 0 0 1 3-4.43c4.08-4.77 7.26-10.48 8.16-16.7s-.74-13-5.12-17.47c-4.66-4.82-11.74-6.53-18.45-6.67-7-.14-14.49 1.4-19.7 6.14-3.91 3.58-4.75 7.48-5 11.9a10.62 10.62 0 0 1 -.82-2.44c-4.47-21.42 25.26-27.52 34.9-26.91a30 30 0 0 1 23.19 46.3z" fill="#1c2c50" transform="translate(-100.78 -147.03)"></path> </svg> 